<svg id="Layer_1" data-name="Layer 1" xmlns="http://www.w3.org/2000/svg" xmlns:xlink="http://www.w3.org/1999/xlink" viewBox="0 0 1377.3 510"><defs><clipPath id="clip-path"><circle cx="1131.95" cy="294.76" r="146.5" style="fill:none;stroke:#110ccc;stroke-miterlimit:10;stroke-width:2px"/></clipPath></defs><title>Artboard 1</title><g style="opacity:0.05000000074505806"><path d="M-180.2,381.2c116.6,69.2,292.3,148.7,438.5,84.2,188-82.9,158.1-329.6,324-386.6,193.8-66.6,348.4,231.1,654.5,229,178.8-1.3,321.9-104.2,408.2-181.4" style="fill:none;stroke:#231f20;stroke-miterlimit:10;stroke-width:0.5px"/><path d="M-179.2,375.9C-105.5,417.3-7.4,463,92.6,476.3c56.7,7.5,112.7,4,164.8-16.5,87.8-34.6,128.8-101.6,166.4-171.7,43.3-80.2,75.3-163.3,162.8-195.8,52-19.3,101.6-11.6,153.4,7.9C877.4,152,1016.6,299,1237.3,293.1c173.3-4.6,314.5-104.4,402.3-184.1" style="fill:none;stroke:#231f20;stroke-miterlimit:10;stroke-width:0.5px"/><path d="M-178,370.7c72.9,38.7,170.6,81.8,271.3,95.9,57,8,112.2,5.4,163.6-12.4,88-30.5,129.3-90.3,169.8-156.3,46.5-75.8,77.7-157.5,164.3-192.1,50.3-20,99-14.2,150.9,1.6,140,42.7,276,181.5,496,171.1,167.9-7.9,307-104.6,396.3-186.9" style="fill:none;stroke:#231f20;stroke-miterlimit:10;stroke-width:0.5px"/><path d="M-177,365.4c72.1,36,169.5,76.4,270.7,91.4,57.2,8.5,111.8,6.8,162.4-8.2,88.3-26.3,130.1-78.8,173.4-140.8,49.8-71.3,80.2-151.6,165.9-188.3,48.6-20.8,96.4-16.9,148.4-4.7,142.7,33.5,275.2,164.3,494.7,149.3,162.4-11,299.5-104.7,390.4-189.5" style="fill:none;stroke:#231f20;stroke-miterlimit:10;stroke-width:0.5px"/><path d="M-175.9,360.1c71.4,33.3,168.4,71,270.2,86.8,57.5,8.9,111.4,8.3,161.1-4,88.7-22,130.8-67.5,176.9-125.4,53.1-66.8,82.7-145.7,167.4-184.6,46.9-21.5,94-19.6,145.9-11,145.6,24.2,274.5,147.1,493.3,127.5,156.9-14.1,292.1-104.9,384.5-192.2" style="fill:none;stroke:#231f20;stroke-miterlimit:10;stroke-width:0.5px"/><path d="M-174.8,354.9c70.6,30.6,167.3,65.6,269.6,82.3,57.7,9.4,111.1,9.9,159.9.2,89.1-17.7,131.5-56.1,180.3-110,56.5-62.3,85.2-139.7,169-180.9,45.3-22.2,91.6-22.5,143.4-17.4,148.6,14.7,273.7,130.1,492,105.8,151.4-17,284.7-105.1,378.6-195" style="fill:none;stroke:#231f20;stroke-miterlimit:10;stroke-width:0.5px"/><path d="M-173.7,349.6c69.8,27.9,166.1,60.3,269,77.8,58,9.8,110.8,11.5,158.6,4.3,89.6-13.3,132.3-44.7,183.9-94.6,59.9-57.9,87.7-133.7,170.6-177.2,43.6-22.9,89.2-25.4,140.9-23.7,151.7,5,272.9,113.3,490.7,84,145.8-19.7,277.1-105.3,372.6-197.7" style="fill:none;stroke:#231f20;stroke-miterlimit:10;stroke-width:0.5px"/><path d="M-172.6,344.3c69.1,25.1,165,54.9,268.5,73.2,58.3,10.3,110.5,13.1,157.4,8.5,90.2-8.8,133-33.3,187.4-79.1,63.3-53.4,90.2-127.6,172.2-173.4,42-23.5,86.8-28.3,138.4-30,154.8-5,272.1,96.6,489.3,62.2,140.3-22.3,269.7-105.4,366.7-200.3" style="fill:none;stroke:#231f20;stroke-miterlimit:10;stroke-width:0.5px"/><path d="M-171.6,339.1c68.3,22.4,163.9,49.5,268,68.7,58.5,10.8,110.2,14.8,156.1,12.7,90.7-4.2,133.8-21.9,190.8-63.7,66.8-48.9,93-121.5,173.9-169.8,40.4-24.1,84.4-31.4,136-36.3,157.9-15.1,271.3,80.1,488,40.4,134.8-24.7,262.2-105.6,360.7-203" style="fill:none;stroke:#231f20;stroke-miterlimit:10;stroke-width:0.5px"/><path d="M-170.5,333.8C-102.9,353.5-7.7,377.9,96.9,398c58.8,11.2,109.9,16.6,154.9,16.9,91.3.5,134.6-10.5,194.3-48.3,70.1-44.3,95.4-115.3,175.3-166,38.8-24.6,82-34.5,133.5-42.6,161-25.5,270.6,63.8,486.7,18.6,129.3-27.1,254.7-105.7,354.8-205.7" style="fill:none;stroke:#231f20;stroke-miterlimit:10;stroke-width:0.5px"/><path d="M-169.4,328.5c66.8,17,161.7,38.8,266.8,59.6,59,11.7,109.7,18.5,153.7,21,91.9,5.4,135.4.9,197.8-32.9,73.6-39.8,98.1-109,176.9-162.3,37.2-25.1,79.6-37.7,131-49,164-36,269.8,47.7,485.3-3.2C1366,132.5,1489.3,55.8,1590.9-46.7" style="fill:none;stroke:#231f20;stroke-miterlimit:10;stroke-width:0.5px"/><path d="M-168.3,323.3c66,14.3,160.6,33.4,266.3,55.1,59.3,12.1,109.4,20.4,152.4,25.2C342.8,414,386.6,416,451.8,386.2c77-35.3,100.8-102.6,178.5-158.5,35.6-25.6,77.2-40.9,128.5-55.3,166.9-46.8,269.2,31.9,484-25,118.5-31.3,239.8-106.1,342.9-211.1" style="fill:none;stroke:#231f20;stroke-miterlimit:10;stroke-width:0.5px"/><path d="M-167.2,318c65.3,11.6,159.4,28,265.7,50.5,59.6,12.6,109.1,22.4,151.2,29.4,92.9,15.5,137,23.9,204.8-2,80.5-30.7,103.5-96.3,180-154.8,34.1-26.1,74.7-44.2,126-61.6,169.7-57.6,268.6,16.4,482.7-46.7,113.1-33.3,232.3-106.2,337-213.8" style="fill:none;stroke:#231f20;stroke-miterlimit:10;stroke-width:0.5px"/><path d="M-166.2,312.7c64.5,8.9,158.3,22.6,265.2,46,59.8,13.1,108.7,24.4,149.9,33.6,93.3,20.8,137.8,35.3,208.3,13.4,83.9-26,106.3-89.7,181.6-151,32.6-26.5,72.2-47.5,123.5-67.9,172.4-68.7,268.2,1,481.4-68.6C1351.5,83,1468.5,11.8,1574.8-98.3" style="fill:none;stroke:#231f20;stroke-miterlimit:10;stroke-width:0.5px"/><path d="M-165.1,307.5c63.8,6.2,157.2,17.3,264.6,41.5,60.1,13.5,108.4,26.5,148.7,37.8C341.9,413,386.8,433.7,460,415.7c87.3-21.5,109.2-83.3,183.2-147.4,31.1-27,69.6-50.8,121-74.3,174.9-79.8,267.9-14,480-90.3,102.6-36.9,217.4-106.6,325.1-219.2" style="fill:none;stroke:#231f20;stroke-miterlimit:10;stroke-width:0.5px"/><path d="M-164,302.2c63,3.5,156.1,11.9,264.1,36.9a1509,1509,0,0,1,147.4,42c93.9,31.8,139.4,58.5,215.3,44.3,90.8-16.7,112.3-76.7,184.8-143.6,29.7-27.4,67-54.1,118.6-80.6,177.3-91,267.8-28.7,478.7-112.1,97.3-38.5,209.9-106.7,319.1-221.9" style="fill:none;stroke:#231f20;stroke-miterlimit:10;stroke-width:0.5px"/><path d="M-162.9,297a1198.74,1198.74,0,0,1,263.5,32.4c207.5,49.5,254,120.2,365,105.8,131.6-17,120.6-123.3,302.4-226.8,179.5-102.2,268-43,477.4-133.9,92.3-40.1,202.4-106.9,313.2-224.6" style="fill:none;stroke:#231f20;stroke-miterlimit:10;stroke-width:0.5px"/></g><g style="clip-path:url(#clip-path)"><image width="660" height="487" transform="translate(810.45 78.26)" xlink:href="Artboard%2011.png"/></g><circle cx="1131.95" cy="294.76" r="146.5" style="fill:none;stroke:#110ccc;stroke-miterlimit:10;stroke-width:2px"/></svg>