<?xml version="1.0" encoding="utf-8"?>
<!-- Generator: Adobe Illustrator 23.0.1, SVG Export Plug-In . SVG Version: 6.00 Build 0)  -->
<svg version="1.1" id="Layer_1" xmlns="http://www.w3.org/2000/svg" xmlns:xlink="http://www.w3.org/1999/xlink" x="0px" y="0px"
	 viewBox="0 0 540 288" style="enable-background:new 0 0 540 288;" xml:space="preserve">
<style type="text/css">
	.st0{clip-path:url(#SVGID_2_);}
	.st1{fill:#470303;}
	.st2{fill:#FF171D;}
</style>
<g>
	<g>
		<defs>
			<rect id="SVGID_1_" y="0" width="540" height="288"/>
		</defs>
		<use xlink:href="#SVGID_1_"  style="overflow:visible;fill:#001323;"/>
		<clipPath id="SVGID_2_">
			<use xlink:href="#SVGID_1_"  style="overflow:visible;"/>
		</clipPath>
		<g class="st0">
			<g>
				<g>
					<polygon class="st1" points="391.2,247 303.7,205.9 303.7,205.8 391.3,246.9 					"/>
				</g>
				<g>
					<polygon class="st1" points="395.9,249.2 305.2,206.7 305.3,206.6 395.9,249.1 					"/>
				</g>
				<g>
					<polygon class="st1" points="548.6,319.1 406.8,254.1 406.7,254.2 548.6,319.2 					"/>
				</g>
				<g>
					<polygon class="st1" points="548.6,319.1 409.9,255.6 409.8,255.7 548.6,319.2 					"/>
				</g>
				<g>
					<polygon class="st1" points="540.8,196 535.5,195.5 535.5,195.4 540.8,195.9 					"/>
				</g>
				<g>
					<polygon class="st1" points="548.6,204 539.9,198.5 539.9,198.6 548.6,204.2 					"/>
				</g>
				<g>
					<polygon class="st1" points="544.2,196.3 538.9,195.8 538.9,195.7 544.2,196.2 					"/>
				</g>
				<g>
					<polygon class="st1" points="548.6,203 544.6,200.8 544.5,200.9 548.6,203.2 					"/>
				</g>
				<g>
					<polygon class="st1" points="548.6,196.9 513.8,175 513.8,175.1 548.6,197 					"/>
				</g>
				<g>
					<polygon class="st1" points="548.6,175.7 517.4,148.9 517.3,149 548.6,175.8 					"/>
				</g>
				<g>
					<polygon class="st1" points="548.6,175.7 514.8,146.7 514.7,146.8 548.6,175.8 					"/>
				</g>
				<g>
					<polygon class="st1" points="507.4,160.8 507.3,160.8 509.2,148.7 509.3,148.8 					"/>
				</g>
				<g>
					<polygon class="st1" points="548.6,203 540.1,198.2 540,198.4 548.6,203.2 					"/>
				</g>
				<g>
					<polygon class="st1" points="530.3,191.5 511.6,175.2 511.7,175.1 530.4,191.4 					"/>
				</g>
				<g>
					
						<rect x="527.9" y="145.3" transform="matrix(0.8397 -0.5431 0.5431 0.8397 -7.8433 314.0448)" class="st1" width="0.1" height="50.1"/>
				</g>
				<g>
					<polygon class="st1" points="529,190.4 510.3,174.1 510.4,174 529.1,190.3 					"/>
				</g>
				<g>
					
						<rect x="527" y="143.8" transform="matrix(0.8393 -0.5436 0.5436 0.8393 -7.1171 313.667)" class="st1" width="0.1" height="50.1"/>
				</g>
				<g>
					<polygon class="st1" points="329.4,322.3 318.8,268.3 318.7,268.3 329.3,322.3 					"/>
				</g>
				<g>
					<polygon class="st1" points="544.5,322.3 333.5,260.7 333.5,260.8 544.1,322.3 					"/>
				</g>
				<g>
					<polygon class="st1" points="329.4,322.3 317.5,261.6 317.4,261.6 329.3,322.3 					"/>
				</g>
				<g>
					<polygon class="st1" points="544.5,322.3 322,257.4 322,257.5 544.1,322.3 					"/>
				</g>
				<g>
					<polygon class="st1" points="548.6,137.7 524.1,119.9 524,120 548.6,137.8 					"/>
				</g>
				<g>
					<polygon class="st1" points="548.6,129.4 524.7,118.8 524.6,119 548.6,129.5 					"/>
				</g>
				<g>
					<polygon class="st1" points="548.6,137.7 526.8,121.9 526.8,122 548.6,137.8 					"/>
				</g>
				<g>
					<polygon class="st1" points="548.6,129.4 527.8,120.2 527.8,120.3 548.6,129.5 					"/>
				</g>
				<g>
					<polygon class="st1" points="548.6,158.7 521.6,153.9 521.5,154 548.6,158.8 					"/>
				</g>
				<g>
					
						<rect x="540.9" y="164.5" transform="matrix(0.9897 -0.1433 0.1433 0.9897 -21.8388 79.5022)" class="st1" width="0.1" height="53.7"/>
				</g>
				<g>
					<polygon class="st1" points="548.6,178.9 542.1,168.3 542,168.4 548.6,179.2 					"/>
				</g>
				<g>
					<polygon class="st1" points="548.6,158.7 518.2,153.3 518.2,153.4 548.6,158.8 					"/>
				</g>
				<g>
					<polygon class="st1" points="250.2,186 214.5,169.5 214.6,169.3 250.3,185.9 					"/>
				</g>
				<g>
					<polygon class="st1" points="251.8,186.6 189.7,156.7 189.7,156.6 251.9,186.5 					"/>
				</g>
				<g>
					<polygon class="st1" points="251.7,186.9 190.9,159.8 191,159.7 251.8,186.7 					"/>
				</g>
				<g>
					<polygon class="st1" points="248.8,185.1 224.9,173.2 225,173.1 248.9,184.9 					"/>
				</g>
				<g>
					
						<rect x="331.6" y="151.5" transform="matrix(0.3977 -0.9175 0.9175 0.3977 -3.479 437.6815)" class="st1" width="0.1" height="140"/>
				</g>
				<g>
					<polygon class="st1" points="248.9,184.9 241.3,180.9 241.4,180.8 249,184.7 					"/>
				</g>
				<g>
					<polygon class="st1" points="253.3,187.5 216.1,170.2 216.1,170.1 253.4,187.4 					"/>
				</g>
				<g>
					<polygon class="st1" points="253.4,187.4 191.2,157.5 191.2,157.4 253.4,187.3 					"/>
				</g>
				<g>
					<polygon class="st1" points="287.7,199.8 264.4,191.9 264.5,191.8 287.8,199.7 					"/>
				</g>
				<g>
					
						<rect x="222.8" y="140.7" transform="matrix(0.4062 -0.9138 0.9138 0.4062 -26.6104 307.0135)" class="st1" width="0.1" height="66.6"/>
				</g>
				<g>
					<polygon class="st1" points="253.4,187.3 229.5,175.5 229.6,175.4 253.5,187.2 					"/>
				</g>
				<g>
					<polygon class="st1" points="253.4,187.2 245.9,183.3 245.9,183.2 253.5,187.1 					"/>
				</g>
				<g>
					<polygon class="st1" points="427.4,322.3 263.5,193.6 263.4,193.7 427.2,322.3 					"/>
				</g>
				<g>
					<polygon class="st1" points="427.4,322.3 264.9,194.6 264.8,194.7 427.2,322.3 					"/>
				</g>
				<g>
					<polygon class="st1" points="482.9,253.1 462.4,242.1 462.4,242 483,253 					"/>
				</g>
				<g>
					<polygon class="st1" points="548.6,277.8 495.5,258.5 495.4,258.6 548.6,277.9 					"/>
				</g>
				<g>
					<polygon class="st1" points="548.6,274.3 462.8,241.2 462.8,241.3 548.6,274.4 					"/>
				</g>
				<g>
					
						<rect x="411.1" y="178.5" transform="matrix(0.3969 -0.9179 0.9179 0.3969 46.7523 509.6208)" class="st1" width="0.1" height="81.5"/>
				</g>
				<g>
					<polygon class="st1" points="548.6,274.3 461.2,240.6 461.2,240.7 548.6,274.4 					"/>
				</g>
				<g>
					
						<rect x="412.7" y="179.2" transform="matrix(0.3969 -0.9179 0.9179 0.3969 47.0779 511.472)" class="st1" width="0.1" height="81.5"/>
				</g>
				<g>
					<polygon class="st1" points="548.6,314.6 267.4,193.6 267.4,193.7 548.6,314.8 					"/>
				</g>
				<g>
					<polygon class="st1" points="292.6,201.5 266,192.5 266.1,192.3 292.6,201.4 					"/>
				</g>
				<g>
					
						<rect x="172.6" y="146.9" transform="matrix(9.927698e-02 -0.9951 0.9951 9.927698e-02 8.6238 304.7965)" class="st1" width="0.1" height="1.5"/>
				</g>
				<g>
					
						<rect x="217.5" y="130" transform="matrix(0.4588 -0.8886 0.8886 0.4588 -32.0959 284.602)" class="st1" width="0.1" height="77.4"/>
				</g>
				<g>
					
						<rect x="187.9" y="148.4" transform="matrix(9.945705e-02 -0.995 0.995 9.945705e-02 20.8554 321.3631)" class="st1" width="0.1" height="1.5"/>
				</g>
				<g>
					<polygon class="st1" points="548.6,314.6 264.3,192.2 264.3,192.3 548.6,314.8 					"/>
				</g>
				<g>
					
						<rect x="219.8" y="132" transform="matrix(0.4588 -0.8885 0.8885 0.4588 -31.9088 287.26)" class="st1" width="0.1" height="75.7"/>
				</g>
				<g>
					<polygon class="st1" points="253.5,187.1 191,153.2 191,153.1 253.6,187 					"/>
				</g>
				<g>
					<polygon class="st1" points="-20.6,283.3 -20.6,283.4 15,301.9 15.1,301.8 					"/>
				</g>
				<g>
					<polygon class="st1" points="65.7,322.3 36.9,311.5 36.8,311.7 65.3,322.3 					"/>
				</g>
				<g>
					<polygon class="st1" points="-20.6,283.3 -20.6,283.4 21.1,305 21.2,304.9 					"/>
				</g>
				<g>
					<polygon class="st1" points="65.7,322.3 32.1,309.8 32,309.9 65.3,322.3 					"/>
				</g>
				<g>
					<polygon class="st1" points="443,320.6 254,201.1 254.1,201 443.1,320.5 					"/>
				</g>
				<g>
					<polygon class="st1" points="247.6,196.2 247.5,196.2 247.1,191 247.2,191 					"/>
				</g>
				<g>
					<polygon class="st1" points="435.8,322.3 253.2,207 253.1,207.1 435.6,322.3 					"/>
				</g>
				<g>
					<polygon class="st1" points="436,322.3 419.2,311.2 419.2,311.3 435.8,322.3 					"/>
				</g>
				<g>
					<polygon class="st1" points="434.4,322.3 417.7,310.4 417.6,310.5 434.2,322.3 					"/>
				</g>
				<g>
					
						<rect x="282.7" y="258.2" transform="matrix(0.3577 -0.9338 0.9338 0.3577 -71.0218 437.7773)" class="st1" width="0.1" height="24.7"/>
				</g>
				<g>
					<polygon class="st1" points="361.4,307.4 305.2,279.8 305.2,279.7 361.5,307.3 					"/>
				</g>
				<g>
					
						<rect x="316.1" y="235.8" transform="matrix(0.414 -0.9103 0.9103 0.414 -76.0301 456.0471)" class="st1" width="0.1" height="102.6"/>
				</g>
				<g>
					<polygon class="st1" points="362.9,308.4 283.2,272.7 283.3,272.6 362.9,308.3 					"/>
				</g>
				<g>
					<polygon class="st1" points="363.1,308 284.3,266.7 284.4,266.6 363.1,307.9 					"/>
				</g>
				<g>
					
						<rect x="322.7" y="246" transform="matrix(0.4138 -0.9104 0.9104 0.4138 -74.8679 463.8995)" class="st1" width="0.1" height="88.2"/>
				</g>
				<g>
					<polygon class="st1" points="363.4,304.7 363.3,304.8 320.4,260.1 320.5,260 					"/>
				</g>
				<g>
					<polygon class="st1" points="364.5,308.9 308.3,281.3 308.3,281.2 364.6,308.8 					"/>
				</g>
				<g>
					
						<rect x="317.7" y="236.5" transform="matrix(0.414 -0.9103 0.9103 0.414 -75.7633 457.8757)" class="st1" width="0.1" height="102.6"/>
				</g>
				<g>
					<polygon class="st1" points="364.4,309.1 284.8,273.4 284.8,273.3 364.5,309 					"/>
				</g>
				<g>
					<polygon class="st1" points="364.6,308.8 285.8,267.5 285.9,267.4 364.6,308.7 					"/>
				</g>
				<g>
					
						<rect x="324.3" y="246.7" transform="matrix(0.4138 -0.9104 0.9104 0.4138 -74.6006 465.7279)" class="st1" width="0.1" height="88.2"/>
				</g>
				<g>
					<polygon class="st1" points="365.8,307.2 365.7,307.2 322.7,262.6 322.8,262.5 					"/>
				</g>
				<g>
					<polygon class="st1" points="424.2,322.3 322.8,259.7 322.8,259.8 423.9,322.3 					"/>
				</g>
				<g>
					<polygon class="st1" points="424.2,322.3 321.4,258.8 321.3,258.9 423.9,322.3 					"/>
				</g>
				<g>
					<polygon class="st1" points="-20.6,281.2 -20.6,281.3 61.9,322.3 62.2,322.3 					"/>
				</g>
				<g>
					<polygon class="st1" points="-20.6,281.2 -20.6,281.3 61.9,322.3 62.2,322.3 					"/>
				</g>
				<g>
					<polygon class="st1" points="-20.6,274.1 -20.6,274.2 93.7,322.3 94,322.3 					"/>
				</g>
				<g>
					<polygon class="st1" points="-20.6,274.1 -20.6,274.2 93.7,322.3 94,322.3 					"/>
				</g>
				<g>
					<polygon class="st1" points="396.3,322.3 323.5,261.7 323.5,261.8 396.1,322.3 					"/>
				</g>
				<g>
					<polygon class="st1" points="396.3,322.3 320.9,259.5 320.8,259.6 396.1,322.3 					"/>
				</g>
				<g>
					<polygon class="st1" points="332.2,78.8 251.6,16.1 251.7,16 332.3,78.7 					"/>
				</g>
				<g>
					<polygon class="st1" points="512,113.8 252.5,14.5 252.5,14.4 512,113.7 					"/>
				</g>
				<g>
					<polygon class="st1" points="548.6,129.1 526.3,119.5 526.2,119.6 548.6,129.2 					"/>
				</g>
				<g>
					<polygon class="st1" points="136.5,-13.3 331.4,80.2 331.4,80.1 136.8,-13.3 					"/>
				</g>
				<g>
					<polygon class="st1" points="163.5,-13.3 511.9,113.9 512,113.8 163.8,-13.3 					"/>
				</g>
				<g>
					<polygon class="st1" points="333.6,79.9 252.9,17.1 253,17 333.6,79.8 					"/>
				</g>
				<g>
					<polygon class="st1" points="136.5,-13.3 332.9,81 333,80.9 136.8,-13.3 					"/>
				</g>
				<g>
					<polygon class="st1" points="548.6,200 343.6,86.4 343.5,86.5 548.6,200.1 					"/>
				</g>
				<g>
					<polygon class="st1" points="513.6,114.4 254.1,15.2 254.1,15 513.6,114.3 					"/>
				</g>
				<g>
					<polygon class="st1" points="548.6,129.1 524.7,118.8 524.6,118.9 548.6,129.2 					"/>
				</g>
				<g>
					<polygon class="st1" points="548.6,107.1 524.9,114.6 524.9,114.7 548.6,107.2 					"/>
				</g>
				<g>
					<polygon class="st1" points="185,-13.3 513.6,114.4 513.6,114.3 185.3,-13.3 					"/>
				</g>
				<g>
					<polygon class="st1" points="78.3,-13.3 78,-13.3 548.6,220.9 548.6,220.8 					"/>
				</g>
				<g>
					<polygon class="st1" points="548.6,130.2 526.2,119.7 526.1,119.8 548.6,130.3 					"/>
				</g>
				<g>
					<polygon class="st1" points="548.6,200 345.1,87.2 345,87.3 548.6,200.1 					"/>
				</g>
				<g>
					<polygon class="st1" points="78.3,-13.3 78,-13.3 548.6,220.9 548.6,220.8 					"/>
				</g>
				<g>
					<polygon class="st1" points="181.3,-13.3 239.7,9.6 239.8,9.5 181.7,-13.3 					"/>
				</g>
				<g>
					<polygon class="st1" points="185,-13.3 510.4,113.1 510.4,113 185.3,-13.3 					"/>
				</g>
				<g>
					<polygon class="st1" points="548.6,204 516.8,158.6 516.7,158.6 548.6,204.2 					"/>
				</g>
				<g>
					<polygon class="st1" points="548.6,204 515.8,157.2 515.7,157.2 548.6,204.2 					"/>
				</g>
				<g>
					<line class="st1" x1="548.6" y1="228.3" x2="548.6" y2="228.1"/>
					<line class="st1" x1="437.3" y1="322.3" x2="437.5" y2="322.3"/>
				</g>
				<g>
					<line class="st1" x1="548.6" y1="228.3" x2="548.6" y2="228.1"/>
					<line class="st1" x1="437.3" y1="322.3" x2="437.5" y2="322.3"/>
				</g>
				<g>
					<polygon class="st1" points="548.6,261.2 485.6,322.3 485.8,322.3 548.6,261.4 					"/>
				</g>
				<g>
					<polygon class="st1" points="548.6,261.2 485.6,322.3 485.8,322.3 548.6,261.4 					"/>
				</g>
				<g>
					<polygon class="st1" points="-20.6,278.1 -20.6,278.2 210.5,322.3 211.1,322.3 					"/>
				</g>
				<g>
					<polygon class="st1" points="367.8,34.6 352.8,32.4 352.8,32.3 367.8,34.5 					"/>
				</g>
				<g>
					<polygon class="st1" points="506,147.8 351.7,35 351.8,34.9 506.1,147.7 					"/>
				</g>
				<g>
					<polygon class="st1" points="344.3,30.1 341.7,28.5 341.8,28.4 344.4,29.9 					"/>
				</g>
				<g>
					<polygon class="st1" points="530,154.4 430.4,82.4 430.5,82.3 530.1,154.3 					"/>
				</g>
				<g>
					
						<rect x="435.9" y="78.8" transform="matrix(0.4851 -0.8745 0.8745 0.4851 150.4668 424.8155)" class="st1" width="0.1" height="11.7"/>
				</g>
				<g>
					<polygon class="st1" points="548.6,126.1 431.2,81 431.2,81.1 548.6,126.2 					"/>
				</g>
				<g>
					<polygon class="st1" points="420.4,76.1 367.3,46.8 367.4,46.7 420.4,75.9 					"/>
				</g>
				<g>
					<polygon class="st1" points="506.4,147.4 430.1,82.8 430.2,82.7 506.5,147.3 					"/>
				</g>
				<g>
					<polygon class="st1" points="531.4,155.4 431.8,83.4 431.9,83.3 531.5,155.3 					"/>
				</g>
				<g>
					
						<rect x="508.3" y="118.7" transform="matrix(0.466 -0.8848 0.8848 0.466 143.9145 526.8212)" class="st1" width="0.1" height="51.1"/>
				</g>
				<g>
					<polygon class="st1" points="530.5,157.4 523,155.3 523,155.2 530.5,157.2 					"/>
				</g>
				<g>
					<polygon class="st1" points="356.5,57.4 354.3,56.5 354.3,56.4 356.6,57.3 					"/>
				</g>
				<g>
					<polygon class="st1" points="505.7,148.3 367.2,62.9 367.2,62.8 505.8,148.2 					"/>
				</g>
				<g>
					
						<rect x="529.9" y="156.3" transform="matrix(0.9176 -0.3976 0.3976 0.9176 -33.0778 226.602)" class="st1" width="0.1" height="73.5"/>
				</g>
				<g>
					<polygon class="st1" points="548.6,206.8 517.5,160.1 517.4,160.2 548.6,207 					"/>
				</g>
				<g>
					
						<rect x="505.3" y="117.1" transform="matrix(0.466 -0.8848 0.8848 0.466 143.7088 523.2964)" class="st1" width="0.1" height="51.1"/>
				</g>
				<g>
					<polygon class="st1" points="506,147.9 482.3,131.4 482.4,131.3 506,147.8 					"/>
				</g>
				<g>
					<polygon class="st1" points="354.8,59.4 353.3,58.2 353.3,58.1 354.9,59.3 					"/>
				</g>
				<g>
					<polygon class="st1" points="505.6,148.5 364.7,66.1 364.8,66 505.7,148.4 					"/>
				</g>
				<g>
					<polygon class="st1" points="548.6,134.3 519.2,148.8 519.2,149 548.6,134.5 					"/>
				</g>
				<g>
					<polygon class="st1" points="548.6,192.4 519.8,160.5 519.7,160.6 548.6,192.6 					"/>
				</g>
				<g>
					<polygon class="st1" points="442.6,88.4 432.3,82.7 432.4,82.6 442.6,88.3 					"/>
				</g>
				<g>
					<polygon class="st1" points="506.7,147.1 452.1,95.4 452.2,95.3 506.8,147 					"/>
				</g>
				<g>
					<polygon class="st1" points="548.6,126.1 432.8,81.6 432.8,81.7 548.6,126.2 					"/>
				</g>
				<g>
					<polygon class="st1" points="548.6,123.6 429.8,67.8 429.7,67.9 548.6,123.8 					"/>
				</g>
				<g>
					<polygon class="st1" points="548.6,143.8 523.1,149.7 523.1,149.9 548.6,144 					"/>
				</g>
				<g>
					<polygon class="st1" points="548.6,123.6 428.2,67.1 428.2,67.2 548.6,123.8 					"/>
				</g>
				<g>
					<polygon class="st1" points="417.6,61.5 381.9,39.7 382,39.6 417.7,61.4 					"/>
				</g>
				<g>
					<polygon class="st1" points="506.8,147 427,68.8 427.1,68.7 506.8,146.9 					"/>
				</g>
				<g>
					<polygon class="st1" points="418.9,75.2 365.8,46 365.9,45.8 418.9,75.1 					"/>
				</g>
				<g>
					<polygon class="st1" points="506,147.9 365.4,46.6 365.5,46.5 506.1,147.8 					"/>
				</g>
				<g>
					<polygon class="st1" points="355.7,39.5 343.8,30.8 343.9,30.7 355.8,39.4 					"/>
				</g>
				<g>
					<polygon class="st1" points="355,56.8 352.7,55.9 352.8,55.7 355,56.7 					"/>
				</g>
				<g>
					
						<rect x="352.6" y="56.8" transform="matrix(0.6081 -0.7938 0.7938 0.6081 92.3765 302.6163)" class="st1" width="0.1" height="1.9"/>
				</g>
				<g>
					<polygon class="st1" points="505.7,148.4 352.3,56.6 352.4,56.5 505.7,148.3 					"/>
				</g>
				<g>
					<polygon class="st1" points="369.5,34.8 354.5,32.6 354.5,32.5 369.5,34.7 					"/>
				</g>
				<g>
					<polygon class="st1" points="548.6,122.7 380.8,38.3 380.7,38.4 548.6,122.8 					"/>
				</g>
				<g>
					<polygon class="st1" points="416.2,60.7 380.5,38.8 380.5,38.7 416.3,60.5 					"/>
				</g>
				<g>
					<polygon class="st1" points="506.4,147.4 379.9,39.6 380,39.5 506.5,147.3 					"/>
				</g>
				<g>
					<polygon class="st1" points="369.6,34.3 345.1,28.1 345.2,28 369.6,34.1 					"/>
				</g>
				<g>
					
						<rect x="338.3" y="-26.9" transform="matrix(0.549 -0.8358 0.8358 0.549 143.1163 287.9577)" class="st1" width="0.1" height="76.5"/>
				</g>
				<g>
					<polygon class="st1" points="507.4,148.8 353.1,36.1 353.2,36 507.5,148.7 					"/>
				</g>
				<g>
					<polygon class="st1" points="507.7,148.5 431.4,83.9 431.5,83.8 507.8,148.4 					"/>
				</g>
				<g>
					<polygon class="st1" points="528.8,156.9 518,153.9 518.1,153.8 528.9,156.8 					"/>
				</g>
				<g>
					<polygon class="st1" points="507.2,149.2 368.6,63.8 368.7,63.6 507.2,149.1 					"/>
				</g>
				<g>
					
						<rect x="529.2" y="154.8" transform="matrix(0.9171 -0.3986 0.3986 0.9171 -32.4735 226.7944)" class="st1" width="0.1" height="73.5"/>
				</g>
				<g>
					<polygon class="st1" points="548.6,206.8 515.7,157.2 515.5,157.3 548.6,207 					"/>
				</g>
				<g>
					<polygon class="st1" points="507.4,148.9 483.7,132.4 483.8,132.3 507.4,148.8 					"/>
				</g>
				<g>
					<polygon class="st1" points="507.1,149.3 366.2,66.9 366.2,66.8 507.2,149.2 					"/>
				</g>
				<g>
					<polygon class="st1" points="548.6,134.3 517.6,149.6 517.7,149.7 548.6,134.5 					"/>
				</g>
				<g>
					<polygon class="st1" points="548.6,192.4 516.3,156.7 516.3,156.8 548.6,192.6 					"/>
				</g>
				<g>
					<polygon class="st1" points="507.9,148.2 453.4,96.5 453.4,96.5 508,148.1 					"/>
				</g>
				<g>
					<polygon class="st1" points="548.6,143.8 518.1,150.9 518.1,151 548.6,144 					"/>
				</g>
				<g>
					<polygon class="st1" points="508,148.2 428.2,70 428.3,69.9 508.1,148.1 					"/>
				</g>
				<g>
					<polygon class="st1" points="507.4,148.9 366.8,47.6 366.9,47.5 507.5,148.8 					"/>
				</g>
				<g>
					<polygon class="st1" points="507.1,149.3 353.8,57.5 353.8,57.4 507.2,149.2 					"/>
				</g>
				<g>
					<polygon class="st1" points="507.7,148.5 381.2,40.7 381.3,40.6 507.8,148.4 					"/>
				</g>
				<g>
					<polygon class="st1" points="507.4,148.8 343.9,30.7 344,30.6 507.5,148.7 					"/>
				</g>
				<g>
					<polygon class="st1" points="342.8,29.2 340.2,27.7 340.3,27.6 342.9,29.1 					"/>
				</g>
				<g>
					<polygon class="st1" points="354.4,38.5 342.5,29.8 342.5,29.7 354.4,38.4 					"/>
				</g>
				<g>
					<polygon class="st1" points="367.9,33.8 343.5,27.7 343.5,27.6 368,33.7 					"/>
				</g>
				<g>
					<polygon class="st1" points="506,147.8 342.5,29.7 342.6,29.6 506.1,147.7 					"/>
				</g>
				<g>
					
						<rect x="336.9" y="-27.9" transform="matrix(0.549 -0.8358 0.8358 0.549 143.2561 286.3413)" class="st1" width="0.1" height="76.5"/>
				</g>
				<g>
					<polygon class="st1" points="548.6,196.9 510.9,173.2 510.9,173.3 548.6,197 					"/>
				</g>
				<g>
					<polygon class="st1" points="506.8,164.2 506.7,164.2 508.9,150.4 509,150.4 					"/>
				</g>
				<g>
					<polygon class="st1" points="548.6,282.7 530.7,292.1 530.8,292.2 548.6,282.9 					"/>
				</g>
				<g>
					<polygon class="st1" points="548.6,282.7 532.2,291.3 532.3,291.4 548.6,282.9 					"/>
				</g>
				<g>
					<polygon class="st1" points="76.5,322.3 38.8,311.3 38.7,311.4 76.1,322.3 					"/>
				</g>
				<g>
					<polygon class="st1" points="-20.6,295.8 -20.6,295.9 38.4,322.3 38.7,322.3 					"/>
				</g>
				<g>
					<polygon class="st1" points="56.7,322.3 36.5,312.5 36.4,312.6 56.4,322.3 					"/>
				</g>
				<g>
					<polygon class="st1" points="-20.6,292 -20.6,292.2 19.1,305.4 19.2,305.2 					"/>
				</g>
				<g>
					<polygon class="st1" points="-20.6,294.1 -20.6,294.2 19,305.7 19.1,305.5 					"/>
				</g>
				<g>
					<polygon class="st1" points="-20.6,290.1 -20.6,290.2 19.2,305.1 19.3,305 					"/>
				</g>
				<g>
					<polygon class="st1" points="-20.6,291.5 -20.6,291.6 19.2,305.3 19.2,305.2 					"/>
				</g>
				<g>
					<polygon class="st1" points="-20.6,290.8 -20.6,291 19.2,305.2 19.2,305.1 					"/>
				</g>
				<g>
					<polygon class="st1" points="-20.6,290.4 -20.6,290.6 19.2,305.1 19.3,305 					"/>
				</g>
				<g>
					<polygon class="st1" points="68.2,322.3 35.3,310.8 35.3,310.9 67.8,322.3 					"/>
				</g>
				<g>
					<polygon class="st1" points="-20.6,291.2 -20.6,291.3 19.2,305.2 19.2,305.1 					"/>
				</g>
				<g>
					<polygon class="st1" points="-20.6,291.6 -20.6,291.8 19.2,305.3 19.2,305.2 					"/>
				</g>
				<g>
					<polygon class="st1" points="-20.6,295.8 -20.6,295.9 38.4,322.3 38.7,322.3 					"/>
				</g>
				<g>
					<polygon class="st1" points="-20.6,288.7 -20.6,288.8 19.3,304.9 19.3,304.8 					"/>
				</g>
				<g>
					<polygon class="st1" points="-20.6,290.5 -20.6,290.6 19.2,305.1 19.3,305 					"/>
				</g>
				<g>
					<polygon class="st1" points="69.1,322.3 35.4,310.7 35.3,310.8 68.7,322.3 					"/>
				</g>
				<g>
					<polygon class="st1" points="-20.6,289 -20.6,289.1 19.3,304.9 19.3,304.8 					"/>
				</g>
				<g>
					<polygon class="st1" points="-20.6,295.1 -20.6,295.2 19,305.8 19,305.7 					"/>
				</g>
				<g>
					<polygon class="st1" points="-20.6,291.2 -20.6,291.4 19.2,305.3 19.2,305.1 					"/>
				</g>
				<g>
					<polygon class="st1" points="76.5,322.3 32.2,309.3 32.2,309.5 76.1,322.3 					"/>
				</g>
				<g>
					<polygon class="st1" points="56.7,322.3 31.9,310.3 31.8,310.4 56.4,322.3 					"/>
				</g>
				<g>
					<polygon class="st1" points="-20.6,292.1 -20.6,292.2 20.8,305.9 20.8,305.8 					"/>
				</g>
				<g>
					<polygon class="st1" points="-20.6,292 -20.6,292.2 20.8,305.9 20.8,305.8 					"/>
				</g>
				<g>
					<polygon class="st1" points="-20.6,294.1 -20.6,294.2 20.7,306.1 20.7,306 					"/>
				</g>
				<g>
					<polygon class="st1" points="-20.6,290.1 -20.6,290.2 20.8,305.7 20.9,305.6 					"/>
				</g>
				<g>
					<polygon class="st1" points="-20.6,291.5 -20.6,291.6 20.8,305.8 20.8,305.7 					"/>
				</g>
				<g>
					<polygon class="st1" points="-20.6,290.8 -20.6,291 20.8,305.8 20.8,305.7 					"/>
				</g>
				<g>
					<polygon class="st1" points="-20.6,290.4 -20.6,290.6 20.8,305.7 20.9,305.6 					"/>
				</g>
				<g>
					<polygon class="st1" points="68.2,322.3 32.1,309.6 32.1,309.8 67.8,322.3 					"/>
				</g>
				<g>
					<polygon class="st1" points="-20.6,291.2 -20.6,291.3 20.8,305.8 20.8,305.7 					"/>
				</g>
				<g>
					<polygon class="st1" points="-20.6,291.6 -20.6,291.8 20.8,305.9 20.8,305.7 					"/>
				</g>
				<g>
					<polygon class="st1" points="-20.6,288.7 -20.6,288.8 20.9,305.5 20.9,305.4 					"/>
				</g>
				<g>
					<polygon class="st1" points="-20.6,290.5 -20.6,290.6 20.8,305.7 20.9,305.6 					"/>
				</g>
				<g>
					<polygon class="st1" points="69.1,322.3 32.1,309.6 32.1,309.7 68.7,322.3 					"/>
				</g>
				<g>
					<polygon class="st1" points="-20.6,289 -20.6,289.1 20.9,305.6 20.9,305.5 					"/>
				</g>
				<g>
					<polygon class="st1" points="-20.6,295.1 -20.6,295.2 20.7,306.2 20.7,306.1 					"/>
				</g>
				<g>
					<polygon class="st1" points="-20.6,296.2 -20.6,296.3 20.6,306.4 20.7,306.2 					"/>
				</g>
				<g>
					<polygon class="st1" points="-20.6,296.2 -20.6,296.3 19,306 19,305.8 					"/>
				</g>
				<g>
					<polygon class="st1" points="417.3,322.3 379.1,313.5 379,313.7 416.8,322.3 					"/>
				</g>
				<g>
					<polygon class="st1" points="366.9,322.3 368.3,317.3 368.2,317.2 366.8,322.3 					"/>
				</g>
				<g>
					<polygon class="st1" points="417.3,322.3 375.7,312.8 375.7,312.9 416.8,322.3 					"/>
				</g>
				<g>
					<polygon class="st1" points="370.6,322.3 370.3,317.5 370.2,317.5 370.5,322.3 					"/>
				</g>
				<g>
					<polygon class="st1" points="370.6,322.3 370.4,319.2 370.3,319.2 370.5,322.3 					"/>
				</g>
				<g>
					
						<rect x="197.9" y="142.1" transform="matrix(0.4729 -0.8811 0.8811 0.4729 -35.6881 258.2222)" class="st1" width="0.1" height="33.7"/>
				</g>
				<g>
					<polygon class="st1" points="252,186.3 188,151.5 188,151.4 252.1,186.2 					"/>
				</g>
				<g>
					<polygon class="st1" points="548.6,131.9 524.5,119.2 524.4,119.3 548.6,132 					"/>
				</g>
				<g>
					<polygon class="st1" points="548.6,131.9 526,120 526,120.1 548.6,132 					"/>
				</g>
				<g>
					
						<rect x="373.8" y="309.7" transform="matrix(0.4735 -0.8808 0.8808 0.4735 -75.6324 492.9374)" class="st1" width="1.5" height="0.1"/>
				</g>
				<g>
					<polygon class="st1" points="418.7,322.3 382.5,307.3 382.5,307.4 418.4,322.3 					"/>
				</g>
				<g>
					<polygon class="st1" points="380.7,298.4 380.6,298.3 381.2,297 381.4,297.1 					"/>
				</g>
				<g>
					<polygon class="st1" points="424.4,322.3 384,304.6 383.9,304.8 424,322.3 					"/>
				</g>
				<g>
					<polygon class="st1" points="418.7,322.3 384.1,308 384.1,308.1 418.4,322.3 					"/>
				</g>
				<g>
					<polygon class="st1" points="424.4,322.3 385.5,305.3 385.5,305.4 424,322.3 					"/>
				</g>
				<g>
					<polygon class="st1" points="141.3,322.3 88.2,280.3 88.1,280.4 141.1,322.3 					"/>
				</g>
				<g>
					<polygon class="st1" points="75.1,322.3 -19.8,165.8 -19.9,165.9 74.9,322.3 					"/>
				</g>
				<g>
					<polygon class="st1" points="78.4,268.9 78.3,268.9 61,238.3 61.1,238.2 					"/>
				</g>
				<g>
					<polygon class="st1" points="-20.6,78.6 -20.6,78.9 55.4,227.8 55.5,227.7 					"/>
				</g>
				<g>
					<polygon class="st1" points="75.1,322.3 -18.9,167.3 -19,167.3 74.9,322.3 					"/>
				</g>
				<g>
					<polygon class="st1" points="-20.6,187.4 -20.6,187.6 76.3,270.7 76.3,270.6 					"/>
				</g>
				<g>
					<polygon class="st1" points="172.5,322.3 89,279.1 88.9,279.2 172.2,322.3 					"/>
				</g>
				<g>
					<polygon class="st1" points="141.3,322.3 86.9,279.3 86.8,279.4 141.1,322.3 					"/>
				</g>
				<g>
					<polygon class="st1" points="79.3,270.4 79.1,270.4 61.8,239.8 62,239.7 					"/>
				</g>
				<g>
					<polygon class="st1" points="-20.6,187.4 -20.6,187.6 77.6,271.8 77.6,271.7 					"/>
				</g>
				<g>
					<polygon class="st1" points="172.5,322.3 87.5,278.3 87.4,278.4 172.2,322.3 					"/>
				</g>
				<g>
					<polygon class="st1" points="-20.6,78.6 -20.6,78.9 54.6,226.2 54.7,226.2 					"/>
				</g>
				<g>
					<polygon class="st1" points="157.5,322.3 63.9,238.1 63.8,238.2 157.3,322.3 					"/>
				</g>
				<g>
					<polygon class="st1" points="157.5,322.3 62.6,237 62.5,237.1 157.3,322.3 					"/>
				</g>
				<g>
					<polygon class="st1" points="132.3,322.3 62,237.6 61.9,237.7 132.1,322.3 					"/>
				</g>
				<g>
					<polygon class="st1" points="132.3,322.3 63.1,238.9 63,239 132.1,322.3 					"/>
				</g>
				<g>
					<polygon class="st1" points="296.9,322.3 314.2,263.1 314.1,263.1 296.7,322.3 					"/>
				</g>
				<g>
					<polygon class="st1" points="296.9,322.3 314.7,261.5 314.5,261.5 296.7,322.3 					"/>
				</g>
				<g>
					<polygon class="st1" points="548.6,152.3 541.5,156 541.6,156.2 548.6,152.5 					"/>
				</g>
				<g>
					<polygon class="st1" points="548.6,152 543,155.1 543,155.2 548.6,152.1 					"/>
				</g>
				<g>
					<polygon class="st1" points="548.6,153 544.7,154.8 544.8,154.9 548.6,153.1 					"/>
				</g>
				<g>
					<polygon class="st1" points="548.6,136.8 517.8,149.9 517.8,150 548.6,136.9 					"/>
				</g>
				<g>
					<polygon class="st1" points="548.6,290.7 544.3,287.1 544.2,287.2 548.6,290.9 					"/>
				</g>
				<g>
					<polygon class="st1" points="548.6,285.4 545.5,284.7 545.5,284.8 548.6,285.5 					"/>
				</g>
				<g>
					<polygon class="st1" points="548.6,284.8 545.6,284.3 545.6,284.4 548.6,284.9 					"/>
				</g>
				<g>
					<polygon class="st1" points="548.6,287.8 543.5,283.2 543.4,283.3 548.6,288 					"/>
				</g>
				<g>
					<polygon class="st1" points="548.6,281.9 544.7,280.8 544.7,281 548.6,282 					"/>
				</g>
				<g>
					<polygon class="st1" points="548.6,281.3 544.8,280.5 544.8,280.6 548.6,281.5 					"/>
				</g>
				<g>
					<polygon class="st1" points="548.6,290.7 545.6,288.2 545.5,288.3 548.6,290.9 					"/>
				</g>
				<g>
					<polygon class="st1" points="548.6,287.8 544.7,284.4 544.6,284.5 548.6,288 					"/>
				</g>
				<g>
					<polygon class="st1" points="548.6,292.9 541.6,287.5 541.6,287.6 548.6,293.1 					"/>
				</g>
				<g>
					<polygon class="st1" points="548.6,292.9 540.3,286.4 540.2,286.5 548.6,293.1 					"/>
				</g>
				<g>
					<polygon class="st1" points="548.6,285.7 541.4,284 541.4,284.2 548.6,285.8 					"/>
				</g>
				<g>
					<polygon class="st1" points="548.6,284.8 541.5,283.7 541.4,283.8 548.6,284.9 					"/>
				</g>
				<g>
					<polygon class="st1" points="548.6,270.6 538,266.3 538,266.4 548.6,270.7 					"/>
				</g>
				<g>
					<polygon class="st1" points="548.6,285.7 543.1,284.4 543,284.5 548.6,285.8 					"/>
				</g>
				<g>
					<polygon class="st1" points="548.6,270.6 539.6,266.9 539.5,267 548.6,270.7 					"/>
				</g>
				<g>
					<polygon class="st1" points="548.6,296.2 535.7,289.1 535.6,289.2 548.6,296.3 					"/>
				</g>
				<g>
					<polygon class="st1" points="548.6,267.4 523.8,256.9 523.7,257 548.6,267.5 					"/>
				</g>
				<g>
					<polygon class="st1" points="548.6,284.8 543.1,283.9 543.1,284.1 548.6,284.9 					"/>
				</g>
				<g>
					<polygon class="st1" points="548.6,267.4 525.3,257.6 525.3,257.7 548.6,267.5 					"/>
				</g>
				<g>
					<polygon class="st1" points="548.6,268.8 525.2,259.4 525.1,259.5 548.6,269 					"/>
				</g>
				<g>
					<polygon class="st1" points="548.6,287.7 536.6,286.3 536.6,286.4 548.6,287.8 					"/>
				</g>
				<g>
					<polygon class="st1" points="548.6,268.8 523.6,258.8 523.6,258.9 548.6,269 					"/>
				</g>
				<g>
					<polygon class="st1" points="548.6,296.2 534.2,288.2 534.1,288.4 548.6,296.3 					"/>
				</g>
				<g>
					<polygon class="st1" points="548.6,287.7 534.9,286.1 534.9,286.2 548.6,287.8 					"/>
				</g>
				<g>
					<polygon class="st1" points="548.6,272.2 544.9,270.8 544.8,270.9 548.6,272.4 					"/>
				</g>
				<g>
					<polygon class="st1" points="548.6,271.9 544.9,270.6 544.9,270.7 548.6,272.1 					"/>
				</g>
				<g>
					<polygon class="st1" points="430.1,322.3 328.7,279.3 328.6,279.4 429.7,322.3 					"/>
				</g>
				<g>
					<polygon class="st1" points="314.5,273.3 239,240.1 239,240 314.5,273.2 					"/>
				</g>
				<g>
					<polygon class="st1" points="430.1,322.3 327.1,278.6 327,278.7 429.7,322.3 					"/>
				</g>
				<g>
					<polygon class="st1" points="316.1,274 240.5,240.8 240.6,240.7 316.1,273.9 					"/>
				</g>
				<g>
					
						<rect x="541.7" y="167.9" transform="matrix(0.9898 -0.1425 0.1425 0.9898 -22.5852 79.241)" class="st1" width="0.1" height="58.8"/>
				</g>
				<g>
					<polygon class="st1" points="548.6,283.3 540.9,322.3 541.1,322.3 548.6,284 					"/>
				</g>
				<g>
					<polygon class="st1" points="548.6,126.9 453.5,93.2 453.4,93.3 548.6,127.1 					"/>
				</g>
				<g>
					<polygon class="st1" points="548.6,152.3 543,155.2 543.1,155.4 548.6,152.5 					"/>
				</g>
				<g>
					<polygon class="st1" points="548.6,283.3 540.9,322.3 541.1,322.3 548.6,284 					"/>
				</g>
				<g>
					<polygon class="st1" points="548.6,126.9 455.1,93.7 455,93.8 548.6,127.1 					"/>
				</g>
				<g>
					<polygon class="st1" points="548.6,122.7 382.3,39 382.2,39.2 548.6,122.8 					"/>
				</g>
				<g>
					<polygon class="st1" points="309.2,252.8 133,178.4 133,178.3 309.2,252.7 					"/>
				</g>
				<g>
					
						<rect x="123.9" y="172.5" transform="matrix(0.3428 -0.9394 0.9394 0.3428 -82.6462 231.318)" class="st1" width="0.1" height="4.5"/>
				</g>
				<g>
					<polygon class="st1" points="-20.6,108.8 -20.6,108.9 309.2,252.7 309.2,252.6 					"/>
				</g>
				<g>
					<polygon class="st1" points="157.5,173.6 157.4,173.5 158.1,172.4 158.2,172.4 					"/>
				</g>
				<g>
					<polygon class="st1" points="71.2,146.1 69,145.2 69.1,145.1 71.3,146 					"/>
				</g>
				<g>
					
						<rect x="77.3" y="142.2" transform="matrix(0.4 -0.9165 0.9165 0.4 -90.0572 160.2203)" class="st1" width="0.1" height="13.4"/>
				</g>
				<g>
					<polygon class="st1" points="75.2,147.7 71.2,146.1 71.3,146 75.3,147.6 					"/>
				</g>
				<g>
					
						<rect x="190.2" y="69.1" transform="matrix(0.4079 -0.913 0.913 0.4079 -69.4644 291.7631)" class="st1" width="0.1" height="260.7"/>
				</g>
				<g>
					
						<rect x="62.6" y="139.8" transform="matrix(0.3976 -0.9176 0.9176 0.3976 -92.9919 143.3813)" class="st1" width="0.1" height="5.4"/>
				</g>
				<g>
					
						<rect x="82.4" y="139.3" transform="matrix(0.4365 -0.8997 0.8997 0.4365 -90.2352 159.8184)" class="st1" width="0.1" height="25.3"/>
				</g>
				<g>
					<polygon class="st1" points="107.5,163.6 71.1,146.4 71.2,146.3 107.6,163.5 					"/>
				</g>
				<g>
					<polygon class="st1" points="309.2,252.8 145.4,183.5 145.4,183.4 309.2,252.7 					"/>
				</g>
				<g>
					<polygon class="st1" points="134.6,178.4 107.5,164.4 107.6,164.3 134.6,178.3 					"/>
				</g>
				<g>
					
						<rect x="228.6" y="121.6" transform="matrix(0.4481 -0.894 0.894 0.4481 -63.178 321.3932)" class="st1" width="0.1" height="180.5"/>
				</g>
				<g>
					
						<rect x="134.6" y="165.5" transform="matrix(0.3022 -0.9532 0.9532 0.3022 -64.4632 244.3551)" class="st1" width="0.1" height="1.4"/>
				</g>
				<g>
					<polygon class="st1" points="133.3,167.7 133.2,167.7 133.3,167.5 133.4,167.6 					"/>
				</g>
				<g>
					<polygon class="st1" points="72.8,146.8 70.6,145.9 70.7,145.8 72.9,146.7 					"/>
				</g>
				<g>
					<polygon class="st1" points="75.2,147.8 70.6,146 70.6,145.8 75.3,147.7 					"/>
				</g>
				<g>
					<polygon class="st1" points="309.2,252.7 81.6,150.6 81.6,150.5 309.3,252.5 					"/>
				</g>
				<g>
					
						<rect x="80.5" y="148.5" transform="matrix(0.3432 -0.9393 0.9393 0.3432 -87.6643 174.0442)" class="st1" width="0.1" height="2.5"/>
				</g>
				<g>
					<polygon class="st1" points="84,138.6 24.9,107.6 25,107.5 84.1,138.5 					"/>
				</g>
				<g>
					
						<rect x="234.1" y="134.7" transform="matrix(0.4215 -0.9068 0.9068 0.4215 -61.856 338.1951)" class="st1" width="0.1" height="165.8"/>
				</g>
				<g>
					<polygon class="st1" points="309.4,252.3 96.2,144.9 96.2,144.8 309.4,252.2 					"/>
				</g>
				<g>
					
						<rect x="78.8" y="142.9" transform="matrix(0.4 -0.9165 0.9165 0.4 -89.7439 162.0665)" class="st1" width="0.1" height="13.4"/>
				</g>
				<g>
					<polygon class="st1" points="309.2,252.7 96,157.2 96,157 309.3,252.6 					"/>
				</g>
				<g>
					
						<rect x="82.1" y="147.8" transform="matrix(0.4009 -0.9161 0.9161 0.4009 -89.1006 165.7181)" class="st1" width="0.1" height="6.3"/>
				</g>
				<g>
					<polygon class="st1" points="309.3,252.5 145,174.7 145.1,174.6 309.4,252.4 					"/>
				</g>
				<g>
					<polygon class="st1" points="76.8,148.3 72.8,146.7 72.9,146.6 76.9,148.2 					"/>
				</g>
				<g>
					<polygon class="st1" points="87.9,152.7 83.3,150.9 83.3,150.8 88,152.6 					"/>
				</g>
				<g>
					<polygon class="st1" points="309.2,252.7 87.8,153 87.9,152.9 309.3,252.5 					"/>
				</g>
				<g>
					<polygon class="st1" points="79.4,149.4 76.8,148.4 76.8,148.3 79.4,149.3 					"/>
				</g>
				<g>
					<polygon class="st1" points="309.2,252.7 147.6,179.8 147.7,179.7 309.3,252.5 					"/>
				</g>
				<g>
					
						<rect x="122.2" y="153.9" transform="matrix(0.3695 -0.9292 0.9292 0.3695 -80.2963 220.3932)" class="st1" width="0.1" height="30.9"/>
				</g>
				<g>
					<polygon class="st1" points="-20.6,113 -20.6,113.1 309.2,252.8 309.2,252.7 					"/>
				</g>
				<g>
					<polygon class="st1" points="310.7,253.5 134.6,179.1 134.6,178.9 310.8,253.4 					"/>
				</g>
				<g>
					<polygon class="st1" points="-20.6,108.8 -20.6,108.9 310.8,253.4 310.8,253.3 					"/>
				</g>
				<g>
					
						<rect x="236.4" y="134.3" transform="matrix(0.4365 -0.8997 0.8997 0.4365 -62.0212 335.0188)" class="st1" width="0.1" height="165.5"/>
				</g>
				<g>
					
						<rect x="191.7" y="69.8" transform="matrix(0.4079 -0.913 0.913 0.4079 -69.1769 293.5999)" class="st1" width="0.1" height="260.7"/>
				</g>
				<g>
					<polygon class="st1" points="310.7,253.5 147,184.1 147,184 310.8,253.4 					"/>
				</g>
				<g>
					<polygon class="st1" points="310.9,253.2 135.2,167.6 135.3,167.5 310.9,253.1 					"/>
				</g>
				<g>
					<polygon class="st1" points="310.8,253.4 83.2,151.3 83.2,151.2 310.8,253.2 					"/>
				</g>
				<g>
					<polygon class="st1" points="310.8,253.4 97.5,157.8 97.6,157.7 310.8,253.3 					"/>
				</g>
				<g>
					<polygon class="st1" points="310.8,253.4 89.4,153.7 89.4,153.6 310.8,253.2 					"/>
				</g>
				<g>
					<polygon class="st1" points="310.8,253.4 149.2,180.5 149.2,180.4 310.8,253.2 					"/>
				</g>
				<g>
					<polygon class="st1" points="-20.6,113 -20.6,113.1 310.7,253.5 310.8,253.4 					"/>
				</g>
				<g>
					<polygon class="st1" points="310.8,253.4 79.2,149.8 79.3,149.7 310.8,253.3 					"/>
				</g>
				<g>
					<polygon class="st1" points="310.8,253.4 107.8,164 107.8,163.9 310.8,253.3 					"/>
				</g>
				<g>
					
						<rect x="203.5" y="83.6" transform="matrix(0.4283 -0.9036 0.9036 0.4283 -66.4583 299.5872)" class="st1" width="0.1" height="237.5"/>
				</g>
				<g>
					<polygon class="st1" points="310.8,253.3 177.8,193.2 177.9,193.1 310.8,253.2 					"/>
				</g>
				<g>
					<polygon class="st1" points="310.8,253.4 167.1,191.6 167.1,191.5 310.8,253.3 					"/>
				</g>
				<g>
					
						<rect x="243.4" y="150.8" transform="matrix(0.3979 -0.9174 0.9174 0.3979 -59.0696 358.3661)" class="st1" width="0.1" height="146.7"/>
				</g>
				<g>
					<polygon class="st1" points="310.8,253.4 121.5,170 121.6,169.9 310.8,253.3 					"/>
				</g>
				<g>
					<polygon class="st1" points="310.7,253.7 103.1,173.4 103.2,173.3 310.7,253.5 					"/>
				</g>
				<g>
					<polygon class="st1" points="310.8,253.3 168.3,187.9 168.4,187.8 310.9,253.2 					"/>
				</g>
				<g>
					<polygon class="st1" points="310.7,253.5 126,175.9 126,175.8 310.8,253.4 					"/>
				</g>
				<g>
					
						<rect x="75.2" y="145.3" transform="matrix(0.3976 -0.9176 0.9176 0.3976 -90.4233 158.1654)" class="st1" width="0.1" height="5.4"/>
				</g>
				<g>
					
						<rect x="67.7" y="143.8" transform="matrix(0.3432 -0.9393 0.9393 0.3432 -91.69 158.9019)" class="st1" width="0.1" height="2.5"/>
				</g>
				<g>
					
						<rect x="80.5" y="147.1" transform="matrix(0.4009 -0.9161 0.9161 0.4009 -89.4101 163.8815)" class="st1" width="0.1" height="6.3"/>
				</g>
				<g>
					<polygon class="st1" points="309.2,252.7 77.7,149.1 77.7,149 309.3,252.6 					"/>
				</g>
				<g>
					<polygon class="st1" points="133.1,177.6 106,163.6 106.1,163.5 133.1,177.5 					"/>
				</g>
				<g>
					
						<rect x="120.6" y="153.3" transform="matrix(0.3695 -0.9292 0.9292 0.3695 -80.7097 218.5234)" class="st1" width="0.1" height="30.9"/>
				</g>
				<g>
					
						<rect x="207.7" y="97" transform="matrix(0.4031 -0.9151 0.9151 0.4031 -66.3063 314.2153)" class="st1" width="0.1" height="221.8"/>
				</g>
				<g>
					<polygon class="st1" points="107.5,163.8 106.2,163.3 106.3,163.1 107.5,163.7 					"/>
				</g>
				<g>
					<polygon class="st1" points="112.5,168.7 105.7,164.2 105.8,164.1 112.5,168.6 					"/>
				</g>
				<g>
					
						<rect x="55.1" y="92.7" transform="matrix(0.5292 -0.8485 0.8485 0.5292 -81.6808 106.5648)" class="st1" width="0.1" height="68.4"/>
				</g>
				<g>
					<polygon class="st1" points="309.2,252.6 176.3,192.5 176.3,192.4 309.3,252.5 					"/>
				</g>
				<g>
					
						<rect x="166.2" y="188" transform="matrix(0.1376 -0.9905 0.9905 0.1376 -44.1485 327.9771)" class="st1" width="0.1" height="2.7"/>
				</g>
				<g>
					<polygon class="st1" points="309.2,252.8 165.5,190.9 165.5,190.8 309.2,252.7 					"/>
				</g>
				<g>
					<polygon class="st1" points="165.9,189.4 163.2,189 163.2,188.9 165.9,189.2 					"/>
				</g>
				<g>
					
						<rect x="241.9" y="150.2" transform="matrix(0.3979 -0.9174 0.9174 0.3979 -59.3895 356.5191)" class="st1" width="0.1" height="146.7"/>
				</g>
				<g>
					<polygon class="st1" points="166.9,189.9 164.7,187.9 164.8,187.8 167,189.8 					"/>
				</g>
				<g>
					<polygon class="st1" points="309.2,252.7 120,169.3 120,169.2 309.3,252.6 					"/>
				</g>
				<g>
					<polygon class="st1" points="109,164.5 107.8,163.9 107.8,163.8 109.1,164.4 					"/>
				</g>
				<g>
					
						<rect x="56.8" y="120.2" transform="matrix(0.3759 -0.9267 0.9267 0.3759 -107.8615 149.2447)" class="st1" width="0.1" height="69"/>
				</g>
				<g>
					
						<rect x="110.8" y="164" transform="matrix(0.1702 -0.9854 0.9854 0.1702 -78.5888 252.9484)" class="st1" width="0.1" height="18.3"/>
				</g>
				<g>
					<polygon class="st1" points="309.1,253 101.5,172.8 101.6,172.7 309.1,252.9 					"/>
				</g>
				<g>
					<polygon class="st1" points="90.4,168.4 26.5,142.4 26.5,142.3 90.4,168.3 					"/>
				</g>
				<g>
					<polygon class="st1" points="309.3,252.6 166.7,187.2 166.8,187.1 309.3,252.5 					"/>
				</g>
				<g>
					
						<rect x="161.7" y="180" transform="matrix(0.3267 -0.9451 0.9451 0.3267 -60.5249 275.2362)" class="st1" width="2.3" height="0.1"/>
				</g>
				<g>
					<polygon class="st1" points="165.7,188.8 163.5,186.7 163.6,186.7 165.8,188.7 					"/>
				</g>
				<g>
					
						<rect x="122.3" y="171.9" transform="matrix(0.3428 -0.9394 0.9394 0.3428 -83.1478 229.4362)" class="st1" width="0.1" height="4.5"/>
				</g>
				<g>
					<polygon class="st1" points="309.2,252.8 124.4,175.2 124.4,175.1 309.2,252.7 					"/>
				</g>
				<g>
					<polygon class="st1" points="113.9,169.6 107.1,165.1 107.2,165 114,169.5 					"/>
				</g>
				<g>
					<polygon class="st1" points="548.6,125.4 523.5,116.2 523.4,116.3 548.6,125.5 					"/>
				</g>
				<g>
					<polygon class="st1" points="548.6,117.3 512.5,97.7 512.5,97.8 548.6,117.4 					"/>
				</g>
				<g>
					<polygon class="st1" points="548.6,123 516.7,109.7 516.6,109.8 548.6,123.1 					"/>
				</g>
				<g>
					<polygon class="st1" points="548.6,128.3 528.2,122.2 528.2,122.3 548.6,128.5 					"/>
				</g>
				<g>
					<polygon class="st1" points="548.6,132 531.7,128.3 531.7,128.4 548.6,132.1 					"/>
				</g>
				<g>
					<polygon class="st1" points="548.6,125.4 521.9,115.6 521.8,115.7 548.6,125.5 					"/>
				</g>
				<g>
					<polygon class="st1" points="548.6,117.3 511,96.8 511,96.9 548.6,117.4 					"/>
				</g>
				<g>
					<polygon class="st1" points="548.6,123 515.1,109 515.1,109.1 548.6,123.1 					"/>
				</g>
				<g>
					<polygon class="st1" points="548.6,128.3 526.6,121.7 526.6,121.8 548.6,128.5 					"/>
				</g>
				<g>
					<polygon class="st1" points="548.6,132 530.1,127.9 530,128 548.6,132.1 					"/>
				</g>
				<g>
					<polygon class="st1" points="333.6,-13.3 512.8,112.1 512.9,112 333.8,-13.3 					"/>
				</g>
				<g>
					<polygon class="st1" points="335.9,-13.3 512.9,112.1 512.9,112 336.1,-13.3 					"/>
				</g>
				<g>
					<polygon class="st1" points="333.6,-13.3 514.2,113.1 514.3,113 333.8,-13.3 					"/>
				</g>
				<g>
					<polygon class="st1" points="334.4,-13.3 514.3,113.1 514.3,113 334.6,-13.3 					"/>
				</g>
				<g>
					<polygon class="st1" points="548.6,182.3 539.9,165.7 539.8,165.7 548.6,182.6 					"/>
				</g>
				<g>
					<polygon class="st1" points="548.6,182.3 539.1,164.1 539,164.2 548.6,182.6 					"/>
				</g>
				<g>
					
						<rect x="492.7" y="76.7" transform="matrix(0.6076 -0.7942 0.7942 0.6076 93.6057 440.5954)" class="st1" width="0.1" height="97.7"/>
				</g>
				<g>
					
						<rect x="491.3" y="75.7" transform="matrix(0.6076 -0.7942 0.7942 0.6076 93.8965 439.1089)" class="st1" width="0.1" height="97.7"/>
				</g>
				<g>
					<path class="st2" d="M297.7,202.8c0.3-0.3,0.8-0.3,1.1,0c0.3,0.3,0.3,0.8,0,1.1c-0.3,0.3-0.8,0.3-1.1,0
						C297.4,203.6,297.4,203.1,297.7,202.8z"/>
					<path class="st2" d="M401.2,251.6c0.1-0.1,0.2-0.1,0.2,0c0.1,0.1,0.1,0.2,0,0.2c-0.1,0.1-0.2,0.1-0.2,0
						C401.1,251.8,401.1,251.6,401.2,251.6z"/>
					<path class="st2" d="M533.9,194.4c0.5-0.5,1.4-0.5,2,0c0.5,0.5,0.5,1.4,0,2s-1.4,0.5-2,0S533.3,194.9,533.9,194.4z"/>
					<path class="st2" d="M544.4,195.9c0.2-0.2,0.6-0.2,0.8,0c0.2,0.2,0.2,0.6,0,0.8c-0.2,0.2-0.6,0.2-0.8,0
						C544.2,196.5,544.2,196.1,544.4,195.9z"/>
					<circle class="st2" cx="505.8" cy="170.1" r="0.5"/>
					<path class="st2" d="M509.4,142.1c0.4-0.4,1.1-0.4,1.6,0c0.4,0.4,0.4,1.1,0,1.6c-0.4,0.4-1.1,0.4-1.6,0
						C509,143.2,509,142.5,509.4,142.1z"/>
					<path class="st2" d="M315.7,255.2c0.3-0.3,0.8-0.3,1.1,0c0.3,0.3,0.3,0.8,0,1.1c-0.3,0.3-0.8,0.3-1.1,0
						C315.4,256,315.4,255.5,315.7,255.2z"/>
					<path class="st2" d="M511.6,151.6c0.4-0.4,1.1-0.4,1.5,0c0.4,0.4,0.4,1.1,0,1.5c-0.4,0.4-1.1,0.4-1.5,0
						C511.1,152.6,511.1,152,511.6,151.6z"/>
					<circle class="st2" cx="536.3" cy="158.9" r="0.4"/>
					<path class="st2" d="M546.2,231.7c0.3-0.3,0.9-0.3,1.2,0c0.3,0.3,0.3,0.9,0,1.2c-0.3,0.3-0.9,0.3-1.2,0
						C545.9,232.5,545.9,232,546.2,231.7z"/>
					<circle class="st2" cx="209.1" cy="166.9" r="0.8"/>
					<path class="st2" d="M258.6,189.7c0.1-0.1,0.3-0.1,0.4,0c0.1,0.1,0.1,0.3,0,0.4c-0.1,0.1-0.3,0.1-0.4,0
						C258.5,190,258.5,189.8,258.6,189.7z"/>
					<path class="st2" d="M183.6,153.4c0.4-0.4,1-0.4,1.3,0c0.4,0.4,0.4,1,0,1.3c-0.4,0.4-1,0.4-1.3,0
						C183.3,154.4,183.3,153.8,183.6,153.4z"/>
					<circle class="st2" cx="185.5" cy="157.3" r="0.2"/>
					<path class="st2" d="M218.9,169.9c0.4-0.4,1-0.4,1.4,0s0.4,1,0,1.4c-0.4,0.4-1,0.4-1.4,0C218.5,170.8,218.5,170.2,218.9,169.9z
						"/>
					<circle class="st2" cx="236" cy="178.1" r="1.4"/>
					<path class="st2" d="M487.7,255.3c0.3-0.3,0.8-0.3,1.1,0c0.3,0.3,0.3,0.8,0,1.1c-0.3,0.3-0.8,0.3-1.1,0
						C487.4,256.1,487.4,255.6,487.7,255.3z"/>
					<path class="st2" d="M454.9,237.7c0.4-0.4,1-0.4,1.4,0s0.4,1,0,1.4c-0.4,0.4-1,0.4-1.4,0C454.5,238.8,454.5,238.1,454.9,237.7z
						"/>
					<path class="st2" d="M368,200.4c0.2-0.2,0.5-0.2,0.6,0c0.2,0.2,0.2,0.5,0,0.6c-0.2,0.2-0.5,0.2-0.6,0
						C367.8,200.8,367.8,200.5,368,200.4z"/>
					<circle class="st2" cx="177.9" cy="148.2" r="0.9"/>
					<circle class="st2" cx="182.8" cy="148.6" r="0.4"/>
					<path class="st2" d="M26.3,307.5c0.1-0.1,0.3-0.1,0.4,0c0.1,0.1,0.1,0.3,0,0.4c-0.1,0.1-0.3,0.1-0.4,0
						C26.2,307.8,26.2,307.6,26.3,307.5z"/>
					<path class="st2" d="M246.9,196.3c0.4-0.4,1-0.4,1.4,0c0.4,0.4,0.4,1,0,1.4c-0.4,0.4-1,0.4-1.4,0
						C246.5,197.3,246.5,196.7,246.9,196.3z"/>
					<path class="st2" d="M247.8,203.5c0.2-0.2,0.4-0.2,0.6,0c0.2,0.2,0.2,0.4,0,0.6c-0.2,0.2-0.4,0.2-0.6,0
						S247.6,203.7,247.8,203.5z"/>
					<path class="st2" d="M412.4,306.6c0.2-0.2,0.6-0.2,0.8,0c0.2,0.2,0.2,0.6,0,0.8c-0.2,0.2-0.6,0.2-0.8,0
						C412.2,307.1,412.2,306.8,412.4,306.6z"/>
					<path class="st2" d="M299.7,276.9c0.1-0.1,0.3-0.1,0.4,0s0.1,0.3,0,0.4s-0.3,0.1-0.4,0S299.6,277,299.7,276.9z"/>
					<circle class="st2" cx="264" cy="263.4" r="0.6"/>
					<path class="st2" d="M369,310.6c0.5-0.5,1.3-0.5,1.8,0c0.5,0.5,0.5,1.3,0,1.8c-0.5,0.5-1.3,0.5-1.8,0S368.5,311.1,369,310.6z"
						/>
					<circle class="st2" cx="277.8" cy="270.2" r="1.3"/>
					<path class="st2" d="M278.1,263c0.5-0.5,1.3-0.5,1.8,0c0.5,0.5,0.5,1.3,0,1.8c-0.5,0.5-1.3,0.5-1.8,0
						C277.6,264.3,277.6,263.5,278.1,263z"/>
					<path class="st2" d="M276.7,268.9c0.3-0.3,0.7-0.3,1,0c0.3,0.3,0.3,0.7,0,1c-0.3,0.3-0.7,0.3-1,0
						C276.5,269.6,276.5,269.2,276.7,268.9z"/>
					<path class="st2" d="M246.3,11.7c0.4-0.4,1-0.4,1.3,0c0.4,0.4,0.4,1,0,1.3c-0.4,0.4-1,0.4-1.3,0
						C245.9,12.6,245.9,12.1,246.3,11.7z"/>
					<circle class="st2" cx="338.3" cy="83.5" r="0.4"/>
					<path class="st2" d="M490.4,74.6c0.4-0.4,0.9-0.4,1.3,0c0.4,0.4,0.4,0.9,0,1.3c-0.4,0.4-0.9,0.4-1.3,0
						C490,75.6,490,75,490.4,74.6z"/>
					<path class="st2" d="M346.6,31.1c0.2-0.2,0.5-0.2,0.7,0s0.2,0.5,0,0.7c-0.2,0.2-0.5,0.2-0.7,0
						C346.4,31.6,346.4,31.3,346.6,31.1z"/>
					<path class="st2" d="M375,35.3c0.2-0.2,0.6-0.2,0.8,0s0.2,0.6,0,0.8c-0.2,0.2-0.6,0.2-0.8,0C374.8,35.8,374.8,35.5,375,35.3z"
						/>
					<path class="st2" d="M336.8,25.3c0.5-0.5,1.3-0.5,1.8,0c0.5,0.5,0.5,1.3,0,1.8c-0.5,0.5-1.3,0.5-1.8,0
						C336.3,26.6,336.3,25.8,336.8,25.3z"/>
					<path class="st2" d="M425.2,78.5c0.2-0.2,0.5-0.2,0.7,0c0.2,0.2,0.2,0.5,0,0.7c-0.2,0.2-0.5,0.2-0.7,0
						C425,79.1,425,78.7,425.2,78.5z"/>
					<circle class="st2" cx="447.8" cy="91.2" r="1.3"/>
					<path class="st2" d="M360.1,42.5c0.3-0.3,0.7-0.3,1,0c0.3,0.3,0.3,0.7,0,1c-0.3,0.3-0.7,0.3-1,0
						C359.9,43.2,359.9,42.8,360.1,42.5z"/>
					<path class="st2" d="M476.5,126.9c0.5-0.5,1.4-0.5,2,0c0.5,0.5,0.5,1.4,0,2c-0.5,0.5-1.4,0.5-2,0
						C475.9,128.4,475.9,127.5,476.5,126.9z"/>
					<path class="st2" d="M361.1,58.7c0.5-0.5,1.4-0.5,1.9,0c0.5,0.5,0.5,1.4,0,1.9c-0.5,0.5-1.4,0.5-1.9,0
						C360.6,60.1,360.6,59.2,361.1,58.7z"/>
					<path class="st2" d="M346.6,52.9c0.3-0.3,0.9-0.3,1.2,0s0.3,0.9,0,1.2c-0.3,0.3-0.9,0.3-1.2,0
						C346.2,53.8,346.2,53.2,346.6,52.9z"/>
					<circle class="st2" cx="359.6" cy="63" r="1.3"/>
					<circle class="st2" cx="422.8" cy="64.6" r="0.9"/>
					<path class="st2" d="M524.8,294.2c0.4-0.4,1-0.4,1.4,0c0.4,0.4,0.4,1,0,1.4c-0.4,0.4-1,0.4-1.4,0
						C524.4,295.2,524.4,294.6,524.8,294.2z"/>
					<path class="st2" d="M376.6,304.8c0.2-0.2,0.5-0.2,0.7,0c0.2,0.2,0.2,0.5,0,0.7c-0.2,0.2-0.5,0.2-0.7,0
						C376.5,305.3,376.5,305,376.6,304.8z"/>
					<path class="st2" d="M377.8,301.6c0.4-0.4,1-0.4,1.3,0s0.4,1,0,1.3c-0.4,0.4-1,0.4-1.3,0C377.4,302.6,377.4,302,377.8,301.6z"
						/>
					<path class="st2" d="M81.8,275.2c0.2-0.2,0.6-0.2,0.8,0c0.2,0.2,0.2,0.6,0,0.8c-0.2,0.2-0.6,0.2-0.8,0
						C81.5,275.8,81.5,275.4,81.8,275.2z"/>
					<path class="st2" d="M58,232.9c0.1-0.1,0.2-0.1,0.3,0c0.1,0.1,0.1,0.2,0,0.3c-0.1,0.1-0.2,0.1-0.3,0
						C57.9,233.1,57.9,233,58,232.9z"/>
					<path class="st2" d="M539.2,282.9c0.2-0.2,0.6-0.2,0.9,0c0.2,0.2,0.2,0.6,0,0.9c-0.2,0.2-0.6,0.2-0.9,0
						C539,283.6,539,283.2,539.2,282.9z"/>
					<circle class="st2" cx="545.4" cy="267.6" r="1.3"/>
					<circle class="st2" cx="539" cy="279.3" r="1.1"/>
					<path class="st2" d="M535.1,282.3c0.3-0.3,0.7-0.3,1,0s0.3,0.7,0,1c-0.3,0.3-0.7,0.3-1,0C534.8,283,534.8,282.5,535.1,282.3z"
						/>
					<path class="st2" d="M544.2,269.7c0.5-0.5,1.3-0.5,1.8,0c0.5,0.5,0.5,1.3,0,1.8c-0.5,0.5-1.3,0.5-1.8,0
						C543.7,271,543.7,270.2,544.2,269.7z"/>
					<path class="st2" d="M531.9,263.5c0.3-0.3,0.8-0.3,1.1,0c0.3,0.3,0.3,0.8,0,1.1s-0.8,0.3-1.1,0S531.6,263.8,531.9,263.5z"/>
					<path class="st2" d="M542.9,262.4c0.4-0.4,1.2-0.4,1.6,0c0.4,0.4,0.4,1.2,0,1.6c-0.4,0.4-1.2,0.4-1.6,0
						C542.5,263.6,542.5,262.8,542.9,262.4z"/>
					<circle class="st2" cx="541.8" cy="267" r="1"/>
					<circle class="st2" cx="539.3" cy="268.7" r="0.4"/>
					<path class="st2" d="M546.8,260.3c0.3-0.3,0.9-0.3,1.2,0c0.3,0.3,0.3,0.9,0,1.2c-0.3,0.3-0.9,0.3-1.2,0
						C546.4,261.2,546.4,260.6,546.8,260.3z"/>
					<path class="st2" d="M528.6,285.1c0.2-0.2,0.5-0.2,0.7,0c0.2,0.2,0.2,0.5,0,0.7c-0.2,0.2-0.5,0.2-0.7,0
						C528.4,285.6,528.4,285.3,528.6,285.1z"/>
					<circle class="st2" cx="518.2" cy="254.6" r="1.3"/>
					<path class="st2" d="M517.8,256.4c0.1-0.1,0.3-0.1,0.4,0c0.1,0.1,0.1,0.3,0,0.4c-0.1,0.1-0.3,0.1-0.4,0
						C517.7,256.7,517.7,256.5,517.8,256.4z"/>
					<circle class="st2" cx="321.6" cy="276.3" r="0.8"/>
					<path class="st2" d="M233.1,237.2c0.2-0.2,0.6-0.2,0.8,0c0.2,0.2,0.2,0.6,0,0.8s-0.6,0.2-0.8,0S232.9,237.5,233.1,237.2z"/>
					<path class="st2" d="M126.7,175.2c0.5-0.5,1.2-0.5,1.7,0c0.5,0.5,0.5,1.2,0,1.7c-0.5,0.5-1.2,0.5-1.7,0
						C126.2,176.4,126.2,175.6,126.7,175.2z"/>
					<circle class="st2" cx="118.9" cy="172.9" r="0.2"/>
					<circle class="st2" cx="155.1" cy="177.5" r="0.5"/>
					<circle class="st2" cx="153.5" cy="180.1" r="0.5"/>
					<path class="st2" d="M65,143.1c0.4-0.4,1.1-0.4,1.5,0c0.4,0.4,0.4,1.1,0,1.5c-0.4,0.4-1.1,0.4-1.5,0
						C64.6,144.2,64.6,143.5,65,143.1z"/>
					<circle class="st2" cx="76.2" cy="148.1" r="0.9"/>
					<circle class="st2" cx="90.5" cy="154.6" r="1.2"/>
					<path class="st2" d="M81.9,150.1c0.2-0.2,0.6-0.2,0.9,0c0.2,0.2,0.2,0.6,0,0.9c-0.2,0.2-0.6,0.2-0.9,0
						C81.7,150.7,81.7,150.3,81.9,150.1z"/>
					<path class="st2" d="M71.3,145.8c0.5-0.5,1.3-0.5,1.7,0c0.5,0.5,0.5,1.3,0,1.7c-0.5,0.5-1.3,0.5-1.7,0
						C70.9,147,70.9,146.2,71.3,145.8z"/>
					<path class="st2" d="M99.9,160c0.5-0.5,1.2-0.5,1.7,0c0.5,0.5,0.5,1.2,0,1.7c-0.5,0.5-1.2,0.5-1.7,0
						C99.5,161.2,99.5,160.4,99.9,160z"/>
					<path class="st2" d="M114,166.3c0.3-0.3,0.8-0.3,1.1,0c0.3,0.3,0.3,0.8,0,1.1c-0.3,0.3-0.8,0.3-1.1,0
						C113.7,167.1,113.7,166.6,114,166.3z"/>
					<path class="st2" d="M139.2,180.4c0.4-0.4,1-0.4,1.4,0c0.4,0.4,0.4,1,0,1.4c-0.4,0.4-1,0.4-1.4,0
						C138.8,181.4,138.8,180.8,139.2,180.4z"/>
					<circle class="st2" cx="142.7" cy="168.7" r="1.1"/>
					<path class="st2" d="M127.4,163.3c0.5-0.5,1.3-0.5,1.8,0c0.5,0.5,0.5,1.3,0,1.8c-0.5,0.5-1.3,0.5-1.8,0
						C126.9,164.6,126.9,163.8,127.4,163.3z"/>
					<circle class="st2" cx="139.7" cy="172.1" r="0.9"/>
					<path class="st2" d="M19.1,104.2c0.3-0.3,0.8-0.3,1.1,0c0.3,0.3,0.3,0.8,0,1.1c-0.3,0.3-0.8,0.3-1.1,0
						C18.8,105,18.8,104.5,19.1,104.2z"/>
					<path class="st2" d="M89.9,141.2c0.5-0.5,1.4-0.5,1.9,0c0.5,0.5,0.5,1.4,0,1.9c-0.5,0.5-1.4,0.5-1.9,0
						C89.4,142.6,89.4,141.7,89.9,141.2z"/>
					<circle class="st2" cx="142.2" cy="177.3" r="0.1"/>
					<path class="st2" d="M88.3,147.2c0.5-0.5,1.4-0.5,1.9,0c0.5,0.5,0.5,1.4,0,1.9c-0.5,0.5-1.4,0.5-1.9,0
						C87.8,148.6,87.8,147.7,88.3,147.2z"/>
					<path class="st2" d="M170.6,189.8c0.1-0.1,0.3-0.1,0.5,0c0.1,0.1,0.1,0.3,0,0.5c-0.1,0.1-0.3,0.1-0.5,0
						C170.5,190.1,170.5,189.9,170.6,189.8z"/>
					<path class="st2" d="M159.3,187.8c0.4-0.4,1-0.4,1.3,0c0.4,0.4,0.4,1,0,1.3c-0.4,0.4-1,0.4-1.3,0
						C159,188.8,159,188.2,159.3,187.8z"/>
					<circle class="st2" cx="169.2" cy="191.9" r="0.3"/>
					<circle class="st2" cx="96" cy="170.6" r="0.9"/>
					<path class="st2" d="M161.2,184.5c0.1-0.1,0.2-0.1,0.3,0s0.1,0.2,0,0.3c-0.1,0.1-0.2,0.1-0.3,0
						C161.1,184.7,161.1,184.6,161.2,184.5z"/>
					<path class="st2" d="M18.6,138.8c0.4-0.4,1-0.4,1.4,0c0.4,0.4,0.4,1,0,1.4c-0.4,0.4-1,0.4-1.4,0
						C18.2,139.8,18.2,139.2,18.6,138.8z"/>
					<path class="st2" d="M515.8,113.1c0.2-0.2,0.6-0.2,0.9,0c0.2,0.2,0.2,0.6,0,0.9c-0.2,0.2-0.6,0.2-0.9,0
						C515.6,113.8,515.6,113.4,515.8,113.1z"/>
					<path class="st2" d="M505,93.3c0.4-0.4,1-0.4,1.4,0c0.4,0.4,0.4,1,0,1.4c-0.4,0.4-1,0.4-1.4,0C504.7,94.3,504.7,93.7,505,93.3z
						"/>
					<path class="st2" d="M520.7,119.9c0.1-0.1,0.2-0.1,0.3,0c0.1,0.1,0.1,0.2,0,0.3s-0.2,0.1-0.3,0
						C520.6,120.1,520.6,120,520.7,119.9z"/>
					<path class="st2" d="M523.6,126c0.4-0.4,0.9-0.4,1.3,0c0.4,0.4,0.4,0.9,0,1.3c-0.4,0.4-0.9,0.4-1.3,0
						C523.2,127,523.2,126.4,523.6,126z"/>
				</g>
			</g>
		</g>
	</g>
</g>
</svg>
