<?xml version="1.0" encoding="utf-8"?>
<!-- Generator: Adobe Illustrator 23.0.1, SVG Export Plug-In . SVG Version: 6.00 Build 0)  -->
<svg version="1.1" id="Layer_1" xmlns="http://www.w3.org/2000/svg" xmlns:xlink="http://www.w3.org/1999/xlink" x="0px" y="0px"
	 viewBox="0 0 970.9 604.6" style="enable-background:new 0 0 970.9 604.6;" xml:space="preserve">
<style type="text/css">
	.st0{fill:#8D0015;}
	.st1{fill:#002A38;}
	.st2{opacity:0.1;}
	.st3{fill:#606060;}
	.st4{opacity:0.1;fill:none;stroke:#212121;stroke-miterlimit:10;}
</style>
<title>a-bg</title>
<path class="st0" d="M761.2-153.7"/>
<path class="st1" d="M761.2-153.7"/>
<g class="st2">
	<path class="st3" d="M1263.4,407.7c-1.3,0-2.3-1.1-2.3-2.3c0-1.3,1.1-2.3,2.3-2.3s2.3,1.1,2.3,2.3
		C1265.7,406.6,1264.7,407.7,1263.4,407.7z"/>
	<path class="st3" d="M1263.4,420c-1.3,0-2.3-1.1-2.3-2.3c0-1.3,1.1-2.3,2.3-2.3s2.3,1.1,2.3,2.3C1265.7,419,1264.7,420,1263.4,420z
		"/>
	<path class="st3" d="M1263.4,432.5c-1.3,0-2.3-1.1-2.3-2.3c0-1.3,1.1-2.3,2.3-2.3s2.3,1.1,2.3,2.3l0,0
		C1265.7,431.5,1264.7,432.5,1263.4,432.5z"/>
	<path class="st3" d="M1263.4,445c-1.3,0-2.3-1.1-2.3-2.3c0-1.3,1.1-2.3,2.3-2.3s2.3,1.1,2.3,2.3l0,0
		C1265.8,443.9,1264.7,444.9,1263.4,445C1263.4,445,1263.4,445,1263.4,445z"/>
	<path class="st3" d="M1263.4,457.5c-1.3,0-2.3-1.1-2.3-2.3c0-1.3,1.1-2.3,2.3-2.3s2.3,1.1,2.3,2.3
		C1265.7,456.4,1264.7,457.4,1263.4,457.5z"/>
	<path class="st3" d="M1263.4,469.8c-1.3,0-2.3-1.1-2.3-2.3c0-1.3,1.1-2.3,2.3-2.3s2.3,1.1,2.3,2.3c0,1.2-0.9,2.3-2.2,2.3
		C1263.5,469.8,1263.5,469.8,1263.4,469.8z"/>
	<circle class="st3" cx="1263.5" cy="480" r="2.3"/>
	<path class="st3" d="M1263.5,494.8c-1.3,0-2.3-1.1-2.3-2.3c0-1.3,1.1-2.3,2.3-2.3s2.3,1.1,2.3,2.3
		C1265.8,493.7,1264.8,494.7,1263.5,494.8z"/>
	<circle class="st3" cx="1263.5" cy="504.9" r="2.3"/>
	<circle class="st3" cx="1263.4" cy="517.3" r="2.3"/>
	<circle class="st3" cx="1263.4" cy="529.7" r="2.3"/>
	<path class="st3" d="M1263.5,544.6c-1.3,0-2.3-1.1-2.3-2.3c0-1.3,1.1-2.3,2.3-2.3s2.3,1.1,2.3,2.3
		C1265.8,543.5,1264.8,544.6,1263.5,544.6z"/>
	<path class="st3" d="M1263.5,557c-1.3,0-2.3-1.1-2.3-2.3c0-1.3,1.1-2.3,2.3-2.3s2.3,1.1,2.3,2.3
		C1265.9,555.9,1264.8,557,1263.5,557C1263.5,557,1263.5,557,1263.5,557z"/>
	<path class="st3" d="M1263.5,569.4c-1.3,0-2.3-1.1-2.3-2.3c0-1.3,1.1-2.3,2.3-2.3s2.3,1.1,2.3,2.3l0,0
		C1265.9,568.4,1264.8,569.4,1263.5,569.4C1263.5,569.4,1263.5,569.4,1263.5,569.4z"/>
	<path class="st3" d="M1263.5,581.9c-1.3,0-2.3-1.1-2.3-2.3c0-1.3,1.1-2.3,2.3-2.3s2.3,1.1,2.3,2.3
		C1265.8,580.9,1264.8,581.9,1263.5,581.9z"/>
	<path class="st3" d="M1263.5,594.4c-1.3,0-2.3-1.1-2.3-2.3c0-1.3,1.1-2.3,2.3-2.3s2.3,1.1,2.3,2.3
		C1265.8,593.3,1264.8,594.3,1263.5,594.4z"/>
	<path class="st3" d="M1263.5,606.9c-1.3,0-2.3-1.1-2.3-2.3c0-1.3,1.1-2.3,2.3-2.3s2.3,1.1,2.3,2.3l0,0
		C1265.8,605.8,1264.8,606.8,1263.5,606.9z"/>
	<path class="st3" d="M1251.4,407.7c-1.3,0-2.3-1.1-2.3-2.3c0-1.3,1.1-2.3,2.3-2.3s2.3,1.1,2.3,2.3
		C1253.7,406.6,1252.6,407.7,1251.4,407.7z"/>
	<path class="st3" d="M1251.4,420c-1.3,0-2.3-1.1-2.3-2.3c0-1.3,1.1-2.3,2.3-2.3s2.3,1.1,2.3,2.3C1253.7,419,1252.7,420,1251.4,420z
		"/>
	<path class="st3" d="M1251.4,432.5c-1.3,0-2.3-1.1-2.3-2.3c0-1.3,1.1-2.3,2.3-2.3s2.3,1.1,2.3,2.3l0,0
		C1253.7,431.5,1252.6,432.5,1251.4,432.5z"/>
	<path class="st3" d="M1251.4,445c-1.3,0-2.3-1.1-2.3-2.3c0-1.3,1.1-2.3,2.3-2.3s2.3,1.1,2.3,2.3
		C1253.7,443.9,1252.7,444.9,1251.4,445z"/>
	<path class="st3" d="M1251.4,457.5c-1.3,0-2.3-1.1-2.3-2.3c0-1.3,1.1-2.3,2.3-2.3s2.3,1.1,2.3,2.3
		C1253.6,456.4,1252.6,457.4,1251.4,457.5z"/>
	<path class="st3" d="M1251.4,469.9c-1.3,0-2.3-1.1-2.3-2.3c0-1.3,1.1-2.3,2.3-2.3s2.3,1.1,2.3,2.3l0,0
		C1253.6,468.8,1252.6,469.8,1251.4,469.9z"/>
	<path class="st3" d="M1251.4,482.3c-1.3,0-2.3-1.1-2.3-2.3c0-1.3,1.1-2.3,2.3-2.3s2.3,1.1,2.3,2.3
		C1253.7,481.2,1252.6,482.3,1251.4,482.3z"/>
	<path class="st3" d="M1251.4,494.8c-1.3,0-2.3-1.1-2.3-2.3c0-1.3,1.1-2.3,2.3-2.3s2.3,1.1,2.3,2.3
		C1253.7,493.8,1252.6,494.8,1251.4,494.8z"/>
	<path class="st3" d="M1251.4,507.3c-1.3,0-2.3-1.1-2.3-2.3c0-1.3,1.1-2.3,2.3-2.3s2.3,1.1,2.3,2.3l0,0
		C1253.6,506.3,1252.6,507.3,1251.4,507.3z"/>
	<path class="st3" d="M1251.4,519.7c-1.3,0-2.3-1.1-2.3-2.3c0-1.3,1.1-2.3,2.3-2.3s2.3,1.1,2.3,2.3l0,0
		C1253.7,518.6,1252.6,519.6,1251.4,519.7z"/>
	<path class="st3" d="M1251.4,532.1c-1.3,0-2.3-1.1-2.3-2.3c0-1.3,1.1-2.3,2.3-2.3s2.3,1.1,2.3,2.3
		C1253.7,531,1252.7,532.1,1251.4,532.1z"/>
	<path class="st3" d="M1251.4,544.6c-1.3,0-2.3-1.1-2.3-2.3c0-1.3,1.1-2.3,2.3-2.3s2.3,1.1,2.3,2.3
		C1253.7,543.5,1252.7,544.6,1251.4,544.6z"/>
	<path class="st3" d="M1251.4,557.1c-1.3,0-2.3-1.1-2.3-2.3c0-1.3,1.1-2.3,2.3-2.3s2.3,1.1,2.3,2.3l0,0
		C1253.7,556,1252.7,557.1,1251.4,557.1z"/>
	<path class="st3" d="M1251.5,569.4c-1.3,0-2.3-1.1-2.3-2.3c0-1.3,1.1-2.3,2.3-2.3s2.3,1.1,2.3,2.3
		C1253.8,568.4,1252.8,569.4,1251.5,569.4z"/>
	<path class="st3" d="M1251.5,581.9c-1.3,0-2.3-1.1-2.3-2.3c0-1.3,1.1-2.3,2.3-2.3s2.3,1.1,2.3,2.3
		C1253.8,580.9,1252.7,581.9,1251.5,581.9z"/>
	<path class="st3" d="M1251.5,594.4c-1.3,0-2.3-1.1-2.3-2.3c0-1.3,1.1-2.3,2.3-2.3s2.3,1.1,2.3,2.3l0,0
		C1253.8,593.3,1252.8,594.3,1251.5,594.4z"/>
	<path class="st3" d="M1251.5,606.9c-1.3,0-2.3-1.1-2.3-2.3c0-1.3,1.1-2.3,2.3-2.3s2.3,1.1,2.3,2.3l0,0
		C1253.8,605.8,1252.7,606.8,1251.5,606.9z"/>
	<path class="st3" d="M1239.2,407.7c-1.3,0-2.3-1.1-2.3-2.3c0-1.3,1.1-2.3,2.3-2.3c1.3,0,2.3,1.1,2.3,2.3
		C1241.5,406.6,1240.5,407.7,1239.2,407.7z"/>
	<path class="st3" d="M1239.2,420c-1.3,0-2.3-1.1-2.3-2.3c0-1.3,1.1-2.3,2.3-2.3c1.3,0,2.3,1.1,2.3,2.3l0,0
		C1241.6,419,1240.6,420,1239.2,420C1239.3,420,1239.3,420,1239.2,420z"/>
	<path class="st3" d="M1239.2,432.5c-1.3,0-2.3-1.1-2.3-2.3c0-1.3,1.1-2.3,2.3-2.3c1.3,0,2.3,1.1,2.3,2.3
		C1241.6,431.5,1240.5,432.5,1239.2,432.5z"/>
	<path class="st3" d="M1239.2,445c-1.3,0-2.3-1.1-2.3-2.3c0-1.3,1.1-2.3,2.3-2.3c1.3,0,2.3,1.1,2.3,2.3l0,0
		C1241.6,443.9,1240.6,444.9,1239.2,445C1239.3,445,1239.3,445,1239.2,445z"/>
	<path class="st3" d="M1239.2,457.5c-1.3,0-2.3-1.1-2.3-2.3c0-1.3,1.1-2.3,2.3-2.3c1.3,0,2.3,1.1,2.3,2.3l0,0
		C1241.6,456.4,1240.5,457.5,1239.2,457.5z"/>
	<path class="st3" d="M1239.2,469.9c-1.3,0-2.3-1.1-2.3-2.3c0-1.3,1.1-2.3,2.3-2.3c1.3,0,2.3,1.1,2.3,2.3l0,0
		C1241.5,468.8,1240.5,469.8,1239.2,469.9z"/>
	<path class="st3" d="M1239.2,482.3c-1.3,0-2.3-1.1-2.3-2.3c0-1.3,1.1-2.3,2.3-2.3c1.3,0,2.3,1.1,2.3,2.3
		C1241.6,481.3,1240.5,482.3,1239.2,482.3z"/>
	<path class="st3" d="M1239.2,494.8c-1.3,0-2.3-1.1-2.3-2.3c0-1.3,1.1-2.3,2.3-2.3c1.3,0,2.3,1.1,2.3,2.3
		C1241.6,493.8,1240.6,494.8,1239.2,494.8C1239.3,494.8,1239.3,494.8,1239.2,494.8z"/>
	<path class="st3" d="M1239.2,507.3c-1.3,0-2.3-1.1-2.3-2.3c0-1.3,1.1-2.3,2.3-2.3c1.3,0,2.3,1.1,2.3,2.3l0,0
		C1241.6,506.3,1240.5,507.3,1239.2,507.3z"/>
	<path class="st3" d="M1239.3,519.7c-1.3,0-2.3-1.1-2.3-2.3c0-1.3,1.1-2.3,2.3-2.3c1.3,0,2.3,1.1,2.3,2.3
		C1241.6,518.6,1240.6,519.6,1239.3,519.7z"/>
	<path class="st3" d="M1239.3,532.1c-1.3,0-2.3-1.1-2.3-2.3s1.1-2.3,2.3-2.3c1.3,0,2.3,1.1,2.3,2.3
		C1241.7,531,1240.6,532.1,1239.3,532.1z"/>
	<path class="st3" d="M1239.3,544.6c-1.3,0-2.3-1.1-2.3-2.3c0-1.3,1.1-2.3,2.3-2.3c1.3,0,2.3,1.1,2.3,2.3l0,0
		C1241.6,543.5,1240.6,544.5,1239.3,544.6z"/>
	<path class="st3" d="M1239.3,557.1c-1.3,0-2.3-1.1-2.3-2.3c0-1.3,1.1-2.3,2.3-2.3c1.3,0,2.3,1.1,2.3,2.3
		C1241.6,556,1240.6,557.1,1239.3,557.1z"/>
	<path class="st3" d="M1239.3,569.4c-1.3,0-2.3-1.1-2.3-2.3c0-1.3,1.1-2.3,2.3-2.3c1.3,0,2.3,1.1,2.3,2.3
		C1241.7,568.4,1240.7,569.4,1239.3,569.4C1239.4,569.4,1239.4,569.4,1239.3,569.4z"/>
	<path class="st3" d="M1239.3,581.9c-1.3,0-2.3-1.1-2.3-2.3c0-1.3,1.1-2.3,2.3-2.3c1.3,0,2.3,1.1,2.3,2.3
		C1241.7,580.9,1240.6,581.9,1239.3,581.9z"/>
	<path class="st3" d="M1239.3,594.4c-1.3,0-2.3-1.1-2.3-2.3c0-1.3,1.1-2.3,2.3-2.3c1.3,0,2.3,1.1,2.3,2.3l0,0
		C1241.7,593.3,1240.7,594.3,1239.3,594.4C1239.4,594.4,1239.4,594.4,1239.3,594.4z"/>
	<path class="st3" d="M1239.3,606.9c-1.3,0-2.3-1.1-2.3-2.3c0-1.3,1.1-2.3,2.3-2.3c1.3,0,2.3,1.1,2.3,2.3
		C1241.7,605.8,1240.6,606.8,1239.3,606.9z"/>
	<path class="st3" d="M1227.1,407.7c-1.3,0-2.3-1.1-2.3-2.3c0-1.3,1.1-2.3,2.3-2.3s2.3,1.1,2.3,2.3l0,0
		C1229.5,406.7,1228.4,407.7,1227.1,407.7z"/>
	<path class="st3" d="M1227.1,420c-1.3,0-2.3-1.1-2.3-2.3c0-1.3,1.1-2.3,2.3-2.3s2.3,1.1,2.3,2.3l0,0
		C1229.5,419,1228.5,420,1227.1,420C1227.2,420,1227.1,420,1227.1,420z"/>
	<path class="st3" d="M1227.1,432.5c-1.3,0-2.3-1.1-2.3-2.3c0-1.3,1.1-2.3,2.3-2.3s2.3,1.1,2.3,2.3
		C1229.5,431.5,1228.5,432.5,1227.1,432.5C1227.2,432.5,1227.1,432.5,1227.1,432.5z"/>
	<path class="st3" d="M1227.2,445.1c-1.3,0-2.3-1.1-2.3-2.3c0-1.3,1.1-2.3,2.3-2.3s2.3,1.1,2.3,2.3
		C1229.5,444,1228.5,445,1227.2,445.1z"/>
	<path class="st3" d="M1227.2,457.5c-1.3,0-2.3-1.1-2.3-2.3c0-1.3,1.1-2.3,2.3-2.3s2.3,1.1,2.3,2.3l0,0
		C1229.5,456.4,1228.5,457.4,1227.2,457.5z"/>
	<path class="st3" d="M1227.2,469.9c-1.3,0-2.3-1.1-2.3-2.3c0-1.3,1.1-2.3,2.3-2.3s2.3,1.1,2.3,2.3
		C1229.5,468.8,1228.5,469.8,1227.2,469.9z"/>
	<circle class="st3" cx="1227.1" cy="480" r="2.3"/>
	<path class="st3" d="M1227.2,494.8c-1.3,0-2.3-1.1-2.3-2.3c0-1.3,1.1-2.3,2.3-2.3s2.3,1.1,2.3,2.3l0,0
		C1229.6,493.8,1228.5,494.8,1227.2,494.8z"/>
	<circle class="st3" cx="1227.2" cy="504.9" r="2.3"/>
	<circle class="st3" cx="1227.2" cy="517.3" r="2.3"/>
	<circle class="st3" cx="1227.2" cy="529.7" r="2.3"/>
	<path class="st3" d="M1227.2,544.6c-1.3,0-2.3-1.1-2.3-2.3c0-1.3,1.1-2.3,2.3-2.3s2.3,1.1,2.3,2.3l0,0
		C1229.6,543.5,1228.5,544.6,1227.2,544.6z"/>
	<path class="st3" d="M1227.2,557.1c-1.3,0-2.3-1.1-2.3-2.3c0-1.3,1.1-2.3,2.3-2.3s2.3,1.1,2.3,2.3
		C1229.6,556,1228.5,557.1,1227.2,557.1z"/>
	<path class="st3" d="M1227.2,569.4c-1.3,0-2.3-1.1-2.3-2.3c0-1.3,1.1-2.3,2.3-2.3s2.3,1.1,2.3,2.3
		C1229.6,568.4,1228.6,569.4,1227.2,569.4C1227.3,569.4,1227.2,569.4,1227.2,569.4z"/>
	<path class="st3" d="M1227.2,581.9c-1.3,0-2.3-1.1-2.3-2.3c0-1.3,1.1-2.3,2.3-2.3s2.3,1.1,2.3,2.3l0,0
		C1229.6,580.9,1228.6,581.9,1227.2,581.9C1227.3,581.9,1227.2,581.9,1227.2,581.9z"/>
	<path class="st3" d="M1227.2,594.4c-1.3,0-2.3-1.1-2.3-2.3c0-1.3,1.1-2.3,2.3-2.3s2.3,1.1,2.3,2.3c0,1.2-0.9,2.3-2.2,2.3
		C1227.3,594.4,1227.3,594.4,1227.2,594.4z"/>
	<path class="st3" d="M1227.3,606.9c-1.3,0-2.3-1.1-2.3-2.3c0-1.3,1.1-2.3,2.3-2.3c1.3,0,2.3,1.1,2.3,2.3
		C1229.6,605.8,1228.6,606.8,1227.3,606.9z"/>
	<path class="st3" d="M1215.1,407.7c-1.3,0-2.3-1.1-2.3-2.3c0-1.3,1.1-2.3,2.3-2.3s2.3,1.1,2.3,2.3l0,0
		C1217.4,406.6,1216.4,407.7,1215.1,407.7z"/>
	<path class="st3" d="M1215.1,420c-1.3,0-2.3-1.1-2.3-2.3c0-1.3,1.1-2.3,2.3-2.3s2.3,1.1,2.3,2.3C1217.5,419,1216.4,420,1215.1,420
		C1215.1,420,1215.1,420,1215.1,420z"/>
	<path class="st3" d="M1215.1,432.5c-1.3,0-2.3-1.1-2.3-2.3c0-1.3,1.1-2.3,2.3-2.3s2.3,1.1,2.3,2.3
		C1217.4,431.5,1216.4,432.5,1215.1,432.5z"/>
	<path class="st3" d="M1215.1,445.1c-1.3,0-2.3-1.1-2.3-2.3c0-1.3,1.1-2.3,2.3-2.3s2.3,1.1,2.3,2.3l0,0
		C1217.4,444,1216.4,445,1215.1,445.1z"/>
	<path class="st3" d="M1215.1,457.5c-1.3,0-2.3-1.1-2.3-2.3c0-1.3,1.1-2.3,2.3-2.3s2.3,1.1,2.3,2.3
		C1217.4,456.4,1216.4,457.5,1215.1,457.5z"/>
	<path class="st3" d="M1215.1,469.9c-1.3,0-2.3-1.1-2.3-2.3c0-1.3,1.1-2.3,2.3-2.3s2.3,1.1,2.3,2.3
		C1217.4,468.8,1216.4,469.9,1215.1,469.9z"/>
	<path class="st3" d="M1215.1,482.3c-1.3,0-2.3-1.1-2.3-2.3c0-1.3,1.1-2.3,2.3-2.3s2.3,1.1,2.3,2.3l0,0
		C1217.5,481.2,1216.4,482.3,1215.1,482.3C1215.1,482.3,1215.1,482.3,1215.1,482.3z"/>
	<path class="st3" d="M1215.1,494.8c-1.3,0-2.3-1.1-2.3-2.3c0-1.3,1.1-2.3,2.3-2.3s2.3,1.1,2.3,2.3
		C1217.4,493.8,1216.4,494.8,1215.1,494.8z"/>
	<path class="st3" d="M1215.2,507.3c-1.3,0-2.3-1.1-2.3-2.3c0-1.3,1.1-2.3,2.3-2.3s2.3,1.1,2.3,2.3
		C1217.5,506.3,1216.5,507.3,1215.2,507.3z"/>
	<path class="st3" d="M1215.2,519.7c-1.3,0-2.3-1.1-2.3-2.3c0-1.3,1.1-2.3,2.3-2.3s2.3,1.1,2.3,2.3
		C1217.5,518.6,1216.5,519.6,1215.2,519.7z"/>
	<path class="st3" d="M1215.2,532.2c-1.3,0-2.3-1.1-2.3-2.3c0-1.3,1.1-2.3,2.3-2.3s2.3,1.1,2.3,2.3l0,0
		C1217.5,531.1,1216.5,532.1,1215.2,532.2z"/>
	<path class="st3" d="M1215.2,544.6c-1.3,0-2.3-1.1-2.3-2.3c0-1.3,1.1-2.3,2.3-2.3s2.3,1.1,2.3,2.3
		C1217.5,543.5,1216.5,544.5,1215.2,544.6z"/>
	<path class="st3" d="M1215.2,557.1c-1.3,0-2.3-1.1-2.3-2.3c0-1.3,1.1-2.3,2.3-2.3s2.3,1.1,2.3,2.3
		C1217.5,556,1216.5,557.1,1215.2,557.1z"/>
	<path class="st3" d="M1215.2,569.4c-1.3,0-2.3-1.1-2.3-2.3c0-1.3,1.1-2.3,2.3-2.3s2.3,1.1,2.3,2.3l0,0
		C1217.5,568.4,1216.5,569.4,1215.2,569.4z"/>
	<path class="st3" d="M1215.2,581.9c-1.3,0-2.3-1.1-2.3-2.3c0-1.3,1.1-2.3,2.3-2.3s2.3,1.1,2.3,2.3l0,0
		C1217.5,580.9,1216.5,581.9,1215.2,581.9z"/>
	<path class="st3" d="M1215.2,594.4c-1.3,0-2.3-1.1-2.3-2.3c0-1.3,1.1-2.3,2.3-2.3s2.3,1.1,2.3,2.3
		C1217.5,593.3,1216.5,594.3,1215.2,594.4z"/>
	<path class="st3" d="M1215.2,606.9c-1.3,0-2.3-1.1-2.3-2.3c0-1.3,1.1-2.3,2.3-2.3s2.3,1.1,2.3,2.3
		C1217.5,605.8,1216.5,606.8,1215.2,606.9z"/>
	<path class="st3" d="M1203,407.7c-1.3,0-2.3-1.1-2.3-2.3c0-1.3,1.1-2.3,2.3-2.3s2.3,1.1,2.3,2.3
		C1205.3,406.7,1204.3,407.7,1203,407.7z"/>
	<path class="st3" d="M1203,420.1c-1.3,0-2.3-1.1-2.3-2.3c0-1.3,1.1-2.3,2.3-2.3s2.3,1.1,2.3,2.3
		C1205.3,419.1,1204.3,420.1,1203,420.1z"/>
	<path class="st3" d="M1203,432.5c-1.3,0-2.3-1.1-2.3-2.3c0-1.3,1.1-2.3,2.3-2.3s2.3,1.1,2.3,2.3l0,0
		C1205.3,431.5,1204.3,432.5,1203,432.5z"/>
	<path class="st3" d="M1203,445.1c-1.3,0-2.3-1.1-2.3-2.3c0-1.3,1.1-2.3,2.3-2.3s2.3,1.1,2.3,2.3C1205.3,444,1204.3,445,1203,445.1z
		"/>
	<path class="st3" d="M1203,457.5c-1.3,0-2.3-1.1-2.3-2.3c0-1.3,1.1-2.3,2.3-2.3s2.3,1.1,2.3,2.3c0,1.2-0.9,2.3-2.2,2.3
		C1203.1,457.5,1203,457.5,1203,457.5z"/>
	<path class="st3" d="M1203.1,469.9c-1.3,0-2.3-1.1-2.3-2.3c0-1.3,1.1-2.3,2.3-2.3c1.3,0,2.3,1.1,2.3,2.3
		C1205.4,468.8,1204.3,469.8,1203.1,469.9z"/>
	<path class="st3" d="M1203.1,482.3c-1.3,0-2.3-1.1-2.3-2.3c0-1.3,1.1-2.3,2.3-2.3c1.3,0,2.3,1.1,2.3,2.3l0,0
		C1205.4,481.3,1204.4,482.3,1203.1,482.3z"/>
	<path class="st3" d="M1203.1,494.8c-1.3,0-2.3-1.1-2.3-2.3s1.1-2.3,2.3-2.3c1.3,0,2.3,1.1,2.3,2.3
		C1205.4,493.8,1204.3,494.8,1203.1,494.8z"/>
	<path class="st3" d="M1203.1,507.3c-1.3,0-2.3-1.1-2.3-2.3s1.1-2.3,2.3-2.3c1.3,0,2.3,1.1,2.3,2.3
		C1205.4,506.3,1204.3,507.3,1203.1,507.3z"/>
	<path class="st3" d="M1203.1,519.7c-1.3,0-2.3-1.1-2.3-2.3s1.1-2.3,2.3-2.3c1.3,0,2.3,1.1,2.3,2.3l0,0
		C1205.4,518.6,1204.4,519.6,1203.1,519.7z"/>
	<path class="st3" d="M1203.1,532.2c-1.3,0-2.3-1.1-2.3-2.3s1.1-2.3,2.3-2.3c1.3,0,2.3,1.1,2.3,2.3
		C1205.4,531.1,1204.3,532.1,1203.1,532.2z"/>
	<path class="st3" d="M1203.1,544.6c-1.3,0-2.3-1.1-2.3-2.3s1.1-2.3,2.3-2.3c1.3,0,2.3,1.1,2.3,2.3
		C1205.4,543.5,1204.4,544.6,1203.1,544.6C1203.1,544.6,1203.1,544.6,1203.1,544.6z"/>
	<path class="st3" d="M1203.1,557.1c-1.3,0-2.3-1.1-2.3-2.3c0-1.3,1.1-2.3,2.3-2.3c1.3,0,2.3,1.1,2.3,2.3l0,0
		C1205.4,556,1204.4,557.1,1203.1,557.1z"/>
	<path class="st3" d="M1203.1,569.4c-1.3,0-2.3-1.1-2.3-2.3s1.1-2.3,2.3-2.3c1.3,0,2.3,1.1,2.3,2.3l0,0c0,1.2-0.9,2.3-2.2,2.3
		C1203.2,569.4,1203.1,569.4,1203.1,569.4C1203.2,569.5,1203.1,569.5,1203.1,569.4z"/>
	<path class="st3" d="M1203.1,581.9c-1.3,0-2.3-1.1-2.3-2.3c0-1.3,1.1-2.3,2.3-2.3c1.3,0,2.3,1.1,2.3,2.3v0.1
		C1205.3,580.9,1204.3,581.9,1203.1,581.9z"/>
	<path class="st3" d="M1203.1,594.4c-1.3,0-2.3-1.1-2.3-2.3s1.1-2.3,2.3-2.3c1.3,0,2.3,1.1,2.3,2.3
		C1205.4,593.4,1204.3,594.4,1203.1,594.4z"/>
	<path class="st3" d="M1203.1,606.9c-1.3,0-2.3-1.1-2.3-2.3s1.1-2.3,2.3-2.3c1.3,0,2.3,1.1,2.3,2.3l0,0
		C1205.4,605.8,1204.4,606.8,1203.1,606.9C1203.1,606.9,1203.1,606.9,1203.1,606.9z"/>
	<path class="st3" d="M1190.9,407.7c-1.3,0-2.3-1.1-2.3-2.3c0-1.3,1.1-2.3,2.3-2.3s2.3,1.1,2.3,2.3c0.1,1.2-0.8,2.3-2.1,2.3
		c0,0-0.1,0-0.1,0H1190.9z"/>
	<path class="st3" d="M1190.9,420.1c-1.3,0-2.3-1.1-2.3-2.3c0-1.3,1.1-2.3,2.3-2.3s2.3,1.1,2.3,2.3l0,0
		C1193.2,419.1,1192.1,420.1,1190.9,420.1z"/>
	<path class="st3" d="M1190.9,432.5c-1.3,0-2.3-1.1-2.3-2.3c0-1.3,1.1-2.3,2.3-2.3s2.3,1.1,2.3,2.3l0,0
		C1193.2,431.5,1192.1,432.5,1190.9,432.5z"/>
	<path class="st3" d="M1190.9,445.1c-1.3,0-2.3-1.1-2.3-2.3c0-1.3,1.1-2.3,2.3-2.3s2.3,1.1,2.3,2.3c0.1,1.2-0.8,2.3-2.1,2.3
		c0,0-0.1,0-0.1,0H1190.9z"/>
	<path class="st3" d="M1190.9,457.5c-1.3,0-2.3-1.1-2.3-2.3c0-1.3,1.1-2.3,2.3-2.3s2.3,1.1,2.3,2.3c0.1,1.2-0.8,2.3-2.1,2.3
		c0,0-0.1,0-0.1,0H1190.9z"/>
	<path class="st3" d="M1190.9,469.9c-1.3,0-2.3-1.1-2.3-2.3c0-1.3,1.1-2.3,2.3-2.3s2.3,1.1,2.3,2.3l0,0c0.1,1.2-0.8,2.3-2.1,2.3
		c0,0-0.1,0-0.1,0H1190.9z"/>
	<circle class="st3" cx="1190.9" cy="480.1" r="2.3"/>
	<path class="st3" d="M1190.9,494.8c-1.3,0-2.3-1.1-2.3-2.3s1.1-2.3,2.3-2.3s2.3,1.1,2.3,2.3
		C1193.2,493.8,1192.2,494.8,1190.9,494.8C1190.9,494.8,1190.9,494.8,1190.9,494.8z"/>
	<circle class="st3" cx="1190.9" cy="504.9" r="2.3"/>
	<circle class="st3" cx="1190.9" cy="517.3" r="2.3"/>
	<circle class="st3" cx="1190.9" cy="529.8" r="2.3"/>
	<path class="st3" d="M1190.9,544.6c-1.3,0-2.3-1.1-2.3-2.3s1.1-2.3,2.3-2.3s2.3,1.1,2.3,2.3c0.1,1.2-0.8,2.3-2.1,2.3
		c0,0-0.1,0-0.1,0H1190.9z"/>
	<path class="st3" d="M1190.9,557.1c-1.3,0-2.3-1.1-2.3-2.3c0-1.3,1.1-2.3,2.3-2.3s2.3,1.1,2.3,2.3l0,0c0.1,1.2-0.8,2.3-2.1,2.3
		c0,0-0.1,0-0.1,0H1190.9z"/>
	<path class="st3" d="M1191,569.4c-1.3,0-2.3-1.1-2.3-2.3s1.1-2.3,2.3-2.3c1.3,0,2.3,1.1,2.3,2.3c0.1,1.2-0.9,2.2-2.1,2.3
		C1191.2,569.5,1191.1,569.5,1191,569.4C1191,569.4,1191,569.4,1191,569.4z"/>
	<path class="st3" d="M1191,581.9c-1.3,0-2.3-1.1-2.3-2.3c0-1.3,1.1-2.3,2.3-2.3c1.3,0,2.3,1.1,2.3,2.3
		C1193.3,580.9,1192.2,581.9,1191,581.9z"/>
	<path class="st3" d="M1191,594.4c-1.3,0-2.3-1.1-2.3-2.3s1.1-2.3,2.3-2.3c1.3,0,2.3,1.1,2.3,2.3l0,0
		C1193.2,593.4,1192.2,594.4,1191,594.4z"/>
	<path class="st3" d="M1191,606.9c-1.3,0-2.3-1.1-2.3-2.3s1.1-2.3,2.3-2.3c1.3,0,2.3,1.1,2.3,2.3l0,0c0.1,1.2-0.8,2.3-2.1,2.3
		c0,0-0.1,0-0.1,0H1191z"/>
	<path class="st3" d="M1178.7,407.7c-1.3,0-2.3-1.1-2.3-2.3c0-1.3,1.1-2.3,2.3-2.3s2.3,1.1,2.3,2.3c0.1,1.2-0.8,2.3-2.1,2.3
		c0,0-0.1,0-0.1,0H1178.7z"/>
	<path class="st3" d="M1178.7,420.1c-1.3,0-2.3-1.1-2.3-2.3c0-1.3,1.1-2.3,2.3-2.3s2.3,1.1,2.3,2.3l0,0
		C1181.1,419.1,1180.1,420.1,1178.7,420.1C1178.8,420.1,1178.8,420.1,1178.7,420.1z"/>
	<path class="st3" d="M1178.7,432.5c-1.3,0-2.3-1.1-2.3-2.3c0-1.3,1.1-2.3,2.3-2.3s2.3,1.1,2.3,2.3
		C1181.1,431.5,1180.1,432.5,1178.7,432.5C1178.8,432.5,1178.8,432.5,1178.7,432.5z"/>
	<path class="st3" d="M1178.7,445.1c-1.3,0-2.3-1.1-2.3-2.3c0-1.3,1.1-2.3,2.3-2.3s2.3,1.1,2.3,2.3c0.1,1.2-0.8,2.3-2.1,2.3
		c0,0-0.1,0-0.1,0H1178.7z"/>
	<path class="st3" d="M1178.7,457.5c-1.3,0-2.3-1.1-2.3-2.3c0-1.3,1.1-2.3,2.3-2.3s2.3,1.1,2.3,2.3l0,0c0.1,1.2-0.8,2.3-2.1,2.3
		c0,0-0.1,0-0.1,0C1178.8,457.6,1178.8,457.6,1178.7,457.5z"/>
	<path class="st3" d="M1178.7,469.9c-1.3,0-2.3-1.1-2.3-2.3c0-1.3,1.1-2.3,2.3-2.3s2.3,1.1,2.3,2.3l0,0c0.1,1.2-0.8,2.3-2.1,2.3
		c0,0-0.1,0-0.1,0H1178.7z"/>
	<path class="st3" d="M1178.7,482.4c-1.3,0-2.3-1.1-2.3-2.3s1.1-2.3,2.3-2.3s2.3,1.1,2.3,2.3C1181.1,481.4,1180,482.4,1178.7,482.4z
		"/>
	<path class="st3" d="M1178.8,494.8c-1.3,0-2.3-1.1-2.3-2.3s1.1-2.3,2.3-2.3c1.3,0,2.3,1.1,2.3,2.3
		C1181.2,493.8,1180.1,494.8,1178.8,494.8z"/>
	<path class="st3" d="M1178.8,507.3c-1.3,0-2.3-1.1-2.3-2.3s1.1-2.3,2.3-2.3c1.3,0,2.3,1.1,2.3,2.3l0,0c0.1,1.2-0.8,2.3-2.1,2.3
		c0,0-0.1,0-0.1,0H1178.8z"/>
	<path class="st3" d="M1178.8,519.7c-1.3,0-2.3-1.1-2.3-2.3s1.1-2.3,2.3-2.3c1.3,0,2.3,1.1,2.3,2.3
		C1181.2,518.6,1180.1,519.6,1178.8,519.7z"/>
	<path class="st3" d="M1178.8,532.2c-1.3,0-2.3-1.1-2.3-2.3s1.1-2.3,2.3-2.3c1.3,0,2.3,1.1,2.3,2.3c0.1,1.2-0.8,2.3-2.1,2.3
		c0,0-0.1,0-0.1,0H1178.8z"/>
	<path class="st3" d="M1178.8,544.6c-1.3,0-2.3-1.1-2.3-2.3s1.1-2.3,2.3-2.3c1.3,0,2.3,1.1,2.3,2.3l0,0c0.1,1.2-0.8,2.3-2.1,2.3
		c0,0-0.1,0-0.1,0C1178.9,544.7,1178.8,544.7,1178.8,544.6z"/>
	<path class="st3" d="M1178.8,557.1c-1.3,0-2.3-1.1-2.3-2.3c0-1.3,1.1-2.3,2.3-2.3c1.3,0,2.3,1.1,2.3,2.3c0.1,1.2-0.8,2.3-2.1,2.3
		c0,0-0.1,0-0.1,0H1178.8z"/>
	<path class="st3" d="M1178.8,569.5c-1.3,0-2.3-1.1-2.3-2.3c0-1.3,1.1-2.3,2.3-2.3c1.3,0,2.3,1.1,2.3,2.3c0.1,1.2-0.9,2.2-2.1,2.3
		H1178.8z"/>
	<path class="st3" d="M1178.8,581.9c-1.3,0-2.3-1.1-2.3-2.3c0-1.3,1.1-2.3,2.3-2.3c1.3,0,2.3,1.1,2.3,2.3
		C1181.2,580.9,1180.2,581.9,1178.8,581.9C1178.9,581.9,1178.8,581.9,1178.8,581.9z"/>
	<path class="st3" d="M1178.8,594.4c-1.3,0-2.3-1.1-2.3-2.3s1.1-2.3,2.3-2.3c1.3,0,2.3,1.1,2.3,2.3l0,0
		C1181.2,593.4,1180.2,594.4,1178.8,594.4C1178.9,594.4,1178.8,594.4,1178.8,594.4z"/>
	<path class="st3" d="M1178.8,606.9c-1.3,0-2.3-1.1-2.3-2.3s1.1-2.3,2.3-2.3c1.3,0,2.3,1.1,2.3,2.3c0.1,1.2-0.8,2.3-2.1,2.3
		c0,0-0.1,0-0.1,0H1178.8z"/>
	<path class="st3" d="M1166.6,407.7c-1.3,0-2.3-1.1-2.3-2.3c0-1.3,1.1-2.3,2.3-2.3c1.3,0,2.3,1.1,2.3,2.3c0.1,1.2-0.8,2.3-2.1,2.3
		c0,0-0.1,0-0.1,0H1166.6z"/>
	<path class="st3" d="M1166.6,420.1c-1.3,0-2.3-1.1-2.3-2.3c0-1.3,1.1-2.3,2.3-2.3c1.3,0,2.3,1.1,2.3,2.3c0,1.2-0.9,2.3-2.2,2.3
		C1166.7,420.1,1166.7,420.1,1166.6,420.1z"/>
	<path class="st3" d="M1166.6,432.5c-1.3,0-2.3-1.1-2.3-2.3c0-1.3,1.1-2.3,2.3-2.3c1.3,0,2.3,1.1,2.3,2.3c0.1,1.2-0.8,2.3-2.1,2.3
		C1166.8,432.6,1166.7,432.6,1166.6,432.5z"/>
	<path class="st3" d="M1166.7,445.1c-1.3,0-2.3-1.1-2.3-2.3c0-1.3,1.1-2.3,2.3-2.3c1.3,0,2.3,1.1,2.3,2.3l0,0
		c0.1,1.2-0.8,2.3-2.1,2.3c0,0-0.1,0-0.1,0H1166.7z"/>
	<path class="st3" d="M1166.7,457.6c-1.3,0-2.3-1.1-2.3-2.3s1.1-2.3,2.3-2.3c1.3,0,2.3,1.1,2.3,2.3l0,0c0.1,1.2-0.8,2.3-2.1,2.3
		c0,0-0.1,0-0.1,0H1166.7z"/>
	<path class="st3" d="M1166.7,469.9c-1.3,0-2.3-1.1-2.3-2.3c0-1.3,1.1-2.3,2.3-2.3c1.3,0,2.3,1.1,2.3,2.3c0.1,1.2-0.8,2.3-2.1,2.3
		c0,0-0.1,0-0.1,0H1166.7z"/>
	<path class="st3" d="M1166.7,482.4c-1.3,0-2.3-1.1-2.3-2.3s1.1-2.3,2.3-2.3c1.3,0,2.3,1.1,2.3,2.3
		C1169,481.4,1168,482.4,1166.7,482.4z"/>
	<path class="st3" d="M1166.7,494.8c-1.3,0-2.3-1.1-2.3-2.3s1.1-2.3,2.3-2.3c1.3,0,2.3,1.1,2.3,2.3l0,0
		C1169.1,493.8,1168,494.8,1166.7,494.8C1166.7,494.8,1166.7,494.8,1166.7,494.8z"/>
	<path class="st3" d="M1166.7,507.3c-1.3,0-2.3-1.1-2.3-2.3s1.1-2.3,2.3-2.3c1.3,0,2.3,1.1,2.3,2.3c0.1,1.2-0.8,2.3-2.1,2.3
		c0,0-0.1,0-0.1,0H1166.7z"/>
	<path class="st3" d="M1166.7,519.7c-1.3,0-2.3-1.1-2.3-2.3s1.1-2.3,2.3-2.3c1.3,0,2.3,1.1,2.3,2.3c0,1.2-0.9,2.3-2.2,2.3
		C1166.8,519.7,1166.8,519.7,1166.7,519.7z"/>
	<path class="st3" d="M1166.7,532.2c-1.3,0-2.3-1.1-2.3-2.3s1.1-2.3,2.3-2.3c1.3,0,2.3,1.1,2.3,2.3l0,0c0.1,1.2-0.8,2.3-2.1,2.3
		c0,0-0.1,0-0.1,0H1166.7z"/>
	<path class="st3" d="M1166.7,544.7c-1.3,0-2.3-1.1-2.3-2.3c0-1.3,1.1-2.3,2.3-2.3c1.3,0,2.3,1.1,2.3,2.3l0,0
		c0.1,1.2-0.8,2.3-2.1,2.3c0,0-0.1,0-0.1,0H1166.7z"/>
	<path class="st3" d="M1166.7,557.2c-1.3,0-2.3-1.1-2.3-2.3s1.1-2.3,2.3-2.3c1.3,0,2.3,1.1,2.3,2.3c0.1,1.2-0.8,2.3-2.1,2.3
		c0,0-0.1,0-0.1,0H1166.7z"/>
	<path class="st3" d="M1166.7,569.5c-1.3,0-2.3-1.1-2.3-2.3c0-1.3,1.1-2.3,2.3-2.3c1.3,0,2.3,1.1,2.3,2.3c0.1,1.2-0.9,2.2-2.1,2.3
		H1166.7z"/>
	<path class="st3" d="M1166.7,581.9c-1.3,0-2.3-1.1-2.3-2.3c0-1.3,1.1-2.3,2.3-2.3c1.3,0,2.3,1.1,2.3,2.3l0,0c0,1.2-0.9,2.3-2.2,2.3
		C1166.8,581.9,1166.8,581.9,1166.7,581.9z"/>
	<path class="st3" d="M1166.8,594.4c-1.3,0-2.3-1.1-2.3-2.3s1.1-2.3,2.3-2.3c1.3,0,2.3,1.1,2.3,2.3
		C1169.1,593.4,1168.1,594.4,1166.8,594.4z"/>
	<path class="st3" d="M1166.8,606.9c-1.3,0-2.3-1.1-2.3-2.3s1.1-2.3,2.3-2.3c1.3,0,2.3,1.1,2.3,2.3c0,1.2-0.9,2.2-2.2,2.3H1166.8z"
		/>
	<path class="st3" d="M1154.6,407.7c-1.3,0-2.3-1.1-2.3-2.3c0-1.3,1.1-2.3,2.3-2.3s2.3,1.1,2.3,2.3l0,0
		C1156.9,406.7,1155.9,407.7,1154.6,407.7z"/>
	<path class="st3" d="M1154.6,420.1c-1.3,0-2.3-1.1-2.3-2.3c0-1.3,1.1-2.3,2.3-2.3s2.3,1.1,2.3,2.3
		C1156.9,419.1,1155.9,420.1,1154.6,420.1z"/>
	<path class="st3" d="M1154.6,432.5c-1.3,0-2.3-1.1-2.3-2.3c0-1.3,1.1-2.3,2.3-2.3s2.3,1.1,2.3,2.3
		C1156.9,431.5,1155.9,432.5,1154.6,432.5C1154.6,432.5,1154.6,432.5,1154.6,432.5z"/>
	<path class="st3" d="M1154.6,445.1c-1.3,0-2.3-1.1-2.3-2.3c0-1.3,1.1-2.3,2.3-2.3s2.3,1.1,2.3,2.3l0,0
		C1156.9,444,1155.9,445,1154.6,445.1z"/>
	<path class="st3" d="M1154.6,457.6c-1.3,0-2.3-1.1-2.3-2.3s1.1-2.3,2.3-2.3s2.3,1.1,2.3,2.3
		C1156.9,456.5,1155.9,457.5,1154.6,457.6z"/>
	<path class="st3" d="M1154.6,469.9c-1.3,0-2.3-1.1-2.3-2.3c0-1.3,1.1-2.3,2.3-2.3s2.3,1.1,2.3,2.3
		C1156.9,468.8,1155.9,469.9,1154.6,469.9z"/>
	<path class="st3" d="M1154.6,482.4c-1.3,0-2.3-1.1-2.3-2.3s1.1-2.3,2.3-2.3s2.3,1.1,2.3,2.3l0,0
		C1156.9,481.3,1155.9,482.4,1154.6,482.4C1154.6,482.4,1154.6,482.4,1154.6,482.4z"/>
	<path class="st3" d="M1154.6,494.8c-1.3,0-2.3-1.1-2.3-2.3s1.1-2.3,2.3-2.3s2.3,1.1,2.3,2.3
		C1156.9,493.8,1155.9,494.8,1154.6,494.8C1154.6,494.8,1154.6,494.8,1154.6,494.8z"/>
	<path class="st3" d="M1154.6,507.3c-1.3,0-2.3-1.1-2.3-2.3s1.1-2.3,2.3-2.3s2.3,1.1,2.3,2.3
		C1156.9,506.3,1155.9,507.3,1154.6,507.3z"/>
	<path class="st3" d="M1154.7,519.7c-1.3,0-2.3-1.1-2.3-2.3s1.1-2.3,2.3-2.3c1.3,0,2.3,1.1,2.3,2.3
		C1157,518.6,1156,519.6,1154.7,519.7C1154.7,519.7,1154.7,519.7,1154.7,519.7z"/>
	<path class="st3" d="M1154.7,532.2c-1.3,0-2.3-1.1-2.3-2.3s1.1-2.3,2.3-2.3c1.3,0,2.3,1.1,2.3,2.3l0,0
		C1157,531.1,1156,532.2,1154.7,532.2z"/>
	<path class="st3" d="M1154.7,544.7c-1.3,0-2.3-1.1-2.3-2.3c0-1.3,1.1-2.3,2.3-2.3c1.3,0,2.3,1.1,2.3,2.3
		C1157,543.6,1156,544.6,1154.7,544.7z"/>
	<path class="st3" d="M1154.7,557.2c-1.3,0-2.3-1.1-2.3-2.3s1.1-2.3,2.3-2.3c1.3,0,2.3,1.1,2.3,2.3
		C1157,556.1,1156,557.2,1154.7,557.2z"/>
	<path class="st3" d="M1154.7,569.5c-1.3,0-2.3-1.1-2.3-2.3c0-1.3,1.1-2.3,2.3-2.3c1.3,0,2.3,1.1,2.3,2.3l0,0
		c0.1,1.2-0.8,2.3-2.1,2.3c0,0-0.1,0-0.1,0H1154.7z"/>
	<path class="st3" d="M1154.7,581.9c-1.3,0-2.3-1.1-2.3-2.3c0-1.3,1.1-2.3,2.3-2.3c1.3,0,2.3,1.1,2.3,2.3
		C1157,580.9,1156,581.9,1154.7,581.9C1154.7,581.9,1154.7,581.9,1154.7,581.9z"/>
	<path class="st3" d="M1154.7,594.4c-1.3,0-2.3-1.1-2.3-2.3s1.1-2.3,2.3-2.3c1.3,0,2.3,1.1,2.3,2.3
		C1157,593.4,1156,594.4,1154.7,594.4C1154.7,594.4,1154.7,594.4,1154.7,594.4z"/>
	<path class="st3" d="M1154.7,606.9c-1.3,0-2.3-1.1-2.3-2.3s1.1-2.3,2.3-2.3c1.3,0,2.3,1.1,2.3,2.3l0,0c0,1.2-0.9,2.3-2.2,2.3
		C1154.8,606.9,1154.7,606.9,1154.7,606.9C1154.8,607,1154.7,607,1154.7,606.9z"/>
	<path class="st3" d="M1263.5,618.6c-1.3,0-2.3-1.1-2.3-2.3c0-1.3,1.1-2.3,2.3-2.3s2.3,1.1,2.3,2.3l0,0c0,1.2-0.9,2.3-2.2,2.3
		C1263.6,618.6,1263.6,618.6,1263.5,618.6z"/>
	<circle class="st3" cx="1263.5" cy="628.7" r="2.3"/>
	<path class="st3" d="M1263.6,643.4c-1.3,0-2.3-1.1-2.3-2.3c0-1.3,1.1-2.3,2.3-2.3s2.3,1.1,2.3,2.3
		C1265.9,642.4,1264.9,643.4,1263.6,643.4z"/>
	<path class="st3" d="M1263.6,655.9c-1.3,0-2.3-1.1-2.3-2.3c0-1.3,1.1-2.3,2.3-2.3s2.3,1.1,2.3,2.3l0,0
		C1265.9,654.9,1264.9,655.9,1263.6,655.9z"/>
	<path class="st3" d="M1263.6,668.5c-1.3,0-2.3-1.1-2.3-2.3c0-1.3,1.1-2.3,2.3-2.3s2.3,1.1,2.3,2.3l0,0
		C1265.9,667.4,1264.9,668.4,1263.6,668.5z"/>
	<path class="st3" d="M1263.6,680.9c-1.3,0-2.3-1.1-2.3-2.3c0-1.3,1.1-2.3,2.3-2.3s2.3,1.1,2.3,2.3
		C1265.9,679.8,1264.9,680.9,1263.6,680.9z"/>
	<path class="st3" d="M1263.6,693.3c-1.3,0-2.3-1.1-2.3-2.3c0-1.3,1.1-2.3,2.3-2.3s2.3,1.1,2.3,2.3
		C1265.9,692.2,1264.9,693.3,1263.6,693.3z"/>
	<path class="st3" d="M1263.6,705.8c-1.3,0-2.3-1.1-2.3-2.3c0-1.3,1.1-2.3,2.3-2.3s2.3,1.1,2.3,2.3l0,0
		C1265.9,704.7,1264.9,705.8,1263.6,705.8z"/>
	<path class="st3" d="M1263.6,718.2c-1.3,0-2.3-1.1-2.3-2.3c0-1.3,1.1-2.3,2.3-2.3s2.3,1.1,2.3,2.3
		C1265.9,717.2,1264.9,718.2,1263.6,718.2z"/>
	<path class="st3" d="M1263.6,730.7c-1.3,0-2.3-1.1-2.3-2.3s1.1-2.3,2.3-2.3s2.3,1.1,2.3,2.3
		C1265.9,729.7,1264.9,730.7,1263.6,730.7z"/>
	<path class="st3" d="M1263.6,743.2c-1.3,0-2.3-1.1-2.3-2.3s1.1-2.3,2.3-2.3s2.3,1.1,2.3,2.3l0,0
		C1265.9,742.1,1264.9,743.1,1263.6,743.2z"/>
	<path class="st3" d="M1263.6,755.6c-1.3,0-2.3-1.1-2.3-2.3s1.1-2.3,2.3-2.3s2.3,1.1,2.3,2.3l0,0
		C1265.9,754.5,1264.9,755.6,1263.6,755.6z"/>
	<path class="st3" d="M1263.6,768c-1.3,0-2.3-1.1-2.3-2.3s1.1-2.3,2.3-2.3s2.3,1.1,2.3,2.3C1266,766.9,1264.9,768,1263.6,768
		C1263.6,768,1263.6,768,1263.6,768z"/>
	<path class="st3" d="M1263.7,780.5c-1.3,0-2.3-1.1-2.3-2.4c0-1.3,1-2.3,2.3-2.3c1.3,0.1,2.3,1.1,2.3,2.3
		C1266,779.4,1265,780.5,1263.7,780.5z"/>
	<circle class="st3" cx="1263.7" cy="790.6" r="2.3"/>
	<path class="st3" d="M1263.7,805.3c-1.3,0-2.3-1.1-2.3-2.3c0-1.3,1.1-2.3,2.3-2.3s2.3,1.1,2.3,2.3
		C1266,804.3,1265,805.3,1263.7,805.3z"/>
	<path class="st3" d="M1263.7,817.7c-1.3,0-2.3-1.1-2.3-2.3c0-1.3,1.1-2.3,2.3-2.3s2.3,1.1,2.3,2.3
		C1266.1,816.7,1265,817.7,1263.7,817.7C1263.7,817.7,1263.7,817.7,1263.7,817.7z"/>
	<path class="st3" d="M1251.5,618.6c-1.3,0-2.3-1.1-2.3-2.3c0-1.3,1.1-2.3,2.3-2.3s2.3,1.1,2.3,2.3
		C1253.8,617.5,1252.8,618.6,1251.5,618.6C1251.5,618.6,1251.5,618.6,1251.5,618.6z"/>
	<path class="st3" d="M1251.5,631.1c-1.3,0-2.3-1.1-2.3-2.3c0-1.3,1.1-2.3,2.3-2.3s2.3,1.1,2.3,2.3
		C1253.8,630.1,1252.8,631.1,1251.5,631.1z"/>
	<path class="st3" d="M1251.5,643.5c-1.3,0-2.3-1.1-2.3-2.3c0-1.3,1.1-2.3,2.3-2.3s2.3,1.1,2.3,2.3
		C1253.8,642.5,1252.7,643.5,1251.5,643.5z"/>
	<path class="st3" d="M1251.5,655.9c-1.3,0-2.3-1.1-2.3-2.3c0-1.3,1.1-2.3,2.3-2.3s2.3,1.1,2.3,2.3l0,0
		C1253.8,654.9,1252.8,655.9,1251.5,655.9z"/>
	<path class="st3" d="M1251.5,668.5c-1.3,0-2.3-1.1-2.3-2.3c0-1.3,1.1-2.3,2.3-2.3s2.3,1.1,2.3,2.3
		C1253.8,667.4,1252.8,668.4,1251.5,668.5z"/>
	<path class="st3" d="M1251.5,680.9c-1.3,0-2.3-1.1-2.3-2.3c0-1.3,1.1-2.3,2.3-2.3s2.3,1.1,2.3,2.3
		C1253.8,679.8,1252.8,680.9,1251.5,680.9C1251.5,680.9,1251.5,680.9,1251.5,680.9z"/>
	<path class="st3" d="M1251.5,693.3c-1.3,0-2.3-1.1-2.3-2.3c0-1.3,1.1-2.3,2.3-2.3s2.3,1.1,2.3,2.3l0,0
		C1253.8,692.2,1252.8,693.3,1251.5,693.3z"/>
	<path class="st3" d="M1251.5,705.8c-1.3,0-2.3-1.1-2.3-2.3c0-1.3,1.1-2.3,2.3-2.3s2.3,1.1,2.3,2.3
		C1253.8,704.7,1252.8,705.8,1251.5,705.8z"/>
	<path class="st3" d="M1251.5,718.2c-1.3,0-2.3-1.1-2.3-2.3c0-1.3,1.1-2.3,2.3-2.3s2.3,1.1,2.3,2.3
		C1253.8,717.2,1252.8,718.2,1251.5,718.2C1251.5,718.2,1251.5,718.2,1251.5,718.2z"/>
	<path class="st3" d="M1251.5,730.7c-1.3,0-2.3-1.1-2.3-2.3c0-1.3,1.1-2.3,2.3-2.3s2.3,1.1,2.3,2.3l0,0
		C1253.8,729.7,1252.8,730.7,1251.5,730.7z"/>
	<path class="st3" d="M1251.6,743.2c-1.3,0-2.3-1.1-2.3-2.3c0-1.3,1.1-2.3,2.3-2.3s2.3,1.1,2.3,2.3l0,0
		C1253.9,742.1,1252.8,743.1,1251.6,743.2z"/>
	<path class="st3" d="M1251.6,755.6c-1.3,0-2.3-1.1-2.3-2.3c0-1.3,1.1-2.3,2.3-2.3s2.3,1.1,2.3,2.3
		C1253.9,754.5,1252.8,755.5,1251.6,755.6z"/>
	<path class="st3" d="M1251.6,768c-1.3,0-2.3-1.1-2.3-2.3c0-1.3,1.1-2.3,2.3-2.3s2.3,1.1,2.3,2.3
		C1253.9,766.9,1252.9,768,1251.6,768C1251.6,768,1251.6,768,1251.6,768z"/>
	<path class="st3" d="M1251.6,780.5c-1.3,0-2.3-1.1-2.3-2.3c0-1.3,1.1-2.3,2.3-2.3s2.3,1.1,2.3,2.3l0,0
		C1253.9,779.4,1252.9,780.5,1251.6,780.5z"/>
	<path class="st3" d="M1251.6,792.9c-1.3,0-2.3-1.1-2.3-2.3c0-1.3,1.1-2.3,2.3-2.3s2.3,1.1,2.3,2.3
		C1253.9,791.8,1252.9,792.9,1251.6,792.9C1251.6,792.9,1251.6,792.9,1251.6,792.9z"/>
	<path class="st3" d="M1251.6,805.3c-1.3,0-2.3-1.1-2.3-2.3c0-1.3,1.1-2.3,2.3-2.3s2.3,1.1,2.3,2.3
		C1253.9,804.3,1252.9,805.3,1251.6,805.3z"/>
	<path class="st3" d="M1251.6,817.8c-1.3,0-2.3-1.1-2.3-2.3c0-1.3,1.1-2.3,2.3-2.3s2.3,1.1,2.3,2.3l0,0
		C1253.9,816.8,1252.8,817.8,1251.6,817.8z"/>
	<path class="st3" d="M1239.3,618.6c-1.3,0-2.3-1.1-2.3-2.3c0-1.3,1.1-2.3,2.3-2.3c1.3,0,2.3,1.1,2.3,2.3
		C1241.7,617.5,1240.7,618.6,1239.3,618.6C1239.4,618.6,1239.4,618.6,1239.3,618.6z"/>
	<path class="st3" d="M1239.3,631.1c-1.3,0-2.3-1.1-2.3-2.3c0-1.3,1.1-2.3,2.3-2.3c1.3,0,2.3,1.1,2.3,2.3
		C1241.7,630.1,1240.6,631.1,1239.3,631.1z"/>
	<path class="st3" d="M1239.3,643.5c-1.3,0-2.3-1.1-2.3-2.3c0-1.3,1.1-2.3,2.3-2.3c1.3,0,2.3,1.1,2.3,2.3l0,0
		C1241.7,642.5,1240.7,643.5,1239.3,643.5C1239.4,643.5,1239.4,643.5,1239.3,643.5z"/>
	<path class="st3" d="M1239.4,655.9c-1.3,0-2.3-1.1-2.3-2.3c0-1.3,1.1-2.3,2.3-2.3c1.3,0,2.3,1.1,2.3,2.3
		C1241.7,654.9,1240.7,655.9,1239.4,655.9z"/>
	<path class="st3" d="M1239.4,668.5c-1.3,0-2.3-1.1-2.3-2.3c0-1.3,1.1-2.3,2.3-2.3c1.3,0,2.3,1.1,2.3,2.3
		C1241.7,667.4,1240.7,668.4,1239.4,668.5z"/>
	<path class="st3" d="M1239.4,680.9c-1.3,0-2.3-1.1-2.3-2.3c0-1.3,1.1-2.3,2.3-2.3c1.3,0,2.3,1.1,2.3,2.3l0,0
		C1241.8,679.8,1240.7,680.9,1239.4,680.9z"/>
	<path class="st3" d="M1239.4,693.3c-1.3,0-2.3-1.1-2.3-2.3c0-1.3,1.1-2.3,2.3-2.3c1.3,0,2.3,1.1,2.3,2.3l0,0
		C1241.7,692.2,1240.7,693.2,1239.4,693.3z"/>
	<path class="st3" d="M1239.4,705.8c-1.3,0-2.3-1.1-2.3-2.3c0-1.3,1.1-2.3,2.3-2.3c1.3,0,2.3,1.1,2.3,2.3
		C1241.7,704.7,1240.7,705.8,1239.4,705.8z"/>
	<path class="st3" d="M1239.4,718.2c-1.3,0-2.3-1.1-2.3-2.3c0-1.3,1.1-2.3,2.3-2.3c1.3,0,2.3,1.1,2.3,2.3
		C1241.8,717.2,1240.7,718.2,1239.4,718.2z"/>
	<path class="st3" d="M1239.4,730.7c-1.3,0-2.3-1.1-2.3-2.3s1.1-2.3,2.3-2.3c1.3,0,2.3,1.1,2.3,2.3l0,0
		C1241.7,729.7,1240.7,730.7,1239.4,730.7z"/>
	<path class="st3" d="M1239.4,743.2c-1.3,0-2.3-1.1-2.3-2.3s1.1-2.3,2.3-2.3c1.3,0,2.3,1.1,2.3,2.3
		C1241.8,742.1,1240.7,743.1,1239.4,743.2z"/>
	<path class="st3" d="M1239.4,755.6c-1.3,0-2.3-1.1-2.3-2.3s1.1-2.3,2.3-2.3c1.3,0,2.3,1.1,2.3,2.3
		C1241.8,754.5,1240.7,755.6,1239.4,755.6z"/>
	<path class="st3" d="M1239.4,768c-1.3,0-2.3-1.1-2.3-2.3s1.1-2.3,2.3-2.3c1.3,0,2.3,1.1,2.3,2.3l0,0
		C1241.8,766.9,1240.8,768,1239.4,768C1239.5,768,1239.5,768,1239.4,768z"/>
	<path class="st3" d="M1239.4,780.5c-1.3,0-2.3-1.1-2.3-2.3c0-1.3,1.1-2.3,2.3-2.3c1.3,0,2.3,1.1,2.3,2.3l0,0
		C1241.8,779.4,1240.7,780.5,1239.4,780.5z"/>
	<path class="st3" d="M1239.4,792.9c-1.3,0-2.3-1.1-2.3-2.3c0-1.3,1.1-2.3,2.3-2.3c1.3,0,2.3,1.1,2.3,2.3c0,1.2-0.9,2.3-2.2,2.3
		C1239.6,792.9,1239.5,792.9,1239.4,792.9z"/>
	<path class="st3" d="M1239.4,805.3c-1.3,0-2.3-1.1-2.3-2.3c0-1.3,1.1-2.3,2.3-2.3c1.3,0,2.3,1.1,2.3,2.3
		C1241.8,804.3,1240.8,805.3,1239.4,805.3C1239.5,805.3,1239.5,805.3,1239.4,805.3z"/>
	<path class="st3" d="M1239.4,817.8c-1.3,0-2.3-1.1-2.3-2.3c0-1.3,1.1-2.3,2.3-2.3c1.3,0,2.3,1.1,2.3,2.3l0,0
		C1241.8,816.8,1240.7,817.8,1239.4,817.8z"/>
	<path class="st3" d="M1227.3,618.7c-1.3,0-2.3-1.1-2.3-2.3c0-1.3,1.1-2.3,2.3-2.3c1.3,0,2.3,1.1,2.3,2.3
		C1229.6,617.6,1228.6,618.6,1227.3,618.7z"/>
	<circle class="st3" cx="1227.2" cy="628.8" r="2.3"/>
	<path class="st3" d="M1227.3,643.5c-1.3,0-2.3-1.1-2.3-2.3c0-1.3,1.1-2.3,2.3-2.3c1.3,0,2.3,1.1,2.3,2.3l0,0
		C1229.7,642.5,1228.6,643.5,1227.3,643.5z"/>
	<path class="st3" d="M1227.3,655.9c-1.3,0-2.3-1.1-2.3-2.3c0-1.3,1.1-2.3,2.3-2.3c1.3,0,2.3,1.1,2.3,2.3
		C1229.7,654.9,1228.7,655.9,1227.3,655.9C1227.4,655.9,1227.3,655.9,1227.3,655.9z"/>
	<path class="st3" d="M1227.3,668.5c-1.3,0-2.3-1.1-2.3-2.3c0-1.3,1.1-2.3,2.3-2.3c1.3,0,2.3,1.1,2.3,2.3
		C1229.7,667.4,1228.6,668.4,1227.3,668.5z"/>
	<path class="st3" d="M1227.3,680.9c-1.3,0-2.3-1.1-2.3-2.3c0-1.3,1.1-2.3,2.3-2.3c1.3,0,2.3,1.1,2.3,2.3
		C1229.7,679.8,1228.7,680.9,1227.3,680.9C1227.4,680.9,1227.3,680.9,1227.3,680.9z"/>
	<path class="st3" d="M1227.3,693.3c-1.3,0-2.3-1.1-2.3-2.3c0-1.3,1.1-2.3,2.3-2.3c1.3,0,2.3,1.1,2.3,2.3
		C1229.7,692.2,1228.6,693.3,1227.3,693.3z"/>
	<path class="st3" d="M1227.3,705.8c-1.3,0-2.3-1.1-2.3-2.3c0-1.3,1.1-2.3,2.3-2.3c1.3,0,2.3,1.1,2.3,2.3
		C1229.6,704.7,1228.6,705.8,1227.3,705.8z"/>
	<path class="st3" d="M1227.3,718.2c-1.3,0-2.3-1.1-2.3-2.3c0-1.3,1.1-2.3,2.3-2.3c1.3,0,2.3,1.1,2.3,2.3l0,0
		C1229.7,717.2,1228.6,718.2,1227.3,718.2z"/>
	<path class="st3" d="M1227.3,730.7c-1.3,0-2.3-1.1-2.3-2.3s1.1-2.3,2.3-2.3c1.3,0,2.3,1.1,2.3,2.3
		C1229.7,729.7,1228.7,730.7,1227.3,730.7C1227.4,730.7,1227.3,730.7,1227.3,730.7z"/>
	<path class="st3" d="M1227.3,743.2c-1.3,0-2.3-1.1-2.3-2.3s1.1-2.3,2.3-2.3c1.3,0,2.3,1.1,2.3,2.3c0,1.2-0.9,2.3-2.2,2.3
		C1227.4,743.2,1227.4,743.2,1227.3,743.2z"/>
	<path class="st3" d="M1227.3,755.6c-1.3,0-2.3-1.1-2.3-2.3s1.1-2.3,2.3-2.3c1.3,0,2.3,1.1,2.3,2.3
		C1229.7,754.5,1228.7,755.6,1227.3,755.6C1227.4,755.6,1227.3,755.6,1227.3,755.6z"/>
	<path class="st3" d="M1227.4,768c-1.3,0-2.3-1.1-2.3-2.3s1.1-2.3,2.3-2.3c1.3,0,2.3,1.1,2.3,2.3l0,0
		C1229.7,766.9,1228.7,768,1227.4,768z"/>
	<path class="st3" d="M1227.4,780.5c-1.3,0-2.3-1.1-2.3-2.3c0-1.3,1.1-2.3,2.3-2.3c1.3,0,2.3,1.1,2.3,2.3
		C1229.7,779.4,1228.7,780.4,1227.4,780.5z"/>
	<circle class="st3" cx="1227.3" cy="790.6" r="2.3"/>
	<path class="st3" d="M1227.4,805.3c-1.3,0-2.3-1.1-2.3-2.3c0-1.3,1.1-2.3,2.3-2.3c1.3,0,2.3,1.1,2.3,2.3l0,0
		C1229.7,804.3,1228.7,805.3,1227.4,805.3z"/>
	<path class="st3" d="M1227.4,817.8c-1.3,0-2.3-1.1-2.3-2.3c0-1.3,1.1-2.3,2.3-2.3c1.3,0,2.3,1.1,2.3,2.3
		C1229.7,816.8,1228.7,817.8,1227.4,817.8z"/>
	<path class="st3" d="M1215.2,618.7c-1.3,0-2.3-1.1-2.3-2.3c0-1.3,1.1-2.3,2.3-2.3s2.3,1.1,2.3,2.3l0,0
		C1217.5,617.6,1216.5,618.6,1215.2,618.7z"/>
	<path class="st3" d="M1215.2,631.1c-1.3,0-2.3-1.1-2.3-2.3c0-1.3,1.1-2.3,2.3-2.3s2.3,1.1,2.3,2.3l0,0
		C1217.5,630,1216.5,631.1,1215.2,631.1z"/>
	<path class="st3" d="M1215.2,643.5c-1.3,0-2.3-1.1-2.3-2.3c0-1.3,1.1-2.3,2.3-2.3s2.3,1.1,2.3,2.3
		C1217.5,642.5,1216.5,643.5,1215.2,643.5z"/>
	<path class="st3" d="M1215.2,655.9c-1.3,0-2.3-1.1-2.3-2.3c0-1.3,1.1-2.3,2.3-2.3s2.3,1.1,2.3,2.3
		C1217.6,654.9,1216.5,655.9,1215.2,655.9C1215.2,655.9,1215.2,655.9,1215.2,655.9z"/>
	<path class="st3" d="M1215.2,668.5c-1.3,0-2.3-1.1-2.3-2.3c0-1.3,1.1-2.3,2.3-2.3s2.3,1.1,2.3,2.3l0,0
		C1217.6,667.4,1216.5,668.4,1215.2,668.5C1215.2,668.5,1215.2,668.5,1215.2,668.5z"/>
	<path class="st3" d="M1215.3,680.9c-1.3,0-2.3-1.1-2.3-2.3c0-1.3,1.1-2.3,2.3-2.3s2.3,1.1,2.3,2.3
		C1217.6,679.8,1216.6,680.9,1215.3,680.9z"/>
	<path class="st3" d="M1215.3,693.3c-1.3,0-2.3-1.1-2.3-2.3c0-1.3,1.1-2.3,2.3-2.3s2.3,1.1,2.3,2.3
		C1217.6,692.2,1216.6,693.2,1215.3,693.3z"/>
	<path class="st3" d="M1215.3,705.8c-1.3,0-2.3-1.1-2.3-2.3c0-1.3,1.1-2.3,2.3-2.3s2.3,1.1,2.3,2.3l0,0
		C1217.6,704.7,1216.6,705.7,1215.3,705.8z"/>
	<path class="st3" d="M1215.3,718.2c-1.3,0-2.3-1.1-2.3-2.3c0-1.3,1.1-2.3,2.3-2.3s2.3,1.1,2.3,2.3l0,0
		C1217.6,717.1,1216.6,718.2,1215.3,718.2z"/>
	<path class="st3" d="M1215.3,730.7c-1.3,0-2.3-1.1-2.3-2.3s1.1-2.3,2.3-2.3s2.3,1.1,2.3,2.3
		C1217.6,729.7,1216.6,730.7,1215.3,730.7z"/>
	<path class="st3" d="M1215.3,743.2c-1.3,0-2.3-1.1-2.3-2.3s1.1-2.3,2.3-2.3s2.3,1.1,2.3,2.3
		C1217.7,742.1,1216.6,743.1,1215.3,743.2C1215.3,743.2,1215.3,743.2,1215.3,743.2z"/>
	<path class="st3" d="M1215.3,755.6c-1.3,0-2.3-1.1-2.3-2.3s1.1-2.3,2.3-2.3s2.3,1.1,2.3,2.3l0,0
		C1217.6,754.5,1216.6,755.6,1215.3,755.6z"/>
	<path class="st3" d="M1215.3,768c-1.3,0-2.3-1.1-2.3-2.3s1.1-2.3,2.3-2.3s2.3,1.1,2.3,2.3C1217.7,766.9,1216.6,768,1215.3,768
		C1215.3,768,1215.3,768,1215.3,768z"/>
	<path class="st3" d="M1215.3,780.5c-1.3,0-2.3-1.1-2.3-2.3c0-1.3,1.1-2.3,2.3-2.3s2.3,1.1,2.3,2.3
		C1217.6,779.4,1216.6,780.5,1215.3,780.5z"/>
	<path class="st3" d="M1215.3,793c-1.3,0-2.3-1.1-2.3-2.3c0-1.3,1.1-2.3,2.3-2.3s2.3,1.1,2.3,2.3l0,0
		C1217.6,792,1216.6,793,1215.3,793z"/>
	<path class="st3" d="M1215.3,805.3c-1.3,0-2.3-1.1-2.3-2.3c0-1.3,1.1-2.3,2.3-2.3s2.3,1.1,2.3,2.3l0,0
		C1217.6,804.3,1216.6,805.3,1215.3,805.3z"/>
	<path class="st3" d="M1215.3,817.8c-1.3,0-2.3-1.1-2.3-2.3c0-1.3,1.1-2.3,2.3-2.3s2.3,1.1,2.3,2.3
		C1217.7,816.8,1216.6,817.8,1215.3,817.8C1215.3,817.8,1215.3,817.8,1215.3,817.8z"/>
	<path class="st3" d="M1203.1,618.7c-1.3,0-2.3-1.1-2.3-2.3s1.1-2.3,2.3-2.3c1.3,0,2.3,1.1,2.3,2.3l0,0
		C1205.4,617.6,1204.4,618.7,1203.1,618.7C1203.1,618.7,1203.1,618.7,1203.1,618.7z"/>
	<path class="st3" d="M1203.2,631.1c-1.3,0-2.3-1.1-2.3-2.3c0-1.3,1.1-2.3,2.3-2.3c1.3,0,2.3,1.1,2.3,2.3
		C1205.5,630.1,1204.5,631.1,1203.2,631.1z"/>
	<path class="st3" d="M1203.2,643.5c-1.3,0-2.3-1.1-2.3-2.3c0-1.3,1.1-2.3,2.3-2.3c1.3,0,2.3,1.1,2.3,2.3
		C1205.5,642.5,1204.4,643.5,1203.2,643.5z"/>
	<path class="st3" d="M1203.2,655.9c-1.3,0-2.3-1.1-2.3-2.3c0-1.3,1.1-2.3,2.3-2.3c1.3,0,2.3,1.1,2.3,2.3l0,0
		C1205.5,654.9,1204.5,655.9,1203.2,655.9z"/>
	<path class="st3" d="M1203.2,668.5c-1.3,0-2.3-1.1-2.3-2.3s1.1-2.3,2.3-2.3c1.3,0,2.3,1.1,2.3,2.3
		C1205.5,667.4,1204.5,668.4,1203.2,668.5z"/>
	<path class="st3" d="M1203.2,681c-1.3,0-2.3-1.1-2.3-2.3s1.1-2.3,2.3-2.3c1.3,0,2.3,1.1,2.3,2.3
		C1205.5,679.9,1204.4,680.9,1203.2,681z"/>
	<path class="st3" d="M1203.2,693.3c-1.3,0-2.3-1.1-2.3-2.3s1.1-2.3,2.3-2.3c1.3,0,2.3,1.1,2.3,2.3
		C1205.5,692.2,1204.5,693.3,1203.2,693.3z"/>
	<path class="st3" d="M1203.2,705.8c-1.3,0-2.3-1.1-2.3-2.3s1.1-2.3,2.3-2.3c1.3,0,2.3,1.1,2.3,2.3l0,0
		C1205.5,704.7,1204.4,705.8,1203.2,705.8z"/>
	<path class="st3" d="M1203.2,718.2c-1.3,0-2.3-1.1-2.3-2.3s1.1-2.3,2.3-2.3c1.3,0,2.3,1.1,2.3,2.3
		C1205.5,717.2,1204.5,718.2,1203.2,718.2C1203.2,718.2,1203.2,718.2,1203.2,718.2z"/>
	<path class="st3" d="M1203.2,730.7c-1.3,0-2.3-1.1-2.3-2.3c0-1.3,1.1-2.3,2.3-2.3c1.3,0,2.3,1.1,2.3,2.3
		C1205.5,729.7,1204.5,730.7,1203.2,730.7z"/>
	<path class="st3" d="M1203.2,743.2c-1.3,0-2.3-1.1-2.3-2.3c0-1.3,1.1-2.3,2.3-2.3c1.3,0,2.3,1.1,2.3,2.3l0,0
		C1205.5,742.1,1204.5,743.1,1203.2,743.2C1203.2,743.2,1203.2,743.2,1203.2,743.2z"/>
	<path class="st3" d="M1203.2,755.6c-1.3,0-2.3-1.1-2.3-2.3c0-1.3,1.1-2.3,2.3-2.3c1.3,0,2.3,1.1,2.3,2.3
		C1205.5,754.5,1204.5,755.6,1203.2,755.6C1203.2,755.6,1203.2,755.6,1203.2,755.6z"/>
	<path class="st3" d="M1203.3,768.1c-1.3,0-2.3-1.1-2.3-2.3s1.1-2.3,2.3-2.3c1.3,0,2.3,1.1,2.3,2.3
		C1205.5,767,1204.5,768,1203.3,768.1z"/>
	<path class="st3" d="M1203.3,780.5c-1.3,0-2.3-1.1-2.3-2.3s1.1-2.3,2.3-2.3c1.3,0,2.3,1.1,2.3,2.3l0,0
		C1205.6,779.4,1204.5,780.4,1203.3,780.5z"/>
	<path class="st3" d="M1203.3,793c-1.3,0-2.3-1.1-2.3-2.3c0-1.3,1.1-2.3,2.3-2.3c1.3,0,2.3,1.1,2.3,2.3l0,0
		C1205.6,791.9,1204.5,793,1203.3,793z"/>
	<path class="st3" d="M1203.3,805.3c-1.3,0-2.3-1.1-2.3-2.3s1.1-2.3,2.3-2.3c1.3,0,2.3,1.1,2.3,2.3
		C1205.6,804.3,1204.6,805.3,1203.3,805.3z"/>
	<path class="st3" d="M1203.3,817.8c-1.3,0-2.3-1.1-2.3-2.3c0-1.3,1.1-2.3,2.3-2.3c1.3,0,2.3,1.1,2.3,2.3
		C1205.6,816.8,1204.5,817.8,1203.3,817.8z"/>
	<path class="st3" d="M1191,618.7c-1.3,0-2.3-1.1-2.3-2.3s1.1-2.3,2.3-2.3c1.3,0,2.3,1.1,2.3,2.3
		C1193.3,617.6,1192.3,618.7,1191,618.7C1191,618.7,1191,618.7,1191,618.7z"/>
	<circle class="st3" cx="1191" cy="628.7" r="2.3"/>
	<path class="st3" d="M1191,643.5c-1.3,0-2.3-1.1-2.3-2.3c0-1.3,1.1-2.3,2.3-2.3c1.3,0,2.3,1.1,2.3,2.3l0,0
		C1193.3,642.5,1192.3,643.5,1191,643.5C1191,643.5,1191,643.5,1191,643.5z"/>
	<path class="st3" d="M1191,656c-1.3,0-2.3-1.1-2.3-2.3s1.1-2.3,2.3-2.3c1.3,0,2.3,1.1,2.3,2.3l0,0c0.1,1.2-0.8,2.3-2.1,2.3
		c0,0-0.1,0-0.1,0H1191z"/>
	<path class="st3" d="M1191,668.5c-1.3,0-2.3-1.1-2.3-2.3s1.1-2.3,2.3-2.3c1.3,0,2.3,1.1,2.3,2.3c0.1,1.2-0.8,2.3-2.1,2.3
		c0,0-0.1,0-0.1,0H1191z"/>
	<path class="st3" d="M1191,681c-1.3,0-2.3-1.1-2.3-2.3s1.1-2.3,2.3-2.3c1.3,0,2.3,1.1,2.3,2.3C1193.3,679.9,1192.3,681,1191,681
		C1191,681,1191,681,1191,681z"/>
	<path class="st3" d="M1191,693.3c-1.3,0-2.3-1.1-2.3-2.3s1.1-2.3,2.3-2.3c1.3,0,2.3,1.1,2.3,2.3l0,0
		C1193.3,692.2,1192.3,693.3,1191,693.3C1191,693.3,1191,693.3,1191,693.3z"/>
	<path class="st3" d="M1191,705.8c-1.3,0-2.3-1.1-2.3-2.3s1.1-2.3,2.3-2.3s2.3,1.1,2.3,2.3c0.1,1.2-0.8,2.3-2.1,2.3c0,0-0.1,0-0.1,0
		H1191z"/>
	<path class="st3" d="M1191,718.2c-1.3,0-2.3-1.1-2.3-2.3s1.1-2.3,2.3-2.3s2.3,1.1,2.3,2.3c0,1.2-0.9,2.2-2.2,2.3H1191z"/>
	<path class="st3" d="M1191,730.7c-1.3,0-2.3-1.1-2.3-2.3c0-1.3,1.1-2.3,2.3-2.3s2.3,1.1,2.3,2.3l0,0c0.1,1.2-0.8,2.3-2.1,2.3
		c0,0-0.1,0-0.1,0H1191z"/>
	<path class="st3" d="M1191,743.2c-1.3,0-2.3-1.1-2.3-2.3s1.1-2.3,2.3-2.3s2.3,1.1,2.3,2.3l0,0
		C1193.3,742.2,1192.3,743.2,1191,743.2z"/>
	<path class="st3" d="M1191,755.7c-1.3,0-2.3-1.1-2.3-2.3s1.1-2.3,2.3-2.3s2.3,1.1,2.3,2.3c0.1,1.2-0.8,2.3-2.1,2.3c0,0-0.1,0-0.1,0
		H1191z"/>
	<path class="st3" d="M1191,768.1c-1.3,0-2.3-1.1-2.3-2.3s1.1-2.3,2.3-2.3s2.3,1.1,2.3,2.3c0.1,1.2-0.8,2.3-2.1,2.3c0,0-0.1,0-0.1,0
		H1191z"/>
	<path class="st3" d="M1191,780.5c-1.3,0-2.3-1.1-2.3-2.3s1.1-2.3,2.3-2.3s2.3,1.1,2.3,2.3l0,0
		C1193.4,779.4,1192.4,780.5,1191,780.5C1191.1,780.5,1191.1,780.5,1191,780.5z"/>
	<circle class="st3" cx="1191" cy="790.6" r="2.3"/>
	<path class="st3" d="M1191,805.3c-1.3,0-2.3-1.1-2.3-2.3s1.1-2.3,2.3-2.3s2.3,1.1,2.3,2.3c0.1,1.2-0.8,2.3-2.1,2.3c0,0-0.1,0-0.1,0
		H1191z"/>
	<path class="st3" d="M1191,817.8c-1.3,0-2.3-1.1-2.3-2.3c0-1.3,1.1-2.3,2.3-2.3s2.3,1.1,2.3,2.3l0,0c0.1,1.2-0.8,2.3-2.1,2.3
		c0,0-0.1,0-0.1,0H1191z"/>
	<path class="st3" d="M1178.8,618.7c-1.3,0-2.3-1.1-2.3-2.3s1.1-2.3,2.3-2.3c1.3,0,2.3,1.1,2.3,2.3
		C1181.2,617.6,1180.2,618.7,1178.8,618.7C1178.9,618.7,1178.8,618.7,1178.8,618.7z"/>
	<path class="st3" d="M1178.8,631.1c-1.3,0-2.3-1.1-2.3-2.3c0-1.3,1.1-2.3,2.3-2.3c1.3,0,2.3,1.1,2.3,2.3c0,1.2-0.9,2.3-2.2,2.3
		C1178.9,631.1,1178.9,631.1,1178.8,631.1z"/>
	<path class="st3" d="M1178.8,643.5c-1.3,0-2.3-1.1-2.3-2.3c0-1.3,1.1-2.3,2.3-2.3c1.3,0,2.3,1.1,2.3,2.3l0,0c0,1.2-0.9,2.3-2.2,2.3
		C1178.9,643.5,1178.9,643.5,1178.8,643.5z"/>
	<path class="st3" d="M1178.9,656c-1.3,0-2.3-1.1-2.3-2.3s1.1-2.3,2.3-2.3s2.3,1.1,2.3,2.3c0.1,1.2-0.8,2.3-2.1,2.3c0,0-0.1,0-0.1,0
		H1178.9z"/>
	<path class="st3" d="M1178.9,668.5c-1.3,0-2.3-1.1-2.3-2.3s1.1-2.3,2.3-2.3s2.3,1.1,2.3,2.3c0.1,1.2-0.8,2.3-2.1,2.3
		c0,0-0.1,0-0.1,0H1178.9z"/>
	<path class="st3" d="M1178.9,681c-1.3,0-2.3-1.1-2.3-2.3s1.1-2.3,2.3-2.3s2.3,1.1,2.3,2.3l0,0C1181.3,679.9,1180.2,681,1178.9,681z
		"/>
	<path class="st3" d="M1178.9,693.3c-1.3,0-2.3-1.1-2.3-2.3s1.1-2.3,2.3-2.3s2.3,1.1,2.3,2.3l0,0
		C1181.3,692.2,1180.2,693.3,1178.9,693.3z"/>
	<path class="st3" d="M1178.9,705.8c-1.3,0-2.3-1.1-2.3-2.3s1.1-2.3,2.3-2.3s2.3,1.1,2.3,2.3c0.1,1.2-0.8,2.3-2.1,2.3
		c0,0-0.1,0-0.1,0H1178.9z"/>
	<path class="st3" d="M1178.9,718.2c-1.3,0-2.3-1.1-2.3-2.3s1.1-2.3,2.3-2.3s2.3,1.1,2.3,2.3c0.1,1.2-0.8,2.3-2.1,2.3
		c0,0-0.1,0-0.1,0C1179,718.3,1179,718.3,1178.9,718.2z"/>
	<path class="st3" d="M1178.9,730.7c-1.3,0-2.3-1.1-2.3-2.3c0-1.3,1.1-2.3,2.3-2.3s2.3,1.1,2.3,2.3l0,0c0.1,1.2-0.8,2.3-2.1,2.3
		c0,0-0.1,0-0.1,0H1178.9z"/>
	<path class="st3" d="M1178.9,743.2c-1.3,0-2.3-1.1-2.3-2.3s1.1-2.3,2.3-2.3s2.3,1.1,2.3,2.3
		C1181.3,742.2,1180.2,743.2,1178.9,743.2z"/>
	<path class="st3" d="M1178.9,755.7c-1.3,0-2.3-1.1-2.3-2.3s1.1-2.3,2.3-2.3s2.3,1.1,2.3,2.3c0.1,1.2-0.8,2.3-2.1,2.3
		c0,0-0.1,0-0.1,0H1178.9z"/>
	<path class="st3" d="M1179,768.1c-1.3,0-2.3-1.1-2.3-2.3s1.1-2.3,2.3-2.3s2.3,1.1,2.3,2.3l0,0c0.1,1.2-0.8,2.3-2.1,2.3
		c0,0-0.1,0-0.1,0H1179z"/>
	<path class="st3" d="M1179,780.5c-1.3,0-2.3-1.1-2.3-2.3s1.1-2.3,2.3-2.3s2.3,1.1,2.3,2.3C1181.4,779.4,1180.3,780.5,1179,780.5z"
		/>
	<path class="st3" d="M1179,793c-1.3,0-2.3-1.1-2.3-2.3c0-1.3,1.1-2.3,2.3-2.3s2.3,1.1,2.3,2.3c0.1,1.2-0.8,2.3-2.1,2.3
		c0,0-0.1,0-0.1,0H1179z"/>
	<path class="st3" d="M1179,805.4c-1.3,0-2.3-1.1-2.3-2.3s1.1-2.3,2.3-2.3s2.3,1.1,2.3,2.3c0.1,1.2-0.8,2.3-2.1,2.3c0,0-0.1,0-0.1,0
		H1179z"/>
	<path class="st3" d="M1179,817.8c-1.3,0-2.3-1.1-2.3-2.3c0-1.3,1.1-2.3,2.3-2.3s2.3,1.1,2.3,2.3l0,0c0.1,1.2-0.8,2.3-2.1,2.3
		c0,0-0.1,0-0.1,0H1179z"/>
	<path class="st3" d="M1166.8,618.7c-1.3,0-2.3-1.1-2.3-2.3s1.1-2.3,2.3-2.3c1.3,0,2.3,1.1,2.3,2.3
		C1169.1,617.6,1168.1,618.7,1166.8,618.7z"/>
	<path class="st3" d="M1166.8,631.2c-1.3,0-2.3-1.1-2.3-2.3s1.1-2.3,2.3-2.3c1.3,0,2.3,1.1,2.3,2.3l0,0
		C1169.1,630.2,1168.1,631.2,1166.8,631.2z"/>
	<path class="st3" d="M1166.8,643.5c-1.3,0-2.3-1.1-2.3-2.3c0-1.3,1.1-2.3,2.3-2.3c1.3,0,2.3,1.1,2.3,2.3
		C1169.2,642.5,1168.1,643.5,1166.8,643.5C1166.8,643.5,1166.8,643.5,1166.8,643.5z"/>
	<path class="st3" d="M1166.8,656c-1.3,0-2.3-1.1-2.3-2.3s1.1-2.3,2.3-2.3c1.3,0,2.3,1.1,2.3,2.3c0.1,1.2-0.8,2.3-2.1,2.3
		c0,0-0.1,0-0.1,0H1166.8z"/>
	<path class="st3" d="M1166.8,668.5c-1.3,0-2.3-1.1-2.3-2.3s1.1-2.3,2.3-2.3c1.3,0,2.3,1.1,2.3,2.3l0,0c0.1,1.2-0.8,2.3-2.1,2.3
		c0,0-0.1,0-0.1,0H1166.8z"/>
	<path class="st3" d="M1166.8,681c-1.3,0-2.3-1.1-2.3-2.3s1.1-2.3,2.3-2.3c1.3,0,2.3,1.1,2.3,2.3l0,0
		C1169.2,679.9,1168.1,681,1166.8,681C1166.8,681,1166.8,681,1166.8,681z"/>
	<path class="st3" d="M1166.8,693.3c-1.3,0-2.3-1.1-2.3-2.3s1.1-2.3,2.3-2.3c1.3,0,2.3,1.1,2.3,2.3
		C1169.2,692.2,1168.1,693.3,1166.8,693.3C1166.8,693.3,1166.8,693.3,1166.8,693.3z"/>
	<path class="st3" d="M1166.8,705.8c-1.3,0-2.3-1.1-2.3-2.3s1.1-2.3,2.3-2.3c1.3,0,2.3,1.1,2.3,2.3c0.1,1.2-0.8,2.3-2.1,2.3
		c0,0-0.1,0-0.1,0H1166.8z"/>
	<path class="st3" d="M1166.8,718.3c-1.3,0-2.3-1.1-2.3-2.3c0-1.3,1.1-2.3,2.3-2.3c1.3,0,2.3,1.1,2.3,2.3l0,0
		c0.1,1.2-0.8,2.3-2.1,2.3c0,0-0.1,0-0.1,0H1166.8z"/>
	<path class="st3" d="M1166.9,730.7c-1.3,0-2.3-1.1-2.3-2.3c0-1.3,1.1-2.3,2.3-2.3c1.3,0,2.3,1.1,2.3,2.3c0.1,1.2-0.8,2.3-2.1,2.3
		c0,0-0.1,0-0.1,0H1166.9z"/>
	<path class="st3" d="M1166.9,743.2c-1.3,0-2.3-1.1-2.3-2.3s1.1-2.3,2.3-2.3c1.3,0,2.3,1.1,2.3,2.3
		C1169.2,742.2,1168.2,743.2,1166.9,743.2z"/>
	<path class="st3" d="M1166.9,755.7c-1.3,0-2.3-1.1-2.3-2.3s1.1-2.3,2.3-2.3c1.3,0,2.3,1.1,2.3,2.3l0,0c0.1,1.2-0.8,2.3-2.1,2.3
		c0,0-0.1,0-0.1,0H1166.9z"/>
	<path class="st3" d="M1166.9,768.1c-1.3,0-2.3-1.1-2.3-2.3s1.1-2.3,2.3-2.3c1.3,0,2.3,1.1,2.3,2.3l0,0c0.1,1.2-0.8,2.3-2.1,2.3
		c0,0-0.1,0-0.1,0H1166.9z"/>
	<path class="st3" d="M1166.9,780.5c-1.3,0-2.3-1.1-2.3-2.3s1.1-2.3,2.3-2.3c1.3,0,2.3,1.1,2.3,2.3
		C1169.3,779.4,1168.2,780.5,1166.9,780.5C1166.9,780.5,1166.9,780.5,1166.9,780.5z"/>
	<path class="st3" d="M1166.9,793c-1.3,0-2.3-1.1-2.3-2.3c0-1.3,1.1-2.3,2.3-2.3c1.3,0,2.3,1.1,2.3,2.3c0.1,1.2-0.8,2.3-2.1,2.3
		c0,0-0.1,0-0.1,0H1166.9z"/>
	<path class="st3" d="M1166.9,805.4c-1.3,0-2.3-1.1-2.3-2.3s1.1-2.3,2.3-2.3c1.3,0,2.3,1.1,2.3,2.3c0.1,1.2-0.8,2.3-2.1,2.3
		c0,0-0.1,0-0.1,0H1166.9z"/>
	<path class="st3" d="M1166.9,817.8c-1.3,0-2.3-1.1-2.3-2.3c0-1.3,1.1-2.3,2.3-2.3c1.3,0,2.3,1.1,2.3,2.3c0.1,1.2-0.8,2.3-2.1,2.3
		c0,0-0.1,0-0.1,0H1166.9z"/>
	<path class="st3" d="M1154.7,618.8c-1.3,0-2.3-1.1-2.3-2.3s1.1-2.3,2.3-2.3c1.3,0,2.3,1.1,2.3,2.3l0,0
		C1157,617.7,1156,618.8,1154.7,618.8z"/>
	<path class="st3" d="M1154.7,631.2c-1.3,0-2.3-1.1-2.3-2.3s1.1-2.3,2.3-2.3c1.3,0,2.3,1.1,2.3,2.3l0,0
		C1157,630.1,1156,631.2,1154.7,631.2C1154.7,631.2,1154.7,631.2,1154.7,631.2z"/>
	<path class="st3" d="M1154.7,643.5c-1.3,0-2.3-1.1-2.3-2.3c0-1.3,1.1-2.3,2.3-2.3c1.3,0,2.3,1.1,2.3,2.3
		C1157,642.5,1156,643.5,1154.7,643.5C1154.7,643.5,1154.7,643.5,1154.7,643.5z"/>
	<path class="st3" d="M1154.7,656c-1.3,0-2.3-1.1-2.3-2.3s1.1-2.3,2.3-2.3c1.3,0,2.3,1.1,2.3,2.3C1157,655,1156,656,1154.7,656
		C1154.7,656,1154.7,656,1154.7,656z"/>
	<path class="st3" d="M1154.7,668.5c-1.3,0-2.3-1.1-2.3-2.3s1.1-2.3,2.3-2.3c1.3,0,2.3,1.1,2.3,2.3l0,0c0,1.2-0.9,2.3-2.2,2.3
		C1154.8,668.5,1154.7,668.5,1154.7,668.5z"/>
	<path class="st3" d="M1154.8,681c-1.3,0-2.3-1.1-2.3-2.3s1.1-2.3,2.3-2.3c1.3,0,2.3,1.1,2.3,2.3
		C1157.1,679.9,1156.1,681,1154.8,681z"/>
	<path class="st3" d="M1154.8,693.3c-1.3,0-2.3-1.1-2.3-2.3s1.1-2.3,2.3-2.3c1.3,0,2.3,1.1,2.3,2.3
		C1157.1,692.2,1156.1,693.3,1154.8,693.3C1154.8,693.3,1154.8,693.3,1154.8,693.3z"/>
	<path class="st3" d="M1154.8,705.8c-1.3,0-2.3-1.1-2.3-2.3s1.1-2.3,2.3-2.3c1.3,0,2.3,1.1,2.3,2.3l0,0
		C1157.1,704.7,1156.1,705.8,1154.8,705.8z"/>
	<path class="st3" d="M1154.8,718.3c-1.3,0-2.3-1.1-2.3-2.3c0-1.3,1.1-2.3,2.3-2.3c1.3,0,2.3,1.1,2.3,2.3l0,0
		C1157.1,717.3,1156.1,718.3,1154.8,718.3z"/>
	<path class="st3" d="M1154.8,730.7c-1.3,0-2.3-1.1-2.3-2.3c0-1.3,1.1-2.3,2.3-2.3c1.3,0,2.3,1.1,2.3,2.3
		C1157.1,729.7,1156.1,730.7,1154.8,730.7C1154.8,730.7,1154.8,730.7,1154.8,730.7z"/>
	<path class="st3" d="M1154.8,743.2c-1.3,0-2.3-1.1-2.3-2.3s1.1-2.3,2.3-2.3c1.3,0,2.3,1.1,2.3,2.3
		C1157.1,742.2,1156.1,743.2,1154.8,743.2C1154.8,743.2,1154.8,743.2,1154.8,743.2z"/>
	<path class="st3" d="M1154.8,755.7c-1.3,0-2.3-1.1-2.3-2.3s1.1-2.3,2.3-2.3c1.3,0,2.3,1.1,2.3,2.3l0,0
		C1157.1,754.6,1156.1,755.6,1154.8,755.7z"/>
	<path class="st3" d="M1154.8,768.1c-1.3,0-2.3-1.1-2.3-2.3s1.1-2.3,2.3-2.3c1.3,0,2.3,1.1,2.3,2.3
		C1157.1,767,1156.1,768.1,1154.8,768.1C1154.8,768.1,1154.8,768.1,1154.8,768.1z"/>
	<path class="st3" d="M1154.8,780.6c-1.3,0-2.3-1.1-2.3-2.3c0-1.3,1.1-2.3,2.3-2.3c1.3,0,2.3,1.1,2.3,2.3
		C1157.1,779.5,1156.1,780.6,1154.8,780.6z"/>
	<path class="st3" d="M1154.8,793c-1.3,0-2.3-1.1-2.3-2.3c0-1.3,1.1-2.3,2.3-2.3c1.3,0,2.3,1.1,2.3,2.3l0,0
		C1157.1,791.9,1156.1,793,1154.8,793C1154.8,793,1154.8,793,1154.8,793z"/>
	<path class="st3" d="M1154.8,805.4c-1.3,0-2.3-1.1-2.3-2.3s1.1-2.3,2.3-2.3c1.3,0,2.3,1.1,2.3,2.3
		C1157.1,804.4,1156.1,805.4,1154.8,805.4z"/>
	<path class="st3" d="M1154.8,817.8c-1.3,0-2.3-1.1-2.3-2.3c0-1.3,1.1-2.3,2.3-2.3c1.3,0,2.3,1.1,2.3,2.3c0,1.2-0.9,2.3-2.2,2.3
		C1154.9,817.8,1154.8,817.8,1154.8,817.8z"/>
</g>
<path class="st4" d="M145,131.6c0,0-133,103,51,164S417,380,418,452.8"/>
</svg>
