<?xml version="1.0" encoding="utf-8"?>
<!-- Generator: Adobe Illustrator 23.0.1, SVG Export Plug-In . SVG Version: 6.00 Build 0)  -->
<svg version="1.1" id="Layer_1" xmlns="http://www.w3.org/2000/svg" xmlns:xlink="http://www.w3.org/1999/xlink" x="0px" y="0px"
	 viewBox="0 0 3200 2000" style="enable-background:new 0 0 3200 2000;" xml:space="preserve">
<style type="text/css">
	.st0{opacity:0.7;}
	.st1{fill:none;stroke:#A72285;stroke-miterlimit:10;}
	.st2{fill:url(#SVGID_1_);}
	.st3{fill:url(#SVGID_2_);}
	.st4{fill:url(#SVGID_3_);}
	.st5{fill:url(#SVGID_4_);}
	.st6{fill:url(#SVGID_5_);}
	.st7{fill:url(#SVGID_6_);}
	.st8{fill:url(#SVGID_7_);}
	.st9{fill:url(#SVGID_8_);}
	.st10{fill:url(#SVGID_9_);}
	.st11{fill:url(#SVGID_10_);}
	.st12{fill:url(#SVGID_11_);}
	.st13{fill:url(#SVGID_12_);}
	.st14{fill:url(#SVGID_13_);}
	.st15{fill:url(#SVGID_14_);}
	.st16{fill:url(#SVGID_15_);}
	.st17{fill:url(#SVGID_16_);}
	.st18{fill:url(#SVGID_17_);}
	.st19{fill:url(#SVGID_18_);}
	.st20{fill:url(#SVGID_19_);}
	.st21{fill:url(#SVGID_20_);}
	.st22{fill:url(#SVGID_21_);}
	.st23{fill:url(#SVGID_22_);}
	.st24{fill:url(#SVGID_23_);}
	.st25{fill:url(#SVGID_24_);}
	.st26{fill:url(#SVGID_25_);}
	.st27{fill:url(#SVGID_26_);}
	.st28{fill:url(#SVGID_27_);}
	.st29{fill:url(#SVGID_28_);}
	.st30{fill:url(#SVGID_29_);}
	.st31{fill:url(#SVGID_30_);}
	.st32{fill:url(#SVGID_31_);}
	.st33{fill:url(#SVGID_32_);}
	.st34{fill:url(#SVGID_33_);}
	.st35{fill:url(#SVGID_34_);}
	.st36{fill:url(#SVGID_35_);}
	.st37{fill:url(#SVGID_36_);}
	.st38{fill:url(#SVGID_37_);}
	.st39{fill:url(#SVGID_38_);}
	.st40{fill:url(#SVGID_39_);}
	.st41{fill:url(#SVGID_40_);}
	.st42{fill:url(#SVGID_41_);}
	.st43{fill:url(#SVGID_42_);}
	.st44{fill:url(#SVGID_43_);}
	.st45{fill:url(#SVGID_44_);}
	.st46{fill:url(#SVGID_45_);}
	.st47{fill:url(#SVGID_46_);}
	.st48{fill:url(#SVGID_47_);}
	.st49{fill:url(#SVGID_48_);}
	.st50{fill:url(#SVGID_49_);}
	.st51{fill:url(#SVGID_50_);}
	.st52{fill:url(#SVGID_51_);}
	.st53{fill:url(#SVGID_52_);}
	.st54{fill:url(#SVGID_53_);}
	.st55{fill:url(#SVGID_54_);}
	.st56{fill:url(#SVGID_55_);}
	.st57{fill:url(#SVGID_56_);}
	.st58{fill:url(#SVGID_57_);}
	.st59{fill:url(#SVGID_58_);}
	.st60{fill:url(#SVGID_59_);}
	.st61{fill:url(#SVGID_60_);}
	.st62{fill:url(#SVGID_61_);}
	.st63{fill:url(#SVGID_62_);}
	.st64{fill:url(#SVGID_63_);}
	.st65{fill:url(#SVGID_64_);}
	.st66{fill:url(#SVGID_65_);}
	.st67{fill:url(#SVGID_66_);}
	.st68{fill:url(#SVGID_67_);}
	.st69{fill:url(#SVGID_68_);}
	.st70{clip-path:url(#SVGID_70_);}
	.st71{fill:url(#SVGID_71_);}
	.st72{fill:url(#SVGID_72_);}
	.st73{fill:url(#SVGID_73_);}
	.st74{fill:url(#SVGID_74_);}
	.st75{fill:url(#SVGID_75_);}
	.st76{fill:url(#SVGID_76_);}
</style>
<title>Artboard 1</title>
<g class="st0">
	<g id="Layer_25">
		<polygon class="st1" points="1964.5,798.8 1980.4,866.7 1866.3,942.2 1850.3,874.4 		"/>
		<polygon class="st1" points="2019.2,849.3 2033.4,910.1 1980.4,866.7 1964.4,798.8 		"/>
		<polygon class="st1" points="1980.4,866.7 2033.4,910 1919.3,985.5 1866.3,942.2 		"/>
		<polyline class="st1" points="2019.2,849.3 1911.5,923.8 1919.3,985.5 		"/>
		<line class="st1" x1="1850.3" y1="874.4" x2="1911.5" y2="923.8"/>
		<polygon class="st1" points="678.2,1252.9 699.8,1344.8 544.9,1447.3 523.3,1355.3 		"/>
		<polygon class="st1" points="752.3,1321.2 771.7,1403.7 699.7,1344.8 678,1252.9 		"/>
		<polygon class="st1" points="699.8,1344.8 771.7,1403.6 616.8,1506 544.9,1447.3 		"/>
		<polyline class="st1" points="752.3,1321.2 606.3,1422.4 616.8,1506 		"/>
		<line class="st1" x1="523.3" y1="1355.3" x2="606.3" y2="1422.4"/>
		<polygon class="st1" points="719.5,719.3 711.7,766.2 569.9,731.1 577.7,684.2 		"/>
		<polygon class="st1" points="756.9,782.4 750,824.5 711.6,766.1 719.4,719.2 		"/>
		<polygon class="st1" points="711.7,766.2 750,824.5 608.2,789.4 569.9,731.1 		"/>
		<polyline class="st1" points="756.9,782.4 622,751.2 608.2,789.4 		"/>
		<line class="st1" x1="577.7" y1="684.2" x2="622" y2="751.2"/>
		<polygon class="st1" points="1381.7,1325.6 1373.9,1372.5 1232.1,1337.4 1239.9,1290.5 		"/>
		<polygon class="st1" points="1419.1,1388.8 1412.2,1430.8 1373.8,1372.4 1381.6,1325.5 		"/>
		<polygon class="st1" points="1373.9,1372.5 1412.2,1430.8 1270.4,1395.7 1232.1,1337.4 		"/>
		<polyline class="st1" points="1419.1,1388.8 1284.2,1357.5 1270.4,1395.7 		"/>
		<line class="st1" x1="1239.9" y1="1290.5" x2="1284.2" y2="1357.5"/>
		<polygon class="st1" points="1795.6,138.9 1787.8,185.8 1646,150.7 1653.7,103.8 		"/>
		<polygon class="st1" points="1833,202.1 1826,244.1 1787.7,185.7 1795.4,138.8 		"/>
		<polygon class="st1" points="1787.8,185.8 1826.1,244.1 1684.3,209 1646,150.7 		"/>
		<polyline class="st1" points="1833,202.1 1698.1,170.8 1684.3,209 		"/>
		<line class="st1" x1="1653.7" y1="103.8" x2="1698.1" y2="170.8"/>
		<polygon class="st1" points="2515.5,1529.6 2506.6,1583.5 2343.6,1543.2 2352.5,1489.3 		"/>
		<polygon class="st1" points="2558.5,1602.2 2550.5,1650.6 2506.4,1583.5 2515.4,1529.5 		"/>
		<polygon class="st1" points="2506.6,1583.5 2550.6,1650.5 2387.6,1610.2 2343.6,1543.2 		"/>
		<polyline class="st1" points="2558.5,1602.2 2403.4,1566.3 2387.6,1610.2 		"/>
		<line class="st1" x1="2352.5" y1="1489.3" x2="2403.4" y2="1566.3"/>
		<polygon class="st1" points="2616.9,490.8 2610.9,526.6 2502.6,499.8 2508.5,464 		"/>
		<polygon class="st1" points="2645.4,539 2640.1,571.2 2610.9,526.6 2616.8,490.7 		"/>
		<polygon class="st1" points="2610.9,526.6 2640.2,571.1 2531.8,544.4 2502.6,499.8 		"/>
		<polyline class="st1" points="2645.4,539 2542.4,515.2 2531.8,544.4 		"/>
		<line class="st1" x1="2508.5" y1="464" x2="2542.4" y2="515.2"/>
		<polygon class="st1" points="918.2,330 961.6,354.6 905.9,472.2 862.5,447.6 		"/>
		<polygon class="st1" points="984.2,319 1023,341 961.5,354.6 918.2,330.1 		"/>
		<polygon class="st1" points="961.6,354.6 1023,340.9 967.3,458.5 905.9,472.2 		"/>
		<polyline class="st1" points="984.2,319 933.2,431.6 967.3,458.5 		"/>
		<line class="st1" x1="862.5" y1="447.6" x2="933.2" y2="431.6"/>
	</g>
	
		<linearGradient id="SVGID_1_" gradientUnits="userSpaceOnUse" x1="1757.72" y1="192.67" x2="2030.04" y2="192.67" gradientTransform="matrix(1 0 0 -1 0 1997.89)">
		<stop  offset="0.11" style="stop-color:#492C7A"/>
		<stop  offset="0.74" style="stop-color:#A42385"/>
	</linearGradient>
	<polygon class="st2" points="1907.7,1710 1757.7,1816.8 1875.8,1900.5 2030,1791.9 	"/>
	
		<linearGradient id="SVGID_2_" gradientUnits="userSpaceOnUse" x1="1716.95" y1="338.035" x2="1907.67" y2="338.035" gradientTransform="matrix(1 0 0 -1 0 1997.89)">
		<stop  offset="0.11" style="stop-color:#492C7A"/>
		<stop  offset="0.74" style="stop-color:#A42385"/>
	</linearGradient>
	<polygon class="st3" points="1853.5,1503.2 1716.9,1602.6 1758,1816.5 1907.7,1710.8 	"/>
	
		<linearGradient id="SVGID_3_" gradientUnits="userSpaceOnUse" x1="1923.1448" y1="275.9088" x2="1959.6748" y2="422.9988" gradientTransform="matrix(1 0 0 -1 0 1997.89)">
		<stop  offset="0.11" style="stop-color:#492C7A"/>
		<stop  offset="0.74" style="stop-color:#A42385"/>
	</linearGradient>
	<polygon class="st4" points="1950.3,1573.2 1853.5,1503.2 1907.6,1710.7 2029.7,1792 	"/>
	<g id="Layer_3">
		
			<linearGradient id="SVGID_4_" gradientUnits="userSpaceOnUse" x1="2042.61" y1="1631.915" x2="2274.55" y2="1631.915" gradientTransform="matrix(1 0 0 -1 0 3156)">
			<stop  offset="0" style="stop-color:#492C7A"/>
			<stop  offset="0.74" style="stop-color:#A42385"/>
		</linearGradient>
		<polygon class="st5" points="2152.9,1440.6 2042.6,1559.8 2160.9,1607.6 2274.6,1486.1 		"/>
		
			<linearGradient id="SVGID_5_" gradientUnits="userSpaceOnUse" x1="2193.5413" y1="1647.9071" x2="2119.7212" y2="1615.9871" gradientTransform="matrix(1 0 0 -1 0 3156)">
			<stop  offset="0" style="stop-color:#492C7A"/>
			<stop  offset="0.74" style="stop-color:#A42385"/>
		</linearGradient>
		<polygon class="st6" points="2155.4,1486.7 2106.4,1539.7 2159,1561 2209.5,1506.9 		"/>
		
			<linearGradient id="SVGID_6_" gradientUnits="userSpaceOnUse" x1="1963.26" y1="1758.5199" x2="2152.99" y2="1758.5199" gradientTransform="matrix(1 0 0 -1 0 3156)">
			<stop  offset="0" style="stop-color:#492C7A"/>
			<stop  offset="0.74" style="stop-color:#A42385"/>
		</linearGradient>
		<polygon class="st7" points="2062.1,1235.2 1963.3,1358.1 2042.6,1559.8 2153,1440.5 		"/>
		
			<linearGradient id="SVGID_7_" gradientUnits="userSpaceOnUse" x1="2061.5" y1="1795.3049" x2="2274.55" y2="1795.3049" gradientTransform="matrix(1 0 0 -1 0 3156)">
			<stop  offset="0" style="stop-color:#492C7A"/>
			<stop  offset="0.74" style="stop-color:#A42385"/>
		</linearGradient>
		<polygon class="st8" points="2174.2,1299.9 2061.5,1235.3 2152.9,1440.6 2274.6,1486.1 		"/>
	</g>
	<g id="Layer_4">
		
			<linearGradient id="SVGID_8_" gradientUnits="userSpaceOnUse" x1="2373.9099" y1="2438.6199" x2="2572.6899" y2="2438.6199" gradientTransform="matrix(1 0 0 -1 0 3156)">
			<stop  offset="0" style="stop-color:#492C7A"/>
			<stop  offset="0.74" style="stop-color:#A42385"/>
		</linearGradient>
		<polygon class="st9" points="2543.3,605.6 2572.7,711.3 2403.3,829.2 2373.9,723.4 		"/>
		
			<linearGradient id="SVGID_9_" gradientUnits="userSpaceOnUse" x1="2617.7043" y1="2435.5728" x2="2550.4243" y2="2542.9729" gradientTransform="matrix(1 0 0 -1 0 3156)">
			<stop  offset="0" style="stop-color:#492C7A"/>
			<stop  offset="0.74" style="stop-color:#A42385"/>
		</linearGradient>
		<polygon class="st10" points="2627.7,673.3 2657.1,779.1 2572.5,711.4 2543.1,605.6 		"/>
		
			<linearGradient id="SVGID_10_" gradientUnits="userSpaceOnUse" x1="2403.28" y1="2351.9299" x2="2657.02" y2="2351.9299" gradientTransform="matrix(1 0 0 -1 0 3156)">
			<stop  offset="0" style="stop-color:#492C7A"/>
			<stop  offset="0.74" style="stop-color:#A42385"/>
		</linearGradient>
		<polygon class="st11" points="2572.7,711.3 2657,778.9 2487.6,896.8 2403.3,829.2 		"/>
	</g>
	<g id="Layer_5">
		
			<linearGradient id="SVGID_11_" gradientUnits="userSpaceOnUse" x1="709.15" y1="2659.615" x2="810.62" y2="2659.615" gradientTransform="matrix(1 0 0 -1 0 3156)">
			<stop  offset="0" style="stop-color:#492C7A"/>
			<stop  offset="0.74" style="stop-color:#A42385"/>
		</linearGradient>
		<polygon class="st12" points="788.9,428.8 709.2,486 731.3,564 810.6,506.8 		"/>
		
			<linearGradient id="SVGID_12_" gradientUnits="userSpaceOnUse" x1="731.26" y1="2585.1851" x2="912.2" y2="2585.1851" gradientTransform="matrix(1 0 0 -1 0 3156)">
			<stop  offset="0" style="stop-color:#492C7A"/>
			<stop  offset="0.74" style="stop-color:#A42385"/>
		</linearGradient>
		<polygon class="st13" points="810.6,506.7 731.3,564 832.5,634.9 912.2,577.9 		"/>
		
			<linearGradient id="SVGID_13_" gradientUnits="userSpaceOnUse" x1="788.9" y1="2652.51" x2="912.23" y2="2652.51" gradientTransform="matrix(1 0 0 -1 0 3156)">
			<stop  offset="0" style="stop-color:#492C7A"/>
			<stop  offset="0.74" style="stop-color:#A42385"/>
		</linearGradient>
		<polygon class="st14" points="788.9,428.8 810.6,507 912.2,578.2 896.8,502.1 		"/>
	</g>
	<g id="Layer_6">
		
			<linearGradient id="SVGID_14_" gradientUnits="userSpaceOnUse" x1="1428.0601" y1="1533.005" x2="1664.6" y2="1533.005" gradientTransform="matrix(1 0 0 -1 0 3156)">
			<stop  offset="0" style="stop-color:#492C7A"/>
			<stop  offset="0.74" style="stop-color:#A42385"/>
		</linearGradient>
		<polygon class="st15" points="1578.3,1531 1428.1,1610.1 1510.4,1715 1664.6,1635 		"/>
		
			<linearGradient id="SVGID_15_" gradientUnits="userSpaceOnUse" x1="1428.3101" y1="1693.495" x2="1578.02" y2="1693.495" gradientTransform="matrix(1 0 0 -1 0 3156)">
			<stop  offset="0" style="stop-color:#492C7A"/>
			<stop  offset="0.74" style="stop-color:#A42385"/>
		</linearGradient>
		<polygon class="st16" points="1576.5,1315.2 1439.3,1389.2 1428.3,1609.9 1578,1531.8 		"/>
		
			<linearGradient id="SVGID_16_" gradientUnits="userSpaceOnUse" x1="1576.9301" y1="1680.895" x2="1664.3199" y2="1680.895" gradientTransform="matrix(1 0 0 -1 0 3156)">
			<stop  offset="0" style="stop-color:#492C7A"/>
			<stop  offset="0.74" style="stop-color:#A42385"/>
		</linearGradient>
		<polygon class="st17" points="1643.7,1402.5 1576.9,1315.2 1578.1,1531.7 1664.3,1635 		"/>
	</g>
	<g id="Layer_7">
		
			<linearGradient id="SVGID_17_" gradientUnits="userSpaceOnUse" x1="2572.53" y1="1906.37" x2="2763.95" y2="1906.37" gradientTransform="matrix(1 0 0 -1 0 3156)">
			<stop  offset="0" style="stop-color:#492C7A"/>
			<stop  offset="0.74" style="stop-color:#A42385"/>
		</linearGradient>
		<polygon class="st18" points="2572.5,1187 2624.2,1412.8 2763.9,1294.1 2726.4,1086.5 		"/>
		
			<linearGradient id="SVGID_18_" gradientUnits="userSpaceOnUse" x1="2629.6599" y1="1905.84" x2="2721.21" y2="1905.84" gradientTransform="matrix(1 0 0 -1 0 3156)">
			<stop  offset="0" style="stop-color:#492C7A"/>
			<stop  offset="0.74" style="stop-color:#A42385"/>
		</linearGradient>
		<polygon class="st19" points="2629.7,1222.8 2652.6,1323.1 2721.2,1280.2 2698.3,1177.2 		"/>
		
			<linearGradient id="SVGID_19_" gradientUnits="userSpaceOnUse" x1="2306.3301" y1="1874.3199" x2="2624.0701" y2="1874.3199" gradientTransform="matrix(1 0 0 -1 0 3156)">
			<stop  offset="0" style="stop-color:#492C7A"/>
			<stop  offset="0.74" style="stop-color:#A42385"/>
		</linearGradient>
		<polygon class="st20" points="2306.3,1150.6 2355.8,1357.1 2624.1,1412.8 2573.5,1188 		"/>
		
			<linearGradient id="SVGID_20_" gradientUnits="userSpaceOnUse" x1="2306.3301" y1="2024.98" x2="2726.45" y2="2024.98" gradientTransform="matrix(1 0 0 -1 0 3156)">
			<stop  offset="0" style="stop-color:#492C7A"/>
			<stop  offset="0.74" style="stop-color:#A42385"/>
		</linearGradient>
		<polygon class="st21" points="2434,1073.1 2306.3,1151 2573.1,1189 2726.4,1086.5 		"/>
	</g>
	<g id="Layer_8">
		
			<linearGradient id="SVGID_21_" gradientUnits="userSpaceOnUse" x1="2112.6299" y1="2490.26" x2="2237.8401" y2="2490.26" gradientTransform="matrix(1 0 0 -1 0 3156)">
			<stop  offset="0" style="stop-color:#492C7A"/>
			<stop  offset="0.74" style="stop-color:#A42385"/>
		</linearGradient>
		<polygon class="st22" points="2219.3,595.3 2237.8,661.9 2131.1,736.2 2112.6,669.5 		"/>
		
			<linearGradient id="SVGID_22_" gradientUnits="userSpaceOnUse" x1="2266.1909" y1="2488.3406" x2="2223.811" y2="2555.9907" gradientTransform="matrix(1 0 0 -1 0 3156)">
			<stop  offset="0" style="stop-color:#492C7A"/>
			<stop  offset="0.74" style="stop-color:#A42385"/>
		</linearGradient>
		<polygon class="st23" points="2272.5,638 2291,704.6 2237.7,662 2219.2,595.3 		"/>
		
			<linearGradient id="SVGID_23_" gradientUnits="userSpaceOnUse" x1="2236.8701" y1="2506.04" x2="2273.3101" y2="2506.04" gradientTransform="matrix(1 0 0 -1 0 3156)">
			<stop  offset="0" style="stop-color:#492C7A"/>
			<stop  offset="0.74" style="stop-color:#A42385"/>
		</linearGradient>
		<polygon class="st24" points="2263.9,643.9 2273.3,677.7 2246.3,656 2236.9,622.2 		"/>
		
			<linearGradient id="SVGID_24_" gradientUnits="userSpaceOnUse" x1="2131.1299" y1="2435.6599" x2="2290.96" y2="2435.6599" gradientTransform="matrix(1 0 0 -1 0 3156)">
			<stop  offset="0" style="stop-color:#492C7A"/>
			<stop  offset="0.74" style="stop-color:#A42385"/>
		</linearGradient>
		<polygon class="st25" points="2237.8,661.9 2291,704.5 2184.3,778.7 2131.1,736.2 		"/>
	</g>
	<g id="Layer_11">
		
			<linearGradient id="SVGID_25_" gradientUnits="userSpaceOnUse" x1="1126.46" y1="2067.9099" x2="1240.42" y2="2067.9099" gradientTransform="matrix(1 0 0 -1 0 3156)">
			<stop  offset="0" style="stop-color:#492C7A"/>
			<stop  offset="0.74" style="stop-color:#A42385"/>
		</linearGradient>
		<polygon class="st26" points="1197.6,1000.2 1126.5,1044.9 1163.9,1176 1240.4,1125.5 		"/>
		
			<linearGradient id="SVGID_26_" gradientUnits="userSpaceOnUse" x1="1163.83" y1="1972.5399" x2="1332.65" y2="1972.5399" gradientTransform="matrix(1 0 0 -1 0 3156)">
			<stop  offset="0" style="stop-color:#492C7A"/>
			<stop  offset="0.74" style="stop-color:#A42385"/>
		</linearGradient>
		<polygon class="st27" points="1240.5,1124.3 1163.8,1176 1265.9,1242.6 1332.7,1196.6 		"/>
		
			<linearGradient id="SVGID_27_" gradientUnits="userSpaceOnUse" x1="1197.41" y1="2057.6099" x2="1332.65" y2="2057.6099" gradientTransform="matrix(1 0 0 -1 0 3156)">
			<stop  offset="0" style="stop-color:#492C7A"/>
			<stop  offset="0.74" style="stop-color:#A42385"/>
		</linearGradient>
		<polygon class="st28" points="1297.1,1094.3 1197.4,1000.2 1240.4,1125.5 1332.7,1196.6 		"/>
	</g>
	<g id="Layer_12">
		
			<linearGradient id="SVGID_28_" gradientUnits="userSpaceOnUse" x1="1080.76" y1="352.15" x2="1297.4399" y2="352.15" gradientTransform="matrix(1 0 0 -1 0 1997.89)">
			<stop  offset="0.11" style="stop-color:#492C7A"/>
			<stop  offset="0.74" style="stop-color:#A42385"/>
		</linearGradient>
		<polygon class="st29" points="1200.1,1573.3 1080.8,1654.6 1174.7,1718.2 1297.4,1635.6 		"/>
		
			<linearGradient id="SVGID_29_" gradientUnits="userSpaceOnUse" x1="1214.6614" y1="364.1369" x2="1135.7413" y2="329.547" gradientTransform="matrix(1 0 0 -1 0 1997.89)">
			<stop  offset="0.11" style="stop-color:#492C7A"/>
			<stop  offset="0.74" style="stop-color:#A42385"/>
		</linearGradient>
		<polygon class="st30" points="1193.4,1613.4 1140.3,1649.5 1182,1677.8 1236.7,1641.1 		"/>
		
			<linearGradient id="SVGID_30_" gradientUnits="userSpaceOnUse" x1="1146.9073" y1="390.3086" x2="1100.5673" y2="475.2185" gradientTransform="matrix(1 0 0 -1 0 1997.89)">
			<stop  offset="0.11" style="stop-color:#492C7A"/>
			<stop  offset="0.74" style="stop-color:#A42385"/>
		</linearGradient>
		<polygon class="st31" points="1180.7,1502.3 1069.6,1581.9 1081.2,1654.3 1200.3,1574 		"/>
		
			<linearGradient id="SVGID_31_" gradientUnits="userSpaceOnUse" x1="1180.6899" y1="428.91" x2="1297.1801" y2="428.91" gradientTransform="matrix(1 0 0 -1 0 1997.89)">
			<stop  offset="0.11" style="stop-color:#492C7A"/>
			<stop  offset="0.74" style="stop-color:#A42385"/>
		</linearGradient>
		<polygon class="st32" points="1267.2,1556 1180.7,1502.3 1200.1,1573.8 1297.2,1635.7 		"/>
	</g>
	<g id="Layer_13">
		
			<linearGradient id="SVGID_32_" gradientUnits="userSpaceOnUse" x1="1456.5699" y1="2637.7351" x2="1590.22" y2="2637.7351" gradientTransform="matrix(1 0 0 -1 0 3156)">
			<stop  offset="0" style="stop-color:#492C7A"/>
			<stop  offset="0.74" style="stop-color:#A42385"/>
		</linearGradient>
		<polygon class="st33" points="1561.6,429.2 1456.6,504.6 1485.7,607.3 1590.2,532 		"/>
		
			<linearGradient id="SVGID_33_" gradientUnits="userSpaceOnUse" x1="1485.6899" y1="2539.71" x2="1724.01" y2="2539.71" gradientTransform="matrix(1 0 0 -1 0 3156)">
			<stop  offset="0" style="stop-color:#492C7A"/>
			<stop  offset="0.74" style="stop-color:#A42385"/>
		</linearGradient>
		<polygon class="st34" points="1590.2,531.8 1485.7,607.4 1619.1,700.7 1724,625.6 		"/>
		
			<linearGradient id="SVGID_34_" gradientUnits="userSpaceOnUse" x1="1561.61" y1="2628.3799" x2="1724.04" y2="2628.3799" gradientTransform="matrix(1 0 0 -1 0 3156)">
			<stop  offset="0" style="stop-color:#492C7A"/>
			<stop  offset="0.74" style="stop-color:#A42385"/>
		</linearGradient>
		<polygon class="st35" points="1561.6,429.2 1590.2,532.2 1724,626.1 1703.7,525.8 		"/>
	</g>
	<g id="Layer_14">
		
			<linearGradient id="SVGID_35_" gradientUnits="userSpaceOnUse" x1="1714.16" y1="2817.7151" x2="1928.27" y2="2817.7151" gradientTransform="matrix(1 0 0 -1 0 3156)">
			<stop  offset="0" style="stop-color:#492C7A"/>
			<stop  offset="0.74" style="stop-color:#A42385"/>
		</linearGradient>
		<polygon class="st36" points="1896.6,217.8 1928.3,331.8 1745.8,458.7 1714.2,344.8 		"/>
		
			<linearGradient id="SVGID_36_" gradientUnits="userSpaceOnUse" x1="1976.7593" y1="2814.4294" x2="1904.2793" y2="2930.1096" gradientTransform="matrix(1 0 0 -1 0 3156)">
			<stop  offset="0" style="stop-color:#492C7A"/>
			<stop  offset="0.74" style="stop-color:#A42385"/>
		</linearGradient>
		<polygon class="st37" points="1987.5,290.8 2019.2,404.8 1928.1,331.8 1896.4,217.8 		"/>
		
			<linearGradient id="SVGID_37_" gradientUnits="userSpaceOnUse" x1="1745.79" y1="2724.345" x2="2019.11" y2="2724.345" gradientTransform="matrix(1 0 0 -1 0 3156)">
			<stop  offset="0" style="stop-color:#492C7A"/>
			<stop  offset="0.74" style="stop-color:#A42385"/>
		</linearGradient>
		<polygon class="st38" points="1928.3,331.8 2019.1,404.6 1836.7,531.5 1745.8,458.8 		"/>
		
			<linearGradient id="SVGID_38_" gradientUnits="userSpaceOnUse" x1="816" y1="1805.605" x2="1082.6899" y2="1805.605" gradientTransform="matrix(1 0 0 -1 0 3156)">
			<stop  offset="0" style="stop-color:#492C7A"/>
			<stop  offset="0.74" style="stop-color:#A42385"/>
		</linearGradient>
		<polygon class="st39" points="1043.2,1200.4 1082.7,1342.3 855.5,1500.4 816,1358.5 		"/>
		
			<linearGradient id="SVGID_39_" gradientUnits="userSpaceOnUse" x1="1143.0811" y1="1801.5107" x2="1052.8112" y2="1945.6007" gradientTransform="matrix(1 0 0 -1 0 3156)">
			<stop  offset="0" style="stop-color:#492C7A"/>
			<stop  offset="0.74" style="stop-color:#A42385"/>
		</linearGradient>
		<polygon class="st40" points="1156.4,1291.2 1195.9,1433.2 1082.5,1342.3 1043,1200.4 		"/>
		
			<linearGradient id="SVGID_40_" gradientUnits="userSpaceOnUse" x1="855.4" y1="1689.3049" x2="1195.83" y2="1689.3049" gradientTransform="matrix(1 0 0 -1 0 3156)">
			<stop  offset="0" style="stop-color:#492C7A"/>
			<stop  offset="0.74" style="stop-color:#A42385"/>
		</linearGradient>
		<polygon class="st41" points="1082.7,1342.3 1195.8,1433 968.6,1591.1 855.4,1500.5 		"/>
	</g>
	<g id="Layer_15">
		
			<linearGradient id="SVGID_41_" gradientUnits="userSpaceOnUse" x1="2042.61" y1="2813.4399" x2="2270.8101" y2="2813.4399" gradientTransform="matrix(1 0 0 -1 0 3156)">
			<stop  offset="0" style="stop-color:#492C7A"/>
			<stop  offset="0.74" style="stop-color:#A42385"/>
		</linearGradient>
		<polygon class="st42" points="2237.1,214.2 2270.8,335.6 2076.4,470.9 2042.6,349.5 		"/>
		
			<linearGradient id="SVGID_42_" gradientUnits="userSpaceOnUse" x1="2322.4827" y1="2809.9417" x2="2245.2427" y2="2933.2317" gradientTransform="matrix(1 0 0 -1 0 3156)">
			<stop  offset="0" style="stop-color:#492C7A"/>
			<stop  offset="0.74" style="stop-color:#A42385"/>
		</linearGradient>
		<polygon class="st43" points="2333.9,291.9 2367.7,413.4 2270.6,335.7 2236.9,214.2 		"/>
		
			<linearGradient id="SVGID_43_" gradientUnits="userSpaceOnUse" x1="2269.05" y1="2842.2" x2="2335.45" y2="2842.2" gradientTransform="matrix(1 0 0 -1 0 3156)">
			<stop  offset="0" style="stop-color:#492C7A"/>
			<stop  offset="0.74" style="stop-color:#A42385"/>
		</linearGradient>
		<polygon class="st44" points="2318.3,302.7 2335.4,364.4 2286.2,324.9 2269.1,263.2 		"/>
		
			<linearGradient id="SVGID_44_" gradientUnits="userSpaceOnUse" x1="2076.3301" y1="2713.9299" x2="2367.6201" y2="2713.9299" gradientTransform="matrix(1 0 0 -1 0 3156)">
			<stop  offset="0" style="stop-color:#492C7A"/>
			<stop  offset="0.74" style="stop-color:#A42385"/>
		</linearGradient>
		<polygon class="st45" points="2270.8,335.6 2367.6,413.2 2173.2,548.5 2076.3,471 		"/>
	</g>
	<g id="Layer_16">
		
			<linearGradient id="SVGID_45_" gradientUnits="userSpaceOnUse" x1="1005.94" y1="2698.865" x2="1189.67" y2="2698.865" gradientTransform="matrix(1 0 0 -1 0 3156)">
			<stop  offset="0" style="stop-color:#492C7A"/>
			<stop  offset="0.74" style="stop-color:#A42385"/>
		</linearGradient>
		<polygon class="st46" points="1158,336.2 1005.9,432.9 1037.8,578 1189.7,481.5 		"/>
		
			<linearGradient id="SVGID_46_" gradientUnits="userSpaceOnUse" x1="1130.1001" y1="2685.3403" x2="1055.0801" y2="2716.8303" gradientTransform="matrix(1 0 0 -1 0 3156)">
			<stop  offset="0" style="stop-color:#492C7A"/>
			<stop  offset="0.74" style="stop-color:#A42385"/>
		</linearGradient>
		<polygon class="st47" points="1124.5,403.6 1057.2,446.4 1071.3,510.7 1138.5,468 		"/>
		
			<linearGradient id="SVGID_47_" gradientUnits="userSpaceOnUse" x1="1037.8" y1="2534.415" x2="1422.9399" y2="2534.415" gradientTransform="matrix(1 0 0 -1 0 3156)">
			<stop  offset="0" style="stop-color:#492C7A"/>
			<stop  offset="0.74" style="stop-color:#A42385"/>
		</linearGradient>
		<polygon class="st48" points="1037.8,578.1 1189.7,481.8 1422.9,665.1 1271.1,761.4 		"/>
		
			<linearGradient id="SVGID_48_" gradientUnits="userSpaceOnUse" x1="1158" y1="2655.03" x2="1422.9399" y2="2655.03" gradientTransform="matrix(1 0 0 -1 0 3156)">
			<stop  offset="0" style="stop-color:#492C7A"/>
			<stop  offset="0.74" style="stop-color:#A42385"/>
		</linearGradient>
		<polygon class="st49" points="1158,336.2 1188.8,481.8 1422.9,665.7 1390,514.8 		"/>
	</g>
	<g id="Layer_17">
		
			<linearGradient id="SVGID_49_" gradientUnits="userSpaceOnUse" x1="874.18" y1="2395.52" x2="1018.36" y2="2395.52" gradientTransform="matrix(1 0 0 -1 0 3156)">
			<stop  offset="0" style="stop-color:#492C7A"/>
			<stop  offset="0.74" style="stop-color:#A42385"/>
		</linearGradient>
		<polygon class="st50" points="993.5,665.6 874.2,741.4 899.2,855.4 1018.4,779.6 		"/>
		
			<linearGradient id="SVGID_50_" gradientUnits="userSpaceOnUse" x1="971.6089" y1="2384.9072" x2="912.7389" y2="2409.6174" gradientTransform="matrix(1 0 0 -1 0 3156)">
			<stop  offset="0" style="stop-color:#492C7A"/>
			<stop  offset="0.74" style="stop-color:#A42385"/>
		</linearGradient>
		<polygon class="st51" points="967.2,718.4 914.4,752 925.4,802.5 978.2,769 		"/>
		
			<linearGradient id="SVGID_51_" gradientUnits="userSpaceOnUse" x1="899.18" y1="2272.9351" x2="1186.05" y2="2272.9351" gradientTransform="matrix(1 0 0 -1 0 3156)">
			<stop  offset="0" style="stop-color:#492C7A"/>
			<stop  offset="0.74" style="stop-color:#A42385"/>
		</linearGradient>
		<polygon class="st52" points="899.2,855.4 1018.4,779.8 1186.1,910.7 1066.9,986.3 		"/>
		
			<linearGradient id="SVGID_52_" gradientUnits="userSpaceOnUse" x1="993.51" y1="2367.835" x2="1186.05" y2="2367.835" gradientTransform="matrix(1 0 0 -1 0 3156)">
			<stop  offset="0" style="stop-color:#492C7A"/>
			<stop  offset="0.74" style="stop-color:#A42385"/>
		</linearGradient>
		<polygon class="st53" points="993.5,665.6 1017.6,779.8 1186.1,910.7 1160.2,792.8 		"/>
	</g>
	<g id="Layer_18">
		
			<linearGradient id="SVGID_53_" gradientUnits="userSpaceOnUse" x1="2033.4399" y1="2229.73" x2="2261.6399" y2="2229.73" gradientTransform="matrix(1 0 0 -1 0 3156)">
			<stop  offset="0" style="stop-color:#492C7A"/>
			<stop  offset="0.74" style="stop-color:#A42385"/>
		</linearGradient>
		<polygon class="st54" points="2227.9,797.9 2261.6,919.3 2067.2,1054.6 2033.4,933.2 		"/>
		
			<linearGradient id="SVGID_54_" gradientUnits="userSpaceOnUse" x1="2313.3198" y1="2226.2297" x2="2236.0698" y2="2349.5298" gradientTransform="matrix(1 0 0 -1 0 3156)">
			<stop  offset="0" style="stop-color:#492C7A"/>
			<stop  offset="0.74" style="stop-color:#A42385"/>
		</linearGradient>
		<polygon class="st55" points="2324.7,875.6 2358.5,997.1 2261.5,919.4 2227.7,797.9 		"/>
		
			<linearGradient id="SVGID_55_" gradientUnits="userSpaceOnUse" x1="2259.8799" y1="2258.4949" x2="2326.28" y2="2258.4949" gradientTransform="matrix(1 0 0 -1 0 3156)">
			<stop  offset="0" style="stop-color:#492C7A"/>
			<stop  offset="0.74" style="stop-color:#A42385"/>
		</linearGradient>
		<polygon class="st56" points="2309.2,886.4 2326.3,948.1 2277,908.6 2259.9,846.9 		"/>
		
			<linearGradient id="SVGID_56_" gradientUnits="userSpaceOnUse" x1="2067.1599" y1="2130.22" x2="2358.45" y2="2130.22" gradientTransform="matrix(1 0 0 -1 0 3156)">
			<stop  offset="0" style="stop-color:#492C7A"/>
			<stop  offset="0.74" style="stop-color:#A42385"/>
		</linearGradient>
		<polygon class="st57" points="2261.6,919.3 2358.4,996.9 2164,1132.2 2067.2,1054.7 		"/>
	</g>
	<g id="Layer_19">
		
			<linearGradient id="SVGID_57_" gradientUnits="userSpaceOnUse" x1="1822.92" y1="2524.96" x2="1942.12" y2="2524.96" gradientTransform="matrix(1 0 0 -1 0 3156)">
			<stop  offset="0" style="stop-color:#492C7A"/>
			<stop  offset="0.74" style="stop-color:#A42385"/>
		</linearGradient>
		<polygon class="st58" points="1924.5,564 1942.1,627.4 1840.6,698.1 1822.9,634.7 		"/>
		
			<linearGradient id="SVGID_58_" gradientUnits="userSpaceOnUse" x1="1969.1117" y1="2523.1311" x2="1928.7617" y2="2587.531" gradientTransform="matrix(1 0 0 -1 0 3156)">
			<stop  offset="0" style="stop-color:#492C7A"/>
			<stop  offset="0.74" style="stop-color:#A42385"/>
		</linearGradient>
		<polygon class="st59" points="1975.1,604.6 1992.7,668 1942,627.5 1924.4,564 		"/>
		
			<linearGradient id="SVGID_59_" gradientUnits="userSpaceOnUse" x1="1840.53" y1="2472.9751" x2="1992.6899" y2="2472.9751" gradientTransform="matrix(1 0 0 -1 0 3156)">
			<stop  offset="0" style="stop-color:#492C7A"/>
			<stop  offset="0.74" style="stop-color:#A42385"/>
		</linearGradient>
		<polygon class="st60" points="1942.1,627.4 1992.7,668 1891.1,738.6 1840.5,698.1 		"/>
	</g>
	<g id="Layer_20">
		
			<linearGradient id="SVGID_60_" gradientUnits="userSpaceOnUse" x1="1745.71" y1="2034.42" x2="1892.6" y2="2034.42" gradientTransform="matrix(1 0 0 -1 0 3156)">
			<stop  offset="0" style="stop-color:#492C7A"/>
			<stop  offset="0.74" style="stop-color:#A42385"/>
		</linearGradient>
		<polygon class="st61" points="1870.9,1038.9 1892.6,1117.1 1767.4,1204.2 1745.7,1126 		"/>
		
			<linearGradient id="SVGID_61_" gradientUnits="userSpaceOnUse" x1="1925.869" y1="2032.1594" x2="1876.139" y2="2111.5293" gradientTransform="matrix(1 0 0 -1 0 3156)">
			<stop  offset="0" style="stop-color:#492C7A"/>
			<stop  offset="0.74" style="stop-color:#A42385"/>
		</linearGradient>
		<polygon class="st62" points="1933.2,1089 1954.9,1167.2 1892.5,1117.2 1870.8,1038.9 		"/>
		
			<linearGradient id="SVGID_62_" gradientUnits="userSpaceOnUse" x1="1891.47" y1="2052.9299" x2="1934.21" y2="2052.9299" gradientTransform="matrix(1 0 0 -1 0 3156)">
			<stop  offset="0" style="stop-color:#492C7A"/>
			<stop  offset="0.74" style="stop-color:#A42385"/>
		</linearGradient>
		<polygon class="st63" points="1923.2,1095.9 1934.2,1135.6 1902.5,1110.2 1891.5,1070.5 		"/>
		
			<linearGradient id="SVGID_63_" gradientUnits="userSpaceOnUse" x1="1767.41" y1="1970.36" x2="1954.92" y2="1970.36" gradientTransform="matrix(1 0 0 -1 0 3156)">
			<stop  offset="0" style="stop-color:#492C7A"/>
			<stop  offset="0.74" style="stop-color:#A42385"/>
		</linearGradient>
		<polygon class="st64" points="1892.6,1117.1 1954.9,1167.1 1829.8,1254.2 1767.4,1204.2 		"/>
	</g>
	<g id="Layer_21">
		
			<linearGradient id="SVGID_64_" gradientUnits="userSpaceOnUse" x1="1443.46" y1="1928.455" x2="1622.23" y2="1928.455" gradientTransform="matrix(1 0 0 -1 0 3156)">
			<stop  offset="0" style="stop-color:#492C7A"/>
			<stop  offset="0.74" style="stop-color:#A42385"/>
		</linearGradient>
		<polygon class="st65" points="1541.9,1166.8 1443.5,1234.9 1520.9,1288.3 1622.2,1219.1 		"/>
		
			<linearGradient id="SVGID_65_" gradientUnits="userSpaceOnUse" x1="1556.1196" y1="1932.0131" x2="1470.5497" y2="1920.043" gradientTransform="matrix(1 0 0 -1 0 3156)">
			<stop  offset="0" style="stop-color:#492C7A"/>
			<stop  offset="0.74" style="stop-color:#A42385"/>
		</linearGradient>
		<polygon class="st66" points="1536.3,1200.4 1492.6,1230.7 1527,1254.4 1572.1,1223.7 		"/>
		
			<linearGradient id="SVGID_66_" gradientUnits="userSpaceOnUse" x1="1418.64" y1="2036.325" x2="1542.02" y2="2036.325" gradientTransform="matrix(1 0 0 -1 0 3156)">
			<stop  offset="0" style="stop-color:#492C7A"/>
			<stop  offset="0.74" style="stop-color:#A42385"/>
		</linearGradient>
		<polygon class="st67" points="1509.5,1004.4 1418.6,1077.1 1443.4,1234.9 1542,1166.8 		"/>
		
			<linearGradient id="SVGID_67_" gradientUnits="userSpaceOnUse" x1="1509.08" y1="2044.265" x2="1622.23" y2="2044.265" gradientTransform="matrix(1 0 0 -1 0 3156)">
			<stop  offset="0" style="stop-color:#492C7A"/>
			<stop  offset="0.74" style="stop-color:#A42385"/>
		</linearGradient>
		<polygon class="st68" points="1579.8,1069 1509.1,1004.4 1542,1166.8 1622.2,1219.1 		"/>
	</g>
	<g id="Layer_22">
		
			<image style="overflow:visible;enable-background:new    ;" width="74" height="50" xlink:href="12F26E10.png"  transform="matrix(2.97 0 0 2.97 666.38 981.3)">
		</image>
		
			<linearGradient id="SVGID_68_" gradientUnits="userSpaceOnUse" x1="633.19" y1="2200.5549" x2="824.13" y2="2200.5549" gradientTransform="matrix(1 0 0 -1 0 3156)">
			<stop  offset="0" style="stop-color:#492C7A"/>
			<stop  offset="0.74" style="stop-color:#A42385"/>
		</linearGradient>
		<polygon class="st69" points="791.6,829.5 633.2,930.1 666.4,1081.4 824.1,981.2 		"/>
		<g>
			<defs>
				<polygon id="SVGID_69_" points="758,897.2 684.7,943.7 700.1,1013.7 773,967.3 				"/>
			</defs>
			<clipPath id="SVGID_70_">
				<use xlink:href="#SVGID_69_"  style="overflow:visible;"/>
			</clipPath>
			<g class="st70">
				
					<image style="overflow:visible;enable-background:new    ;" width="34" height="44" xlink:href="12F26E16.png"  transform="matrix(2.83 0 0 2.79 680.95 893.67)">
				</image>
			</g>
		</g>
		
			<linearGradient id="SVGID_71_" gradientUnits="userSpaceOnUse" x1="666.38" y1="2100.02" x2="887.91" y2="2100.02" gradientTransform="matrix(1 0 0 -1 0 3156)">
			<stop  offset="0" style="stop-color:#492C7A"/>
			<stop  offset="0.74" style="stop-color:#A42385"/>
		</linearGradient>
		<polygon class="st71" points="824.1,980.8 666.4,1081.5 729.6,1131.2 887.9,1030.8 		"/>
		
			<linearGradient id="SVGID_72_" gradientUnits="userSpaceOnUse" x1="847.3718" y1="2145.9402" x2="829.2918" y2="2335.5801" gradientTransform="matrix(1 0 0 -1 0 3156)">
			<stop  offset="0" style="stop-color:#492C7A"/>
			<stop  offset="0.74" style="stop-color:#A42385"/>
		</linearGradient>
		<polygon class="st72" points="791.6,829.7 824.1,981.2 887.9,1030.9 856.1,876.3 		"/>
		
			<image style="overflow:visible;enable-background:new    ;" width="74" height="50" xlink:href="12F26E17.png"  transform="matrix(1.6311 1.7194 -1.7194 1.6311 1463.74 120.24)">
		</image>
		
			<linearGradient id="SVGID_73_" gradientUnits="userSpaceOnUse" x1="2280.0645" y1="-2537.4924" x2="2167.9443" y2="-2577.1726" gradientTransform="matrix(0.69 0.73 0.73 -0.69 1875.0602 -3230.5859)">
			<stop  offset="0" style="stop-color:#492C7A"/>
			<stop  offset="0.74" style="stop-color:#A42385"/>
		</linearGradient>
		<polygon class="st73" points="1620.3,109.4 1475.1,72.9 1405.8,175.2 1550.4,211.4 		"/>
		
			<linearGradient id="SVGID_74_" gradientUnits="userSpaceOnUse" x1="1463.52" y1="3013.7649" x2="1562.7" y2="3013.7649" gradientTransform="matrix(1 0 0 -1 0 3156)">
			<stop  offset="0" style="stop-color:#492C7A"/>
			<stop  offset="0.74" style="stop-color:#A42385"/>
		</linearGradient>
		<polygon class="st74" points="1562.7,127.1 1495.5,110.2 1463.5,157.5 1530.3,174.2 		"/>
		
			<linearGradient id="SVGID_75_" gradientUnits="userSpaceOnUse" x1="2149.9771" y1="-2648.1633" x2="2326.657" y2="-2648.1633" gradientTransform="matrix(0.69 0.73 0.73 -0.69 1875.0602 -3230.5859)">
			<stop  offset="0" style="stop-color:#492C7A"/>
			<stop  offset="0.74" style="stop-color:#A42385"/>
		</linearGradient>
		<polygon class="st75" points="1550.6,211.2 1405.8,175.3 1411.7,239.1 1556.7,275.6 		"/>
		
			<linearGradient id="SVGID_76_" gradientUnits="userSpaceOnUse" x1="2287.7515" y1="-2623.3101" x2="2273.3313" y2="-2472.0601" gradientTransform="matrix(0.69 0.73 0.73 -0.69 1875.0602 -3230.5859)">
			<stop  offset="0" style="stop-color:#492C7A"/>
			<stop  offset="0.74" style="stop-color:#A42385"/>
		</linearGradient>
		<polygon class="st76" points="1620.2,109.5 1550.4,211.4 1556.6,275.7 1628.7,172.3 		"/>
	</g>
</g>
</svg>
