<?xml version="1.0" encoding="utf-8"?>
<!-- Generator: Adobe Illustrator 23.0.1, SVG Export Plug-In . SVG Version: 6.00 Build 0)  -->
<svg version="1.1" id="Layer_1" xmlns="http://www.w3.org/2000/svg" xmlns:xlink="http://www.w3.org/1999/xlink" x="0px" y="0px"
	 viewBox="0 0 512 512" style="enable-background:new 0 0 512 512;" xml:space="preserve">
<style type="text/css">
	.st0{fill:none;stroke:#011CCC;stroke-width:5;stroke-miterlimit:10;}
</style>
<title>ionicons-v5-n</title>
<g>
	<path class="st0" d="M64,192v-72c0-22.1,17.9-40,40-40h75.9c7.9,0,15.6,2.3,22.2,6.7l27.8,18.6c6.6,4.4,14.3,6.7,22.2,6.7H408
		c22.1,0,40,17.9,40,40v40"/>
	<path class="st0" d="M479.9,226.5L463.7,392c0,22.1-17.9,40-39.9,40H88.3c-22.1,0-39.9-17.9-39.9-40L32.1,226.5
		c-1.4-17.6,11.7-33,29.3-34.4c0.8-0.1,1.7-0.1,2.6-0.1h384.1c17.7,0.1,32,14.4,31.9,32.1C480,224.9,480,225.7,479.9,226.5z"/>
</g>
</svg>
