<?xml version="1.0" encoding="utf-8"?>
<!-- Generator: Adobe Illustrator 25.3.1, SVG Export Plug-In . SVG Version: 6.00 Build 0)  -->
<svg version="1.1" id="Layer_1" xmlns="http://www.w3.org/2000/svg" xmlns:xlink="http://www.w3.org/1999/xlink" x="0px" y="0px"
	 viewBox="0 0 1377.3 510" style="enable-background:new 0 0 1377.3 510;" xml:space="preserve">
<style type="text/css">
	.st0{opacity:0.5;}
	.st1{fill:none;stroke:#231F20;stroke-width:0.5;stroke-miterlimit:10;}
	.st2{clip-path:url(#SVGID_2_);}
	.st3{fill:none;stroke:#294295;stroke-width:4;stroke-miterlimit:10;}
</style>
<g class="st0">
	<path class="st1" d="M-345.9,360.8C-229.3,430-53.6,509.5,92.6,445c188-82.9,158.1-329.6,324-386.6
		c193.8-66.6,348.4,231.1,654.5,229c178.8-1.3,321.9-104.2,408.2-181.4"/>
	<path class="st1" d="M-344.9,355.5c73.7,41.4,171.8,87.1,271.8,100.4c56.7,7.5,112.7,4,164.8-16.5
		c87.8-34.6,128.8-101.6,166.4-171.7c43.3-80.2,75.3-163.3,162.8-195.8c52-19.3,101.6-11.6,153.4,7.9
		c137.4,51.8,276.6,198.8,497.3,192.9c173.3-4.6,314.5-104.4,402.3-184.1"/>
	<path class="st1" d="M-343.7,350.3c72.9,38.7,170.6,81.8,271.3,95.9c57,8,112.2,5.4,163.6-12.4c88-30.5,129.3-90.3,169.8-156.3
		c46.5-75.8,77.7-157.5,164.3-192.1c50.3-20,99-14.2,150.9,1.6c140,42.7,276,181.5,496,171.1c167.9-7.9,307-104.6,396.3-186.9"/>
	<path class="st1" d="M-342.7,345c72.1,36,169.5,76.4,270.7,91.4c57.2,8.5,111.8,6.8,162.4-8.2c88.3-26.3,130.1-78.8,173.4-140.8
		c49.8-71.3,80.2-151.6,165.9-188.3c48.6-20.8,96.4-16.9,148.4-4.7c142.7,33.5,275.2,164.3,494.7,149.3
		c162.4-11,299.5-104.7,390.4-189.5"/>
	<path class="st1" d="M-341.6,339.7c71.4,33.3,168.4,71,270.2,86.8c57.5,8.9,111.4,8.3,161.1-4c88.7-22,130.8-67.5,176.9-125.4
		c53.1-66.8,82.7-145.7,167.4-184.6c46.9-21.5,94-19.6,145.9-11c145.6,24.2,274.5,147.1,493.3,127.5
		c156.9-14.1,292.1-104.9,384.5-192.2"/>
	<path class="st1" d="M-340.5,334.5c70.6,30.6,167.3,65.6,269.6,82.3c57.7,9.4,111.1,9.9,159.9,0.2c89.1-17.7,131.5-56.1,180.3-110
		c56.5-62.3,85.2-139.7,169-180.9c45.3-22.2,91.6-22.5,143.4-17.4c148.6,14.7,273.7,130.1,492,105.8c151.4-17,284.7-105.1,378.6-195
		"/>
	<path class="st1" d="M-339.4,329.2c69.8,27.9,166.1,60.3,269,77.8c58,9.8,110.8,11.5,158.6,4.3c89.6-13.3,132.3-44.7,183.9-94.6
		C332,258.8,359.8,183,442.7,139.5c43.6-22.9,89.2-25.4,140.9-23.7c151.7,5,272.9,113.3,490.7,84
		c145.8-19.7,277.1-105.3,372.6-197.7"/>
	<path class="st1" d="M-338.3,323.9c69.1,25.1,165,54.9,268.5,73.2c58.3,10.3,110.5,13.1,157.4,8.5c90.2-8.8,133-33.3,187.4-79.1
		c63.3-53.4,90.2-127.6,172.2-173.4c42-23.5,86.8-28.3,138.4-30c154.8-5,272.1,96.6,489.3,62.2C1215.2,163,1344.6,79.9,1441.6-15"/>
	<path class="st1" d="M-337.3,318.7c68.3,22.4,163.9,49.5,268,68.7c58.5,10.8,110.2,14.8,156.1,12.7c90.7-4.2,133.8-21.9,190.8-63.7
		c66.8-48.9,93-121.5,173.9-169.8c40.4-24.1,84.4-31.4,136-36.3c157.9-15.1,271.3,80.1,488,40.4c134.8-24.7,262.2-105.6,360.7-203"
		/>
	<path class="st1" d="M-336.2,313.4c67.6,19.7,162.8,44.1,267.4,64.2c58.8,11.2,109.9,16.6,154.9,16.9
		c91.3,0.5,134.6-10.5,194.3-48.3c70.1-44.3,95.4-115.3,175.3-166c38.8-24.6,82-34.5,133.5-42.6c161-25.5,270.6,63.8,486.7,18.6
		c129.3-27.1,254.7-105.7,354.8-205.7"/>
	<path class="st1" d="M-335.1,308.1c66.8,17,161.7,38.8,266.8,59.6c59,11.7,109.7,18.5,153.7,21c91.9,5.4,135.4,0.9,197.8-32.9
		c73.6-39.8,98.1-109,176.9-162.3c37.2-25.1,79.6-37.7,131-49c164-36,269.8,47.7,485.3-3.2c123.9-29.2,247.2-105.9,348.8-208.4"/>
	<path class="st1" d="M-334,302.9c66,14.3,160.6,33.4,266.3,55.1c59.3,12.1,109.4,20.4,152.4,25.2c92.4,10.4,136.2,12.4,201.4-17.4
		c77-35.3,100.8-102.6,178.5-158.5c35.6-25.6,77.2-40.9,128.5-55.3c166.9-46.8,269.2,31.9,484-25C1195.6,95.7,1316.9,20.9,1420-84.1
		"/>
	<path class="st1" d="M-332.9,297.6c65.3,11.6,159.4,28,265.7,50.5C-7.6,360.7,41.9,370.5,84,377.5c92.9,15.5,137,23.9,204.8-2
		c80.5-30.7,103.5-96.3,180-154.8c34.1-26.1,74.7-44.2,126-61.6c169.7-57.6,268.6,16.4,482.7-46.7c113.1-33.3,232.3-106.2,337-213.8
		"/>
	<path class="st1" d="M-331.9,292.3c64.5,8.9,158.3,22.6,265.2,46C-6.9,351.4,42,362.7,83.2,371.9c93.3,20.8,137.8,35.3,208.3,13.4
		c83.9-26,106.3-89.7,181.6-151c32.6-26.5,72.2-47.5,123.5-67.9c172.4-68.7,268.2,1,481.4-68.6c107.8-35.2,224.8-106.4,331.1-216.5"
		/>
	<path class="st1" d="M-330.8,287.1c63.8,6.2,157.2,17.3,264.6,41.5c60.1,13.5,108.4,26.5,148.7,37.8
		c93.7,26.2,138.6,46.9,211.8,28.9c87.3-21.5,109.2-83.3,183.2-147.4c31.1-27,69.6-50.8,121-74.3c174.9-79.8,267.9-14,480-90.3
		c102.6-36.9,217.4-106.6,325.1-219.2"/>
	<path class="st1" d="M-329.7,281.8c63,3.5,156.1,11.9,264.1,36.9c49.8,11.5,99,25.5,147.4,42c93.9,31.8,139.4,58.5,215.3,44.3
		c90.8-16.7,112.3-76.7,184.8-143.6c29.7-27.4,67-54.1,118.6-80.6c177.3-91,267.8-28.7,478.7-112.1
		c97.3-38.5,209.9-106.7,319.1-221.9"/>
	<path class="st1" d="M-328.6,276.6c88.8,1,177.1,11.9,263.5,32.4c207.5,49.5,254,120.2,365,105.8c131.6-17,120.6-123.3,302.4-226.8
		c179.5-102.2,268-43,477.4-133.9C1172,14,1282.1-52.8,1392.9-170.5"/>
</g>
<g>
	<g>
		<defs>
			<circle id="SVGID_1_" cx="945" cy="297.9" r="71.9"/>
		</defs>
		<clipPath id="SVGID_2_">
			<use xlink:href="#SVGID_1_"  style="overflow:visible;"/>
		</clipPath>
		<g class="st2">
			
				<image style="overflow:visible;enable-background:new    ;" width="1610" height="1276" xlink:href="../../../Desktop/Screenshot 2021-06-26 at 23.21.16.png"  transform="matrix(0.1504 0 0 0.1504 821.1357 217.6955)">
			</image>
		</g>
	</g>
	<circle class="st3" cx="945" cy="297.9" r="71.9"/>
</g>
</svg>
