<?xml version="1.0" encoding="utf-8"?>
<!-- Generator: Adobe Illustrator 23.0.1, SVG Export Plug-In . SVG Version: 6.00 Build 0)  -->
<svg version="1.1" id="Layer_1" xmlns="http://www.w3.org/2000/svg" xmlns:xlink="http://www.w3.org/1999/xlink" x="0px" y="0px"
	 viewBox="0 0 518.1 299.5" style="enable-background:new 0 0 518.1 299.5;" xml:space="preserve">
<style type="text/css">
	.st0{fill:none;}
	.st1{opacity:0.31;}
	.st2{clip-path:url(#SVGID_2_);fill:none;stroke:#0A4A4A;stroke-width:0.25;stroke-miterlimit:10;}
	.st3{fill:#E6E7E8;}
</style>
<rect class="st0" width="518.1" height="299.2"/>
<g class="st1">
	<g>
		<defs>
			<rect id="SVGID_1_" x="381.9" y="138.8" width="272.5" height="272.5"/>
		</defs>
		<clipPath id="SVGID_2_">
			<use xlink:href="#SVGID_1_"  style="overflow:visible;"/>
		</clipPath>
		<path class="st2" d="M623.3,188.6c-47.7-58-133.7-66.3-191.6-18.6S365.3,303.6,413,361.6c47.7,58,133.7,66.3,191.6,18.6
			C662.6,332.5,671,246.6,623.3,188.6z"/>
		<path class="st2" d="M623.1,190.7c-47.2-57.4-132.2-65.6-189.6-18.4c-57.4,47.2-65.6,132.2-18.4,189.6
			c47.2,57.4,132.2,65.6,189.6,18.4C662,333.1,670.3,248,623.1,190.7z"/>
		<path class="st2" d="M622.9,192.7c-46.7-56.7-130.8-64.9-187.5-18.2c-56.7,46.7-64.9,130.8-18.2,187.5
			c46.7,56.7,130.8,64.9,187.5,18.2C661.4,333.6,669.6,249.5,622.9,192.7z"/>
		<path class="st2" d="M622.7,194.8c-46.2-56.1-129.3-64.2-185.4-18c-56.1,46.2-64.2,129.3-18,185.4c46.2,56.1,129.3,64.2,185.4,18
			C660.8,334.1,668.9,250.9,622.7,194.8z"/>
		<path class="st2" d="M622.5,196.9c-45.6-55.5-127.9-63.5-183.4-17.8c-55.5,45.6-63.5,127.9-17.8,183.4
			c45.6,55.5,127.9,63.5,183.4,17.8C660.1,334.6,668.1,252.3,622.5,196.9z"/>
		<path class="st2" d="M622.3,198.9c-45.1-54.9-126.5-62.8-181.3-17.6c-54.9,45.1-62.8,126.5-17.6,181.3
			c45.1,54.9,126.5,62.8,181.3,17.6C659.5,335.1,667.4,253.8,622.3,198.9z"/>
		<path class="st2" d="M622.1,201c-44.6-54.2-125-62-179.2-17.4c-54.2,44.6-62,125-17.4,179.2c44.6,54.2,125,62,179.2,17.4
			C658.9,335.6,666.7,255.2,622.1,201z"/>
		<path class="st2" d="M621.9,203.1c-44.1-53.6-123.6-61.3-177.2-17.2c-53.6,44.1-61.3,123.6-17.2,177.2
			c44.1,53.6,123.6,61.3,177.2,17.2C658.3,336.2,666,256.7,621.9,203.1z"/>
		<path class="st2" d="M621.7,205.2c-43.6-53-122.1-60.6-175.1-17c-53,43.6-60.6,122.1-17,175.1c43.6,53,122.1,60.6,175.1,17
			C657.6,336.7,665.3,258.1,621.7,205.2z"/>
		<path class="st2" d="M621.5,207.2c-43.1-52.4-120.7-59.9-173-16.8c-52.4,43.1-59.9,120.7-16.8,173c43.1,52.4,120.7,59.9,173,16.8
			C657,337.2,664.6,259.6,621.5,207.2z"/>
		<path class="st2" d="M621.3,209.3c-42.6-51.7-119.2-59.2-171-16.6c-51.7,42.6-59.2,119.2-16.6,171c42.6,51.7,119.2,59.2,171,16.6
			C656.4,337.7,663.9,261,621.3,209.3z"/>
		<path class="st2" d="M621.1,211.4c-42-51.1-117.8-58.5-168.9-16.4c-51.1,42-58.5,117.8-16.4,168.9c42,51.1,117.8,58.5,168.9,16.4
			C655.8,338.2,663.1,262.5,621.1,211.4z"/>
		<path class="st2" d="M620.9,213.4c-41.5-50.5-116.4-57.8-166.8-16.2c-50.5,41.5-57.8,116.4-16.2,166.8
			c41.5,50.5,116.4,57.8,166.8,16.2C655.2,338.7,662.4,263.9,620.9,213.4z"/>
		<path class="st2" d="M620.7,215.5c-41-49.9-114.9-57-164.8-16c-49.9,41-57,114.9-16,164.8c41,49.9,114.9,57,164.8,16
			C654.5,339.3,661.7,265.4,620.7,215.5z"/>
		<path class="st2" d="M620.5,217.6C580,168.3,507,161.3,457.8,201.8c-49.2,40.5-56.3,113.5-15.8,162.7
			c40.5,49.2,113.5,56.3,162.7,15.8C653.9,339.8,661,266.8,620.5,217.6z"/>
		<path class="st2" d="M620.3,219.6c-40-48.6-112-55.6-160.6-15.6c-48.6,40-55.6,112-15.6,160.6c40,48.6,112,55.6,160.6,15.6
			C653.3,340.3,660.3,268.2,620.3,219.6z"/>
		<path class="st2" d="M620.1,221.7c-39.5-48-110.6-54.9-158.6-15.4s-54.9,110.6-15.4,158.6c39.5,48,110.6,54.9,158.6,15.4
			C652.7,340.8,659.6,269.7,620.1,221.7z"/>
		<path class="st2" d="M619.9,223.8c-39-47.4-109.1-54.2-156.5-15.2c-47.4,39-54.2,109.1-15.2,156.5c39,47.4,109.1,54.2,156.5,15.2
			C652,341.3,658.9,271.1,619.9,223.8z"/>
		<path class="st2" d="M619.7,225.9c-38.4-46.7-107.7-53.5-154.4-15c-46.7,38.4-53.5,107.7-15,154.4c38.4,46.7,107.7,53.5,154.4,15
			C651.4,341.8,658.2,272.6,619.7,225.9z"/>
		<path class="st2" d="M619.5,227.9c-37.9-46.1-106.3-52.7-152.4-14.8c-46.1,37.9-52.7,106.3-14.8,152.4s106.3,52.7,152.4,14.8
			C650.8,342.4,657.4,274,619.5,227.9z"/>
		
			<ellipse transform="matrix(0.4742 -0.8804 0.8804 0.4742 20.0453 629.2311)" class="st2" cx="536.9" cy="297.8" rx="106.8" ry="106.8"/>
		
			<ellipse transform="matrix(0.7071 -0.7071 0.7071 0.7071 -53.8874 467.8435)" class="st2" cx="537.8" cy="299" rx="105.3" ry="105.3"/>
		
			<ellipse transform="matrix(0.6302 -0.7764 0.7764 0.6302 -33.792 529.2617)" class="st2" cx="538.7" cy="300.1" rx="103.8" ry="103.8"/>
		<path class="st2" d="M618.7,236.2c-35.9-43.6-100.5-49.9-144.1-14c-43.6,35.9-49.9,100.5-14,144.1c35.9,43.6,100.5,49.9,144.1,14
			C648.3,344.4,654.6,279.8,618.7,236.2z"/>
		<path class="st2" d="M618.5,238.3c-35.4-43-99-49.2-142-13.8c-43,35.4-49.2,99-13.8,142s99,49.2,142,13.8
			C647.7,344.9,653.9,281.3,618.5,238.3z"/>
		<path class="st2" d="M618.3,240.4c-34.8-42.4-97.6-48.5-139.9-13.6c-42.4,34.8-48.5,97.6-13.6,139.9s97.6,48.5,139.9,13.6
			S653.2,282.7,618.3,240.4z"/>
		<ellipse transform="matrix(0.8891 -0.4577 0.4577 0.8891 -79.2845 282.086)" class="st2" cx="542.5" cy="304.7" rx="98" ry="98"/>
		<path class="st2" d="M617.9,244.5c-33.8-41.1-94.7-47-135.8-13.2s-47,94.7-13.2,135.8c33.8,41.1,94.7,47,135.8,13.2
			C645.8,346.5,651.7,285.6,617.9,244.5z"/>
		<path class="st2" d="M617.7,246.6c-33.3-40.5-93.3-46.3-133.7-13c-40.5,33.3-46.3,93.3-13,133.7c33.3,40.5,93.3,46.3,133.7,13
			C645.2,347,651,287,617.7,246.6z"/>
		<path class="st2" d="M617.5,248.6c-32.8-39.9-91.8-45.6-131.7-12.8c-39.9,32.8-45.6,91.8-12.8,131.7
			c32.8,39.9,91.8,45.6,131.7,12.8C644.6,347.5,650.3,288.5,617.5,248.6z"/>
		<path class="st2" d="M617.3,250.7c-32.3-39.2-90.4-44.9-129.6-12.6c-39.2,32.3-44.9,90.4-12.6,129.6s90.4,44.9,129.6,12.6
			C643.9,348,649.6,289.9,617.3,250.7z"/>
		<path class="st2" d="M617.1,252.8c-31.8-38.6-88.9-44.2-127.5-12.4c-38.6,31.8-44.2,88.9-12.4,127.5s88.9,44.2,127.5,12.4
			C643.3,348.6,648.9,291.4,617.1,252.8z"/>
		<path class="st2" d="M616.9,254.8c-31.2-38-87.5-43.4-125.5-12.2s-43.4,87.5-12.2,125.5c31.2,38,87.5,43.4,125.5,12.2
			S648.2,292.8,616.9,254.8z"/>
		<path class="st2" d="M616.7,256.9c-30.7-37.4-86-42.7-123.4-12s-42.7,86-12,123.4c30.7,37.4,86,42.7,123.4,12
			C642.1,349.6,647.5,294.3,616.7,256.9z"/>
		<path class="st2" d="M616.5,259c-30.2-36.7-84.6-42-121.3-11.8c-36.7,30.2-42,84.6-11.8,121.3c30.2,36.7,84.6,42,121.3,11.8
			C641.4,350.1,646.7,295.7,616.5,259z"/>
		<path class="st2" d="M616.3,261.1c-29.7-36.1-83.2-41.3-119.3-11.6c-36.1,29.7-41.3,83.2-11.6,119.3
			c29.7,36.1,83.2,41.3,119.3,11.6C640.8,350.6,646,297.2,616.3,261.1z"/>
		<path class="st2" d="M616.1,263.1c-29.2-35.5-81.7-40.6-117.2-11.4c-35.5,29.2-40.6,81.7-11.4,117.2
			c29.2,35.5,81.7,40.6,117.2,11.4C640.2,351.1,645.3,298.6,616.1,263.1z"/>
		
			<ellipse transform="matrix(9.826607e-02 -0.9952 0.9952 9.826607e-02 182.8164 836.0813)" class="st2" cx="552.8" cy="317.2" rx="81.8" ry="81.8"/>
		<path class="st2" d="M615.7,267.3c-28.2-34.2-78.8-39.2-113.1-11c-34.2,28.2-39.2,78.8-11,113.1c28.2,34.2,78.8,39.2,113.1,11
			C639,352.2,643.9,301.5,615.7,267.3z"/>
		<path class="st2" d="M615.5,269.3c-27.6-33.6-77.4-38.4-111-10.8c-33.6,27.6-38.4,77.4-10.8,111c27.6,33.6,77.4,38.4,111,10.8
			C638.3,352.7,643.2,302.9,615.5,269.3z"/>
		<path class="st2" d="M615.3,271.4c-27.1-33-75.9-37.7-108.9-10.6c-33,27.1-37.7,75.9-10.6,108.9c27.1,33,75.9,37.7,108.9,10.6
			C637.7,353.2,642.5,304.4,615.3,271.4z"/>
		<path class="st2" d="M615.1,273.5c-26.6-32.4-74.5-37-106.9-10.4c-32.4,26.6-37,74.5-10.4,106.9s74.5,37,106.9,10.4
			C637.1,353.7,641.7,305.8,615.1,273.5z"/>
		<path class="st2" d="M614.9,275.5c-26.1-31.7-73.1-36.3-104.8-10.2s-36.3,73.1-10.2,104.8c26.1,31.7,73.1,36.3,104.8,10.2
			C636.5,354.2,641,307.3,614.9,275.5z"/>
		<path class="st2" d="M614.7,277.6c-25.6-31.1-71.6-35.6-102.7-10s-35.6,71.6-10,102.7c25.6,31.1,71.6,35.6,102.7,10
			C635.8,354.8,640.3,308.7,614.7,277.6z"/>
		<path class="st2" d="M614.5,279.7c-25.1-30.5-70.2-34.9-100.7-9.8c-30.5,25.1-34.9,70.2-9.8,100.7c25.1,30.5,70.2,34.9,100.7,9.8
			C635.2,355.3,639.6,310.2,614.5,279.7z"/>
		<path class="st2" d="M614.3,281.8c-24.6-29.9-68.7-34.1-98.6-9.6c-29.9,24.6-34.1,68.7-9.6,98.6c24.6,29.9,68.7,34.1,98.6,9.6
			C634.6,355.8,638.9,311.6,614.3,281.8z"/>
	</g>
</g>
<rect class="st3" width="518.1" height="299.2"/>
</svg>
