<?xml version="1.0" encoding="utf-8"?>
<!-- Generator: Adobe Illustrator 23.0.1, SVG Export Plug-In . SVG Version: 6.00 Build 0)  -->
<svg version="1.1" id="Layer_1" xmlns="http://www.w3.org/2000/svg" xmlns:xlink="http://www.w3.org/1999/xlink" x="0px" y="0px"
	 viewBox="0 0 1041.4 553" style="enable-background:new 0 0 1041.4 553;" xml:space="preserve">
<style type="text/css">
	.st0{fill:#8D0015;}
	.st1{fill:#002A38;}
	.st2{opacity:0.1;}
	.st3{fill:#606060;}
</style>
<title>h-bg</title>
<path class="st0" d="M841.5,93.7"/>
<path class="st1" d="M841.5,93.7"/>
<g class="st2">
	<path class="st3" d="M540.1,458.8c0,1.3-1.1,2.4-2.4,2.4c-1.3,0-2.4-1.1-2.4-2.4s1.1-2.4,2.4-2.4S540,457.5,540.1,458.8z"/>
	<path class="st3" d="M552.7,458.8c0,1.3-1.1,2.4-2.4,2.4c-1.3,0-2.4-1.1-2.4-2.4s1.1-2.4,2.4-2.4
		C551.6,456.4,552.7,457.5,552.7,458.8z"/>
	<path class="st3" d="M565.5,458.8c0,1.3-1.1,2.4-2.4,2.4c-1.3,0-2.4-1.1-2.4-2.4s1.1-2.4,2.4-2.4l0,0
		C564.4,456.4,565.5,457.5,565.5,458.8z"/>
	<path class="st3" d="M578.2,458.8c0,1.3-1.1,2.4-2.4,2.4c-1.3,0-2.4-1.1-2.4-2.4s1.1-2.4,2.4-2.4l0,0
		C577.2,456.4,578.2,457.5,578.2,458.8z"/>
	<path class="st3" d="M591,458.8c0,1.3-1.1,2.4-2.4,2.4c-1.3,0-2.4-1.1-2.4-2.4s1.1-2.4,2.4-2.4S590.9,457.5,591,458.8z"/>
	<path class="st3" d="M603.6,458.8c0,1.3-1.1,2.4-2.4,2.4c-1.3,0-2.4-1.1-2.4-2.4s1.1-2.4,2.4-2.4
		C602.6,456.4,603.6,457.4,603.6,458.8z"/>
	<circle class="st3" cx="614" cy="458.7" r="2.4"/>
	<path class="st3" d="M629.2,458.7c0,1.3-1.1,2.4-2.4,2.4c-1.3,0-2.4-1.1-2.4-2.4s1.1-2.4,2.4-2.4
		C628.1,456.4,629.1,457.4,629.2,458.7z"/>
	<circle class="st3" cx="639.5" cy="458.7" r="2.4"/>
	<circle class="st3" cx="652.2" cy="458.8" r="2.4"/>
	<circle class="st3" cx="664.9" cy="458.8" r="2.4"/>
	<path class="st3" d="M680.1,458.7c0,1.3-1.1,2.4-2.4,2.4c-1.3,0-2.4-1.1-2.4-2.4s1.1-2.4,2.4-2.4
		C679,456.3,680.1,457.4,680.1,458.7z"/>
	<path class="st3" d="M692.8,458.7c0,1.3-1.1,2.4-2.4,2.4c-1.3,0-2.4-1.1-2.4-2.4s1.1-2.4,2.4-2.4
		C691.8,456.3,692.8,457.4,692.8,458.7z"/>
	<path class="st3" d="M705.5,458.7c0,1.3-1.1,2.4-2.4,2.4c-1.3,0-2.4-1.1-2.4-2.4s1.1-2.4,2.4-2.4l0,0
		C704.4,456.3,705.5,457.3,705.5,458.7L705.5,458.7z"/>
	<path class="st3" d="M718.3,458.7c0,1.3-1.1,2.4-2.4,2.4c-1.3,0-2.4-1.1-2.4-2.4s1.1-2.4,2.4-2.4S718.2,457.4,718.3,458.7z"/>
	<path class="st3" d="M731,458.7c0,1.3-1.1,2.4-2.4,2.4c-1.3,0-2.4-1.1-2.4-2.4s1.1-2.4,2.4-2.4S731,457.4,731,458.7z"/>
	<path class="st3" d="M743.8,458.7c0,1.3-1.1,2.4-2.4,2.4c-1.3,0-2.4-1.1-2.4-2.4s1.1-2.4,2.4-2.4l0,0
		C742.7,456.3,743.8,457.4,743.8,458.7z"/>
	<path class="st3" d="M540.1,471.1c0,1.3-1.1,2.4-2.4,2.4c-1.3,0-2.4-1.1-2.4-2.4s1.1-2.4,2.4-2.4
		C539,468.8,540.1,469.8,540.1,471.1z"/>
	<path class="st3" d="M552.7,471.1c0,1.3-1.1,2.4-2.4,2.4c-1.3,0-2.4-1.1-2.4-2.4s1.1-2.4,2.4-2.4
		C551.7,468.8,552.7,469.8,552.7,471.1z"/>
	<path class="st3" d="M565.5,471.1c0,1.3-1.1,2.4-2.4,2.4c-1.3,0-2.4-1.1-2.4-2.4s1.1-2.4,2.4-2.4l0,0
		C564.4,468.8,565.5,469.8,565.5,471.1z"/>
	<path class="st3" d="M578.2,471.1c0,1.3-1.1,2.4-2.4,2.4c-1.3,0-2.4-1.1-2.4-2.4s1.1-2.4,2.4-2.4
		C577.2,468.8,578.2,469.8,578.2,471.1z"/>
	<path class="st3" d="M591,471.1c0,1.3-1.1,2.4-2.4,2.4c-1.3,0-2.4-1.1-2.4-2.4s1.1-2.4,2.4-2.4C589.9,468.8,590.9,469.8,591,471.1z
		"/>
	<path class="st3" d="M603.7,471.1c0,1.3-1.1,2.4-2.4,2.4c-1.3,0-2.4-1.1-2.4-2.4s1.1-2.4,2.4-2.4l0,0
		C602.6,468.8,603.6,469.8,603.7,471.1z"/>
	<path class="st3" d="M616.4,471.1c0,1.3-1.1,2.4-2.4,2.4c-1.3,0-2.4-1.1-2.4-2.4s1.1-2.4,2.4-2.4
		C615.3,468.8,616.4,469.8,616.4,471.1z"/>
	<path class="st3" d="M629.2,471.1c0,1.3-1.1,2.4-2.4,2.4c-1.3,0-2.4-1.1-2.4-2.4s1.1-2.4,2.4-2.4
		C628.1,468.8,629.2,469.8,629.2,471.1z"/>
	<path class="st3" d="M642,471.1c0,1.3-1.1,2.4-2.4,2.4c-1.3,0-2.4-1.1-2.4-2.4s1.1-2.4,2.4-2.4l0,0
		C640.9,468.8,641.9,469.8,642,471.1z"/>
	<path class="st3" d="M654.6,471.1c0,1.3-1.1,2.4-2.4,2.4c-1.3,0-2.4-1.1-2.4-2.4s1.1-2.4,2.4-2.4l0,0
		C653.5,468.8,654.6,469.8,654.6,471.1z"/>
	<path class="st3" d="M667.3,471.1c0,1.3-1.1,2.4-2.4,2.4c-1.3,0-2.4-1.1-2.4-2.4s1.1-2.4,2.4-2.4
		C666.3,468.8,667.3,469.8,667.3,471.1z"/>
	<path class="st3" d="M680.1,471.1c0,1.3-1.1,2.4-2.4,2.4c-1.3,0-2.4-1.1-2.4-2.4s1.1-2.4,2.4-2.4S680.1,469.8,680.1,471.1z"/>
	<path class="st3" d="M692.9,471.1c0,1.3-1.1,2.4-2.4,2.4c-1.3,0-2.4-1.1-2.4-2.4s1.1-2.4,2.4-2.4l0,0
		C691.8,468.7,692.8,469.7,692.9,471.1z"/>
	<path class="st3" d="M705.5,471c0,1.3-1.1,2.4-2.4,2.4c-1.3,0-2.4-1.1-2.4-2.4s1.1-2.4,2.4-2.4S705.5,469.7,705.5,471L705.5,471z"
		/>
	<path class="st3" d="M718.3,471c0,1.3-1.1,2.4-2.4,2.4c-1.3,0-2.4-1.1-2.4-2.4s1.1-2.4,2.4-2.4C717.2,468.7,718.3,469.7,718.3,471z
		"/>
	<path class="st3" d="M731,471c0,1.3-1.1,2.4-2.4,2.4c-1.3,0-2.4-1.1-2.4-2.4s1.1-2.4,2.4-2.4l0,0C730,468.7,731,469.7,731,471z"/>
	<path class="st3" d="M743.8,471c0,1.3-1.1,2.4-2.4,2.4c-1.3,0-2.4-1.1-2.4-2.4s1.1-2.4,2.4-2.4l0,0
		C742.7,468.7,743.8,469.7,743.8,471z"/>
	<path class="st3" d="M540.1,483.5c0,1.3-1.1,2.4-2.4,2.4c-1.3,0-2.4-1.1-2.4-2.4s1.1-2.4,2.4-2.4
		C539,481.2,540.1,482.2,540.1,483.5z"/>
	<path class="st3" d="M552.7,483.5c0,1.3-1.1,2.4-2.4,2.4c-1.3,0-2.4-1.1-2.4-2.4s1.1-2.4,2.4-2.4l0,0
		C551.7,481.1,552.7,482.2,552.7,483.5z"/>
	<path class="st3" d="M565.5,483.5c0,1.3-1.1,2.4-2.4,2.4c-1.3,0-2.4-1.1-2.4-2.4s1.1-2.4,2.4-2.4S565.5,482.2,565.5,483.5z"/>
	<path class="st3" d="M578.2,483.5c0,1.3-1,2.4-2.4,2.4c-1.3,0-2.4-1-2.4-2.4c0-1.3,1-2.4,2.4-2.4l0,0
		C577.2,481.1,578.2,482.2,578.2,483.5z"/>
	<path class="st3" d="M591,483.5c0,1.3-1.1,2.4-2.4,2.4c-1.3,0-2.4-1.1-2.4-2.4s1.1-2.4,2.4-2.4l0,0
		C589.9,481.1,591,482.2,591,483.5z"/>
	<path class="st3" d="M603.7,483.5c0,1.3-1.1,2.4-2.4,2.4c-1.3,0-2.4-1.1-2.4-2.4s1.1-2.4,2.4-2.4l0,0
		C602.6,481.1,603.6,482.2,603.7,483.5z"/>
	<path class="st3" d="M616.4,483.5c0,1.3-1.1,2.4-2.4,2.4c-1.3,0-2.4-1.1-2.4-2.4s1.1-2.4,2.4-2.4
		C615.3,481.1,616.4,482.2,616.4,483.5z"/>
	<path class="st3" d="M629.2,483.5c0,1.3-1.1,2.4-2.4,2.4c-1.3,0-2.4-1.1-2.4-2.4s1.1-2.4,2.4-2.4S629.2,482.1,629.2,483.5z"/>
	<path class="st3" d="M642,483.5c0,1.3-1.1,2.4-2.4,2.4c-1.3,0-2.4-1.1-2.4-2.4s1.1-2.4,2.4-2.4l0,0
		C640.9,481.1,641.9,482.1,642,483.5z"/>
	<path class="st3" d="M654.6,483.4c0,1.3-1.1,2.4-2.4,2.4c-1.3,0-2.4-1.1-2.4-2.4s1.1-2.4,2.4-2.4
		C653.5,481.1,654.6,482.1,654.6,483.4z"/>
	<path class="st3" d="M667.3,483.4c0,1.3-1.1,2.4-2.4,2.4c-1.3,0-2.4-1.1-2.4-2.4s1.1-2.4,2.4-2.4
		C666.3,481.1,667.3,482.1,667.3,483.4z"/>
	<path class="st3" d="M680.1,483.4c0,1.3-1.1,2.4-2.4,2.4c-1.3,0-2.4-1.1-2.4-2.4s1.1-2.4,2.4-2.4l0,0
		C679,481.1,680.1,482.1,680.1,483.4z"/>
	<path class="st3" d="M692.9,483.4c0,1.3-1.1,2.4-2.4,2.4c-1.3,0-2.4-1.1-2.4-2.4s1.1-2.4,2.4-2.4
		C691.8,481,692.8,482.1,692.9,483.4z"/>
	<path class="st3" d="M705.5,483.4c0,1.3-1.1,2.4-2.4,2.4c-1.3,0-2.4-1.1-2.4-2.4s1.1-2.4,2.4-2.4S705.5,482,705.5,483.4
		L705.5,483.4z"/>
	<path class="st3" d="M718.3,483.4c0,1.3-1.1,2.4-2.4,2.4c-1.3,0-2.4-1.1-2.4-2.4s1.1-2.4,2.4-2.4S718.3,482.1,718.3,483.4z"/>
	<path class="st3" d="M731,483.4c0,1.3-1.1,2.4-2.4,2.4c-1.3,0-2.4-1.1-2.4-2.4s1.1-2.4,2.4-2.4l0,0C730,481,731,482.1,731,483.4z"
		/>
	<path class="st3" d="M743.8,483.4c0,1.3-1.1,2.4-2.4,2.4s-2.4-1.1-2.4-2.4s1.1-2.4,2.4-2.4S743.8,482.1,743.8,483.4z"/>
	<path class="st3" d="M540.1,495.9c0,1.3-1.1,2.4-2.4,2.4c-1.3,0-2.4-1.1-2.4-2.4s1.1-2.4,2.4-2.4l0,0
		C539,493.5,540.1,494.6,540.1,495.9z"/>
	<path class="st3" d="M552.7,495.9c0,1.3-1.1,2.4-2.4,2.4c-1.3,0-2.4-1.1-2.4-2.4s1.1-2.4,2.4-2.4l0,0
		C551.7,493.5,552.7,494.6,552.7,495.9z"/>
	<path class="st3" d="M565.5,495.9c0,1.3-1.1,2.4-2.4,2.4c-1.3,0-2.4-1.1-2.4-2.4s1.1-2.4,2.4-2.4S565.5,494.5,565.5,495.9z"/>
	<path class="st3" d="M578.3,495.8c0,1.3-1.1,2.4-2.4,2.4c-1.3,0-2.4-1.1-2.4-2.4s1.1-2.4,2.4-2.4
		C577.2,493.5,578.2,494.5,578.3,495.8z"/>
	<path class="st3" d="M591,495.8c0,1.3-1.1,2.4-2.4,2.4c-1.3,0-2.4-1.1-2.4-2.4s1.1-2.4,2.4-2.4l0,0
		C589.9,493.5,591,494.5,591,495.8z"/>
	<path class="st3" d="M603.7,495.8c0,1.3-1.1,2.4-2.4,2.4c-1.3,0-2.4-1.1-2.4-2.4s1.1-2.4,2.4-2.4
		C602.6,493.5,603.7,494.5,603.7,495.8z"/>
	<circle class="st3" cx="614" cy="495.9" r="2.4"/>
	<path class="st3" d="M629.2,495.8c0,1.3-1.1,2.4-2.4,2.4c-1.3,0-2.4-1.1-2.4-2.4s1.1-2.4,2.4-2.4l0,0
		C628.1,493.4,629.2,494.5,629.2,495.8z"/>
	<circle class="st3" cx="639.5" cy="495.8" r="2.4"/>
	<circle class="st3" cx="652.2" cy="495.8" r="2.4"/>
	<circle class="st3" cx="664.9" cy="495.8" r="2.4"/>
	<path class="st3" d="M680.1,495.8c0,1.3-1.1,2.4-2.4,2.4c-1.3,0-2.4-1.1-2.4-2.4s1.1-2.4,2.4-2.4l0,0
		C679,493.4,680.1,494.5,680.1,495.8z"/>
	<path class="st3" d="M692.9,495.8c0,1.3-1.1,2.4-2.4,2.4c-1.3,0-2.4-1.1-2.4-2.4s1.1-2.4,2.4-2.4
		C691.8,493.4,692.9,494.5,692.9,495.8z"/>
	<path class="st3" d="M705.5,495.8c0,1.3-1.1,2.4-2.4,2.4c-1.3,0-2.4-1.1-2.4-2.4s1.1-2.4,2.4-2.4S705.5,494.4,705.5,495.8
		C705.5,495.7,705.5,495.7,705.5,495.8z"/>
	<path class="st3" d="M718.3,495.8c0,1.3-1.1,2.4-2.4,2.4c-1.3,0-2.4-1.1-2.4-2.4s1.1-2.4,2.4-2.4l0,0
		C717.2,493.4,718.3,494.4,718.3,495.8z"/>
	<path class="st3" d="M731,495.8c0,1.3-1.1,2.4-2.4,2.4c-1.3,0-2.4-1.1-2.4-2.4s1.1-2.4,2.4-2.4C730,493.4,731,494.4,731,495.8z"/>
	<path class="st3" d="M743.8,495.7c0,1.3-1.1,2.4-2.4,2.4c-1.3,0-2.4-1.1-2.4-2.4s1.1-2.4,2.4-2.4
		C742.7,493.4,743.8,494.4,743.8,495.7z"/>
	<path class="st3" d="M540.1,508.2c0,1.3-1.1,2.4-2.4,2.4c-1.3,0-2.4-1.1-2.4-2.4s1.1-2.4,2.4-2.4l0,0
		C539,505.9,540.1,506.9,540.1,508.2z"/>
	<path class="st3" d="M552.7,508.2c0,1.3-1.1,2.4-2.4,2.4c-1.3,0-2.4-1.1-2.4-2.4s1.1-2.4,2.4-2.4
		C551.7,505.8,552.7,506.9,552.7,508.2z"/>
	<path class="st3" d="M565.5,508.2c0,1.3-1.1,2.4-2.4,2.4c-1.3,0-2.4-1.1-2.4-2.4s1.1-2.4,2.4-2.4S565.5,506.9,565.5,508.2z"/>
	<path class="st3" d="M578.3,508.2c0,1.3-1.1,2.4-2.4,2.4c-1.3,0-2.4-1.1-2.4-2.4s1.1-2.4,2.4-2.4l0,0
		C577.2,505.8,578.2,506.9,578.3,508.2z"/>
	<path class="st3" d="M591,508.2c0,1.3-1.1,2.4-2.4,2.4c-1.3,0-2.4-1.1-2.4-2.4s1.1-2.4,2.4-2.4S591,506.9,591,508.2z"/>
	<path class="st3" d="M603.7,508.2c0,1.3-1.1,2.4-2.4,2.4c-1.3,0-2.4-1.1-2.4-2.4s1.1-2.4,2.4-2.4S603.7,506.9,603.7,508.2z"/>
	<path class="st3" d="M616.4,508.2c0,1.3-1.1,2.4-2.4,2.4c-1.3,0-2.4-1.1-2.4-2.4s1.1-2.4,2.4-2.4l0,0
		C615.4,505.8,616.4,506.9,616.4,508.2z"/>
	<path class="st3" d="M629.2,508.2c0,1.3-1.1,2.4-2.4,2.4c-1.3,0-2.4-1.1-2.4-2.4s1.1-2.4,2.4-2.4S629.2,506.9,629.2,508.2z"/>
	<path class="st3" d="M642,508.1c0,1.3-1.1,2.4-2.4,2.4c-1.3,0-2.4-1.1-2.4-2.4s1.1-2.4,2.4-2.4C640.9,505.8,641.9,506.8,642,508.1z
		"/>
	<path class="st3" d="M654.6,508.1c0,1.3-1.1,2.4-2.4,2.4c-1.3,0-2.4-1.1-2.4-2.4s1.1-2.4,2.4-2.4
		C653.5,505.8,654.6,506.8,654.6,508.1z"/>
	<path class="st3" d="M667.4,508.1c0,1.3-1.1,2.4-2.4,2.4c-1.3,0-2.4-1.1-2.4-2.4s1.1-2.4,2.4-2.4l0,0
		C666.3,505.8,667.4,506.8,667.4,508.1z"/>
	<path class="st3" d="M680.1,508.1c0,1.3-1.1,2.4-2.4,2.4c-1.3,0-2.4-1.1-2.4-2.4s1.1-2.4,2.4-2.4
		C679,505.8,680.1,506.8,680.1,508.1z"/>
	<path class="st3" d="M692.9,508.1c0,1.3-1.1,2.4-2.4,2.4c-1.3,0-2.4-1.1-2.4-2.4s1.1-2.4,2.4-2.4
		C691.8,505.8,692.9,506.8,692.9,508.1z"/>
	<path class="st3" d="M705.5,508.1c0,1.3-1.1,2.4-2.4,2.4c-1.3,0-2.4-1.1-2.4-2.4s1.1-2.4,2.4-2.4l0,0
		C704.4,505.7,705.5,506.8,705.5,508.1L705.5,508.1z"/>
	<path class="st3" d="M718.3,508.1c0,1.3-1.1,2.4-2.4,2.4c-1.3,0-2.4-1.1-2.4-2.4s1.1-2.4,2.4-2.4l0,0
		C717.2,505.8,718.3,506.8,718.3,508.1z"/>
	<path class="st3" d="M731,508.1c0,1.3-1.1,2.4-2.4,2.4c-1.3,0-2.4-1.1-2.4-2.4s1.1-2.4,2.4-2.4C730,505.8,731,506.8,731,508.1z"/>
	<path class="st3" d="M743.8,508.1c0,1.3-1.1,2.4-2.4,2.4c-1.3,0-2.4-1.1-2.4-2.4s1.1-2.4,2.4-2.4
		C742.7,505.8,743.8,506.8,743.8,508.1z"/>
	<path class="st3" d="M540.1,520.6c0,1.3-1.1,2.4-2.4,2.4c-1.3,0-2.4-1.1-2.4-2.4c0-1.3,1.1-2.4,2.4-2.4
		C539,518.2,540.1,519.3,540.1,520.6z"/>
	<path class="st3" d="M552.8,520.6c0,1.3-1.1,2.4-2.4,2.4c-1.3,0-2.4-1.1-2.4-2.4c0-1.3,1.1-2.4,2.4-2.4
		C551.7,518.2,552.7,519.3,552.8,520.6z"/>
	<path class="st3" d="M565.5,520.6c0,1.3-1.1,2.4-2.4,2.4c-1.3,0-2.4-1.1-2.4-2.4c0-1.3,1.1-2.4,2.4-2.4l0,0
		C564.4,518.2,565.5,519.3,565.5,520.6z"/>
	<path class="st3" d="M578.3,520.6c0,1.3-1.1,2.4-2.4,2.4c-1.3,0-2.4-1.1-2.4-2.4c0-1.3,1.1-2.4,2.4-2.4
		C577.2,518.2,578.3,519.3,578.3,520.6z"/>
	<path class="st3" d="M591,520.6c0,1.3-1.1,2.4-2.4,2.4c-1.3,0-2.4-1.1-2.4-2.4c0-1.3,1.1-2.4,2.4-2.4
		C590,518.2,591,519.2,591,520.6z"/>
	<path class="st3" d="M603.7,520.5c0,1.3-1.1,2.4-2.4,2.4c-1.3,0-2.4-1.1-2.4-2.4c0-1.3,1.1-2.4,2.4-2.4
		C602.6,518.2,603.7,519.2,603.7,520.5z"/>
	<path class="st3" d="M616.4,520.5c0,1.3-1.1,2.4-2.4,2.4c-1.3,0-2.4-1.1-2.4-2.4c0-1.3,1.1-2.4,2.4-2.4l0,0
		C615.4,518.2,616.4,519.2,616.4,520.5z"/>
	<path class="st3" d="M629.2,520.5c0,1.3-1.1,2.4-2.4,2.4c-1.3,0-2.4-1.1-2.4-2.4c0-1.3,1.1-2.4,2.4-2.4
		C628.1,518.2,629.2,519.2,629.2,520.5z"/>
	<path class="st3" d="M642,520.5c0,1.3-1.1,2.4-2.4,2.4s-2.4-1.1-2.4-2.4c0-1.3,1.1-2.4,2.4-2.4S641.9,519.2,642,520.5z"/>
	<path class="st3" d="M654.6,520.5c0,1.3-1.1,2.4-2.4,2.4c-1.3,0-2.4-1.1-2.4-2.4c0-1.3,1.1-2.4,2.4-2.4l0,0
		C653.5,518.1,654.6,519.2,654.6,520.5z"/>
	<path class="st3" d="M667.4,520.5c0,1.3-1.1,2.4-2.4,2.4s-2.4-1.1-2.4-2.4c0-1.3,1.1-2.4,2.4-2.4
		C666.3,518.1,667.3,519.2,667.4,520.5z"/>
	<path class="st3" d="M680.1,520.5c0,1.3-1.1,2.4-2.4,2.4c-1.3,0-2.4-1.1-2.4-2.4c0-1.3,1.1-2.4,2.4-2.4
		C679.1,518.1,680.1,519.2,680.1,520.5z"/>
	<path class="st3" d="M692.9,520.5c0,1.3-1.1,2.4-2.4,2.4c-1.3,0-2.4-1.1-2.4-2.4c0-1.3,1.1-2.4,2.4-2.4l0,0
		C691.8,518.1,692.9,519.2,692.9,520.5z"/>
	<path class="st3" d="M705.5,520.5c0,1.3-1.1,2.4-2.4,2.4c-1.3,0-2.4-1.1-2.4-2.4c0-1.3,1.1-2.4,2.4-2.4l0,0
		C704.5,518.1,705.5,519.1,705.5,520.5C705.6,520.4,705.6,520.5,705.5,520.5z"/>
	<path class="st3" d="M718.3,520.5c0,1.3-1,2.4-2.4,2.4c-1.3,0-2.4-1-2.4-2.4c0-1.3,1-2.4,2.4-2.4h0.1
		C717.2,518.2,718.3,519.2,718.3,520.5z"/>
	<path class="st3" d="M731.1,520.5c0,1.3-1.1,2.4-2.4,2.4c-1.3,0-2.4-1.1-2.4-2.4c0-1.3,1.1-2.4,2.4-2.4S731,519.2,731.1,520.5z"/>
	<path class="st3" d="M743.8,520.5c0,1.3-1.1,2.4-2.4,2.4c-1.3,0-2.4-1.1-2.4-2.4c0-1.3,1.1-2.4,2.4-2.4l0,0
		C742.7,518.1,743.8,519.1,743.8,520.5z"/>
	<path class="st3" d="M540.1,533c0,1.3-1.1,2.4-2.4,2.4c-1.3,0-2.4-1.1-2.4-2.4c0-1.3,1.1-2.4,2.4-2.4c1.3-0.1,2.3,0.9,2.4,2.2
		C540.1,532.9,540.1,533,540.1,533z"/>
	<path class="st3" d="M552.8,533c0,1.3-1.1,2.4-2.4,2.4c-1.3,0-2.4-1.1-2.4-2.4c0-1.3,1.1-2.4,2.4-2.4l0,0
		C551.7,530.6,552.8,531.7,552.8,533L552.8,533z"/>
	<path class="st3" d="M565.5,533c0,1.3-1.1,2.4-2.4,2.4c-1.3,0-2.4-1.1-2.4-2.4c0-1.3,1.1-2.4,2.4-2.4l0,0
		C564.4,530.6,565.5,531.7,565.5,533L565.5,533z"/>
	<path class="st3" d="M578.3,533c0,1.3-1.1,2.4-2.4,2.4c-1.3,0-2.4-1.1-2.4-2.4c0-1.3,1.1-2.4,2.4-2.4c1.3-0.1,2.3,0.9,2.4,2.2
		C578.3,532.9,578.3,533,578.3,533z"/>
	<path class="st3" d="M591,533c0,1.3-1.1,2.4-2.4,2.4c-1.3,0-2.4-1.1-2.4-2.4c0-1.3,1.1-2.4,2.4-2.4c1.3-0.1,2.3,0.9,2.4,2.2
		C591,532.9,591,533,591,533z"/>
	<path class="st3" d="M603.7,533c0,1.3-1.1,2.4-2.4,2.4c-1.3,0-2.4-1.1-2.4-2.4c0-1.3,1.1-2.4,2.4-2.4l0,0c1.3-0.1,2.3,0.9,2.4,2.2
		C603.7,532.9,603.7,532.9,603.7,533z"/>
	<circle class="st3" cx="614.1" cy="533" r="2.4"/>
	<path class="st3" d="M629.2,533c0,1.3-1.1,2.4-2.4,2.4c-1.3,0-2.4-1.1-2.4-2.4c0-1.3,1.1-2.4,2.4-2.4S629.2,531.6,629.2,533
		C629.2,532.9,629.2,533,629.2,533z"/>
	<circle class="st3" cx="639.5" cy="533" r="2.4"/>
	<circle class="st3" cx="652.2" cy="533" r="2.4"/>
	<circle class="st3" cx="665" cy="533" r="2.4"/>
	<path class="st3" d="M680.1,533c0,1.3-1.1,2.4-2.4,2.4c-1.3,0-2.4-1.1-2.4-2.4c0-1.3,1.1-2.4,2.4-2.4c1.3-0.1,2.3,0.9,2.4,2.2
		C680.1,532.8,680.1,532.9,680.1,533z"/>
	<path class="st3" d="M692.9,533c0,1.3-1.1,2.4-2.4,2.4c-1.3,0-2.4-1.1-2.4-2.4c0-1.3,1.1-2.4,2.4-2.4l0,0c1.3-0.1,2.3,0.9,2.4,2.2
		C692.9,532.8,692.9,532.9,692.9,533z"/>
	<path class="st3" d="M705.5,532.9c0,1.3-1.1,2.4-2.4,2.4c-1.3,0-2.4-1.1-2.4-2.4c0-1.3,1.1-2.4,2.4-2.4c1.2-0.1,2.3,0.9,2.4,2.1
		C705.6,532.7,705.6,532.8,705.5,532.9z"/>
	<path class="st3" d="M718.3,532.9c0,1.3-1.1,2.4-2.4,2.4c-1.3,0-2.4-1.1-2.4-2.4c0-1.3,1.1-2.4,2.4-2.4S718.3,531.6,718.3,532.9
		L718.3,532.9z"/>
	<path class="st3" d="M731.1,532.9c0,1.3-1.1,2.4-2.4,2.4c-1.3,0-2.4-1.1-2.4-2.4c0-1.3,1.1-2.4,2.4-2.4l0,0
		C730,530.5,731,531.6,731.1,532.9L731.1,532.9z"/>
	<path class="st3" d="M743.8,532.9c0,1.3-1.1,2.4-2.4,2.4c-1.3,0-2.4-1.1-2.4-2.4c0-1.3,1.1-2.4,2.4-2.4l0,0
		c1.3-0.1,2.3,0.9,2.4,2.2C743.8,532.8,743.8,532.9,743.8,532.9z"/>
	<path class="st3" d="M540.1,545.4c0,1.3-1.1,2.4-2.4,2.4c-1.3,0-2.4-1.1-2.4-2.4c0-1.3,1.1-2.4,2.4-2.4c1.3-0.1,2.3,0.9,2.4,2.2
		C540.1,545.3,540.1,545.3,540.1,545.4z"/>
	<path class="st3" d="M552.8,545.4c0,1.3-1.1,2.4-2.4,2.4c-1.3,0-2.4-1.1-2.4-2.4c0-1.3,1.1-2.4,2.4-2.4l0,0
		C551.7,543,552.8,544,552.8,545.4L552.8,545.4z"/>
	<path class="st3" d="M565.5,545.4c0,1.3-1.1,2.4-2.4,2.4c-1.3,0-2.4-1.1-2.4-2.4c0-1.3,1.1-2.4,2.4-2.4S565.5,544,565.5,545.4
		C565.5,545.3,565.5,545.4,565.5,545.4z"/>
	<path class="st3" d="M578.3,545.4c0,1.3-1.1,2.4-2.4,2.4c-1.3,0-2.4-1.1-2.4-2.4c0-1.3,1.1-2.4,2.4-2.4c1.3-0.1,2.3,0.9,2.4,2.2
		C578.3,545.3,578.3,545.3,578.3,545.4z"/>
	<path class="st3" d="M591,545.4c0,1.3-1.1,2.4-2.4,2.4c-1.3,0-2.4-1.1-2.4-2.4c0-1.3,1.1-2.4,2.4-2.4l0,0c1.3-0.1,2.3,0.9,2.4,2.2
		C591.1,545.3,591.1,545.3,591,545.4z"/>
	<path class="st3" d="M603.7,545.4c0,1.3-1.1,2.4-2.4,2.4c-1.3,0-2.4-1.1-2.4-2.4c0-1.3,1.1-2.4,2.4-2.4l0,0
		c1.3-0.1,2.3,0.9,2.4,2.2C603.7,545.3,603.7,545.3,603.7,545.4z"/>
	<path class="st3" d="M616.5,545.4c0,1.3-1.1,2.4-2.4,2.4c-1.3,0-2.4-1.1-2.4-2.4c0-1.3,1.1-2.4,2.4-2.4S616.4,544,616.5,545.4
		C616.5,545.3,616.5,545.3,616.5,545.4z"/>
	<path class="st3" d="M629.2,545.3c0,1.3-1.1,2.4-2.4,2.4c-1.3,0-2.4-1.1-2.4-2.4c0-1.3,1.1-2.4,2.4-2.4
		C628.1,542.9,629.2,544,629.2,545.3L629.2,545.3z"/>
	<path class="st3" d="M642,545.3c0,1.3-1.1,2.4-2.4,2.4c-1.3,0-2.4-1.1-2.4-2.4c0-1.3,1.1-2.4,2.4-2.4l0,0c1.3-0.1,2.3,0.9,2.4,2.2
		C642,545.2,642,545.3,642,545.3z"/>
	<path class="st3" d="M654.6,545.3c0,1.3-1.1,2.4-2.4,2.4c-1.3,0-2.4-1.1-2.4-2.4c0-1.3,1.1-2.4,2.4-2.4
		C653.5,542.9,654.6,544,654.6,545.3L654.6,545.3z"/>
	<path class="st3" d="M667.4,545.3c0,1.3-1.1,2.4-2.4,2.4c-1.3,0-2.4-1.1-2.4-2.4c0-1.3,1.1-2.4,2.4-2.4c1.3-0.1,2.3,0.9,2.4,2.2
		C667.4,545.2,667.4,545.3,667.4,545.3z"/>
	<path class="st3" d="M680.1,545.3c0,1.3-1.1,2.4-2.4,2.4c-1.3,0-2.4-1.1-2.4-2.4c0-1.3,1.1-2.4,2.4-2.4l0,0
		c1.3-0.1,2.3,0.9,2.4,2.2C680.2,545.2,680.2,545.3,680.1,545.3z"/>
	<path class="st3" d="M692.9,545.3c0,1.3-1.1,2.4-2.4,2.4c-1.3,0-2.4-1.1-2.4-2.4c0-1.3,1.1-2.4,2.4-2.4c1.3-0.1,2.3,0.9,2.4,2.2
		C692.9,545.2,692.9,545.2,692.9,545.3z"/>
	<path class="st3" d="M705.6,545.3c0,1.3-1.1,2.4-2.4,2.4c-1.3,0-2.4-1.1-2.4-2.4c0-1.3,1.1-2.4,2.4-2.4c1.2-0.1,2.3,0.9,2.4,2.1
		C705.6,545.1,705.6,545.2,705.6,545.3z"/>
	<path class="st3" d="M718.3,545.3c0,1.3-1.1,2.4-2.4,2.4c-1.3,0-2.4-1.1-2.4-2.4c0-1.3,1.1-2.4,2.4-2.4
		C717.2,542.9,718.3,543.9,718.3,545.3C718.3,545.2,718.3,545.3,718.3,545.3z"/>
	<path class="st3" d="M731.1,545.3c0,1.3-1.1,2.4-2.4,2.4c-1.3,0-2.4-1.1-2.4-2.4c0-1.3,1.1-2.4,2.4-2.4l0,0
		C730,542.9,731.1,543.9,731.1,545.3C731.1,545.2,731.1,545.3,731.1,545.3z"/>
	<path class="st3" d="M743.8,545.3c0,1.3-1.1,2.4-2.4,2.4c-1.3,0-2.4-1.1-2.4-2.4c0-1.3,1.1-2.4,2.4-2.4c1.3-0.1,2.3,0.9,2.4,2.2
		C743.8,545.1,743.8,545.2,743.8,545.3z"/>
	<path class="st3" d="M540.1,557.8c0,1.3-1.1,2.4-2.4,2.4c-1.3,0-2.4-1.1-2.4-2.4c0-1.3,1.1-2.4,2.4-2.4c1.3-0.1,2.3,0.9,2.4,2.2
		C540.1,557.6,540.1,557.7,540.1,557.8z"/>
	<path class="st3" d="M552.8,557.8c0,1.3-1.1,2.4-2.4,2.4c-1.3,0-2.4-1.1-2.4-2.4c0-1.3,1.1-2.4,2.4-2.4
		C551.7,555.3,552.8,556.4,552.8,557.8C552.8,557.7,552.8,557.7,552.8,557.8z"/>
	<path class="st3" d="M565.5,557.8c0,1.3-1.1,2.4-2.4,2.4c-1.3,0-2.4-1.1-2.4-2.4c0-1.3,1.1-2.4,2.4-2.4
		C564.5,555.3,565.5,556.4,565.5,557.8C565.5,557.7,565.5,557.7,565.5,557.8z"/>
	<path class="st3" d="M578.3,557.7c0,1.3-1.1,2.4-2.4,2.4c-1.3,0-2.4-1.1-2.4-2.4c0-1.3,1.1-2.4,2.4-2.4l0,0
		c1.3-0.1,2.3,0.9,2.4,2.2C578.3,557.6,578.3,557.7,578.3,557.7z"/>
	<path class="st3" d="M591.1,557.7c0,1.3-1.1,2.4-2.4,2.4c-1.3,0-2.4-1.1-2.4-2.4c0-1.3,1.1-2.4,2.4-2.4l0,0
		c1.3-0.1,2.3,0.9,2.4,2.2C591.1,557.6,591.1,557.7,591.1,557.7z"/>
	<path class="st3" d="M603.7,557.7c0,1.3-1.1,2.4-2.4,2.4c-1.3,0-2.4-1.1-2.4-2.4c0-1.3,1.1-2.4,2.4-2.4c1.3-0.1,2.3,0.9,2.4,2.2
		C603.7,557.6,603.7,557.7,603.7,557.7z"/>
	<path class="st3" d="M616.5,557.7c0,1.3-1.1,2.4-2.4,2.4c-1.3,0-2.4-1.1-2.4-2.4c0-1.3,1.1-2.4,2.4-2.4S616.5,556.4,616.5,557.7
		L616.5,557.7z"/>
	<path class="st3" d="M629.2,557.7c0,1.3-1.1,2.4-2.4,2.4c-1.3,0-2.4-1.1-2.4-2.4c0-1.3,1.1-2.4,2.4-2.4l0,0
		C628.1,555.3,629.2,556.3,629.2,557.7L629.2,557.7z"/>
	<path class="st3" d="M642,557.7c0,1.3-1.1,2.4-2.4,2.4c-1.3,0-2.4-1.1-2.4-2.4c0-1.3,1.1-2.4,2.4-2.4c1.3-0.1,2.3,0.9,2.4,2.2
		C642,557.6,642,557.6,642,557.7z"/>
	<path class="st3" d="M654.6,557.7c0,1.3-1.1,2.4-2.4,2.4c-1.3,0-2.4-1.1-2.4-2.4c0-1.3,1.1-2.4,2.4-2.4
		C653.6,555.3,654.6,556.3,654.6,557.7C654.6,557.6,654.6,557.7,654.6,557.7z"/>
	<path class="st3" d="M667.4,557.7c0,1.3-1.1,2.4-2.4,2.4c-1.3,0-2.4-1.1-2.4-2.4c0-1.3,1.1-2.4,2.4-2.4l0,0
		c1.3-0.1,2.3,0.9,2.4,2.2C667.4,557.6,667.4,557.6,667.4,557.7z"/>
	<path class="st3" d="M680.2,557.7c0,1.3-1.1,2.4-2.4,2.4c-1.3,0-2.4-1.1-2.4-2.4c0-1.3,1.1-2.4,2.4-2.4l0,0
		c1.3-0.1,2.3,0.9,2.4,2.2C680.2,557.6,680.2,557.6,680.2,557.7z"/>
	<path class="st3" d="M693,557.7c0,1.3-1.1,2.4-2.4,2.4c-1.3,0-2.4-1.1-2.4-2.4c0-1.3,1.1-2.4,2.4-2.4c1.3-0.1,2.3,0.9,2.4,2.2
		C693,557.5,693,557.6,693,557.7z"/>
	<path class="st3" d="M705.6,557.7c0,1.3-1.1,2.4-2.4,2.4c-1.3,0-2.4-1.1-2.4-2.4c0-1.3,1.1-2.4,2.4-2.4c1.2-0.1,2.3,0.9,2.4,2.1
		C705.6,557.5,705.6,557.6,705.6,557.7z"/>
	<path class="st3" d="M718.3,557.7c0,1.3-1.1,2.4-2.4,2.4c-1.3,0-2.4-1.1-2.4-2.4c0-1.3,1.1-2.4,2.4-2.4l0,0
		C717.2,555.2,718.3,556.3,718.3,557.7C718.3,557.6,718.3,557.6,718.3,557.7z"/>
	<path class="st3" d="M731.1,557.6c0,1.3-1.1,2.4-2.4,2.4c-1.3,0-2.4-1.1-2.4-2.4c0-1.3,1.1-2.4,2.4-2.4
		C730,555.2,731.1,556.3,731.1,557.6L731.1,557.6z"/>
	<path class="st3" d="M743.8,557.6c0,1.3-1.1,2.4-2.4,2.4s-2.4-1.1-2.4-2.4c0-1.3,1.1-2.4,2.4-2.4c1.3,0,2.3,1,2.4,2.2
		C743.8,557.5,743.8,557.6,743.8,557.6z"/>
	<path class="st3" d="M540.1,570.1c0,1.3-1.1,2.4-2.4,2.4c-1.3,0-2.4-1.1-2.4-2.4c0-1.3,1.1-2.4,2.4-2.4l0,0
		C539,567.7,540.1,568.8,540.1,570.1L540.1,570.1z"/>
	<path class="st3" d="M552.8,570.1c0,1.3-1.1,2.4-2.4,2.4c-1.3,0-2.4-1.1-2.4-2.4c0-1.3,1.1-2.4,2.4-2.4
		C551.7,567.7,552.8,568.8,552.8,570.1L552.8,570.1z"/>
	<path class="st3" d="M565.5,570.1c0,1.3-1.1,2.4-2.4,2.4c-1.3,0-2.4-1.1-2.4-2.4c0-1.3,1.1-2.4,2.4-2.4
		C564.5,567.7,565.5,568.8,565.5,570.1C565.6,570.1,565.6,570.1,565.5,570.1z"/>
	<path class="st3" d="M578.3,570.1c0,1.3-1.1,2.4-2.4,2.4c-1.3,0-2.4-1.1-2.4-2.4c0-1.3,1.1-2.4,2.4-2.4l0,0
		C577.2,567.7,578.3,568.8,578.3,570.1L578.3,570.1z"/>
	<path class="st3" d="M591.1,570.1c0,1.3-1.1,2.4-2.4,2.4c-1.3,0-2.4-1.1-2.4-2.4c0-1.3,1.1-2.4,2.4-2.4
		C590,567.7,591,568.8,591.1,570.1L591.1,570.1z"/>
	<path class="st3" d="M603.7,570.1c0,1.3-1.1,2.4-2.4,2.4c-1.3,0-2.4-1.1-2.4-2.4c0-1.3,1.1-2.4,2.4-2.4
		C602.6,567.7,603.7,568.8,603.7,570.1L603.7,570.1z"/>
	<path class="st3" d="M616.5,570.1c0,1.3-1.1,2.4-2.4,2.4c-1.3,0-2.4-1.1-2.4-2.4c0-1.3,1.1-2.4,2.4-2.4l0,0
		C615.4,567.7,616.5,568.7,616.5,570.1C616.5,570,616.5,570.1,616.5,570.1z"/>
	<path class="st3" d="M629.2,570.1c0,1.3-1.1,2.4-2.4,2.4c-1.3,0-2.4-1.1-2.4-2.4c0-1.3,1.1-2.4,2.4-2.4
		C628.1,567.7,629.2,568.7,629.2,570.1C629.2,570,629.2,570,629.2,570.1z"/>
	<path class="st3" d="M642,570.1c0,1.3-1.1,2.4-2.4,2.4c-1.3,0-2.4-1.1-2.4-2.4c0-1.3,1.1-2.4,2.4-2.4
		C640.9,567.7,641.9,568.7,642,570.1C642,570,642,570,642,570.1z"/>
	<path class="st3" d="M654.6,570c0,1.3-1.1,2.4-2.4,2.4c-1.3,0-2.4-1.1-2.4-2.4c0-1.3,1.1-2.4,2.4-2.4
		C653.6,567.6,654.6,568.7,654.6,570C654.7,570,654.7,570,654.6,570z"/>
	<path class="st3" d="M667.4,570c0,1.3-1.1,2.4-2.4,2.4c-1.3,0-2.4-1.1-2.4-2.4c0-1.3,1.1-2.4,2.4-2.4l0,0
		C666.3,567.6,667.4,568.7,667.4,570L667.4,570z"/>
	<path class="st3" d="M680.2,570c0,1.3-1.1,2.4-2.4,2.4c-1.3,0-2.4-1.1-2.4-2.4c0-1.3,1.1-2.4,2.4-2.4S680.1,568.7,680.2,570
		L680.2,570z"/>
	<path class="st3" d="M693,570c0,1.3-1.1,2.4-2.4,2.4c-1.3,0-2.4-1.1-2.4-2.4c0-1.3,1.1-2.4,2.4-2.4S692.9,568.7,693,570L693,570z"
		/>
	<path class="st3" d="M705.6,570c0,1.3-1.1,2.4-2.4,2.4c-1.3,0-2.4-1.1-2.4-2.4c0-1.3,1.1-2.4,2.4-2.4l0,0c1.3-0.1,2.3,0.9,2.4,2.2
		C705.6,569.9,705.6,570,705.6,570z"/>
	<path class="st3" d="M718.3,570c0,1.3-1.1,2.4-2.4,2.4c-1.3,0-2.4-1.1-2.4-2.4c0-1.3,1.1-2.4,2.4-2.4S718.3,568.6,718.3,570
		L718.3,570z"/>
	<path class="st3" d="M731.1,570c0,1.3-1.1,2.4-2.4,2.4c-1.3,0-2.4-1.1-2.4-2.4c0-1.3,1.1-2.4,2.4-2.4S731.1,568.6,731.1,570
		L731.1,570z"/>
	<path class="st3" d="M743.8,570c0,1.3-1.1,2.4-2.4,2.4c-1.3,0-2.4-1.1-2.4-2.4c0-1.3,1.1-2.4,2.4-2.4l0,0
		C742.8,567.6,743.8,568.6,743.8,570C743.9,569.9,743.9,570,743.8,570z"/>
	<path class="st3" d="M755.8,458.7c0,1.3-1.1,2.4-2.4,2.4c-1.3,0-2.4-1.1-2.4-2.4s1.1-2.4,2.4-2.4l0,0
		C754.8,456.3,755.8,457.3,755.8,458.7z"/>
	<circle class="st3" cx="766.1" cy="458.7" r="2.4"/>
	<path class="st3" d="M781.2,458.6c0,1.3-1.1,2.4-2.4,2.4c-1.3,0-2.4-1.1-2.4-2.4s1.1-2.4,2.4-2.4
		C780.2,456.3,781.2,457.3,781.2,458.6z"/>
	<path class="st3" d="M794,458.6c0,1.3-1.1,2.4-2.4,2.4c-1.3,0-2.4-1.1-2.4-2.4s1.1-2.4,2.4-2.4l0,0
		C792.9,456.3,794,457.3,794,458.6z"/>
	<path class="st3" d="M806.8,458.6c0,1.3-1.1,2.4-2.4,2.4c-1.3,0-2.4-1.1-2.4-2.4s1.1-2.4,2.4-2.4l0,0
		C805.7,456.3,806.7,457.3,806.8,458.6z"/>
	<path class="st3" d="M819.5,458.6c0,1.3-1.1,2.4-2.4,2.4c-1.3,0-2.4-1.1-2.4-2.4s1.1-2.4,2.4-2.4S819.5,457.3,819.5,458.6z"/>
	<path class="st3" d="M832.2,458.6c0,1.3-1.1,2.4-2.4,2.4s-2.4-1.1-2.4-2.4s1.1-2.4,2.4-2.4C831.1,456.2,832.2,457.3,832.2,458.6z"
		/>
	<path class="st3" d="M845,458.6c0,1.3-1.1,2.4-2.4,2.4s-2.4-1.1-2.4-2.4s1.1-2.4,2.4-2.4l0,0C843.9,456.2,844.9,457.3,845,458.6z"
		/>
	<path class="st3" d="M857.7,458.6c0,1.3-1.1,2.4-2.4,2.4s-2.4-1.1-2.4-2.4s1.1-2.4,2.4-2.4C856.6,456.2,857.7,457.3,857.7,458.6z"
		/>
	<path class="st3" d="M870.5,458.6c0,1.3-1.1,2.4-2.4,2.4s-2.4-1.1-2.4-2.4s1.1-2.4,2.4-2.4S870.4,457.3,870.5,458.6z"/>
	<path class="st3" d="M883.2,458.6c0,1.3-1.1,2.4-2.4,2.4s-2.4-1.1-2.4-2.4s1.1-2.4,2.4-2.4l0,0
		C882.1,456.2,883.2,457.3,883.2,458.6z"/>
	<path class="st3" d="M895.9,458.6c0,1.3-1.1,2.4-2.4,2.4s-2.4-1.1-2.4-2.4s1.1-2.4,2.4-2.4l0,0
		C894.8,456.2,895.9,457.3,895.9,458.6z"/>
	<path class="st3" d="M908.6,458.6c0,1.3-1.1,2.4-2.4,2.4s-2.4-1.1-2.4-2.4s1.1-2.4,2.4-2.4S908.6,457.2,908.6,458.6z"/>
	<path class="st3" d="M921.4,458.5c0,1.3-1.1,2.4-2.4,2.4s-2.4-1.1-2.4-2.4s1.1-2.3,2.4-2.4C920.3,456.1,921.4,457.2,921.4,458.5z"
		/>
	<circle class="st3" cx="931.7" cy="458.5" r="2.4"/>
	<path class="st3" d="M946.8,458.5c0,1.3-1.1,2.4-2.4,2.4s-2.4-1.1-2.4-2.4s1.1-2.4,2.4-2.4C945.7,456.2,946.8,457.2,946.8,458.5z"
		/>
	<path class="st3" d="M959.5,458.5c0,1.3-1.1,2.4-2.4,2.4s-2.4-1.1-2.4-2.4s1.1-2.4,2.4-2.4C958.5,456.1,959.5,457.2,959.5,458.5z"
		/>
	<path class="st3" d="M755.8,471c0,1.3-1.1,2.4-2.4,2.4c-1.3,0-2.4-1.1-2.4-2.4s1.1-2.4,2.4-2.4C754.8,468.6,755.8,469.7,755.8,471z
		"/>
	<path class="st3" d="M768.6,471c0,1.3-1.1,2.4-2.4,2.4c-1.3,0-2.4-1.1-2.4-2.4s1.1-2.4,2.4-2.4S768.6,469.7,768.6,471z"/>
	<path class="st3" d="M781.3,471c0,1.3-1.1,2.4-2.4,2.4c-1.3,0-2.4-1.1-2.4-2.4s1.1-2.4,2.4-2.4S781.2,469.7,781.3,471z"/>
	<path class="st3" d="M794,471c0,1.3-1.1,2.4-2.4,2.4c-1.3,0-2.4-1.1-2.4-2.4s1.1-2.4,2.4-2.4l0,0C792.9,468.6,794,469.7,794,471z"
		/>
	<path class="st3" d="M806.8,471c0,1.3-1.1,2.4-2.4,2.4c-1.3,0-2.4-1.1-2.4-2.4s1.1-2.4,2.4-2.4S806.8,469.7,806.8,471z"/>
	<path class="st3" d="M819.5,471c0,1.3-1.1,2.4-2.4,2.4c-1.3,0-2.4-1.1-2.4-2.4s1.1-2.4,2.4-2.4C818.5,468.6,819.5,469.7,819.5,471z
		"/>
	<path class="st3" d="M832.2,471c0,1.3-1.1,2.4-2.4,2.4s-2.4-1.1-2.4-2.4s1.1-2.4,2.4-2.4l0,0C831.1,468.6,832.2,469.7,832.2,471z"
		/>
	<path class="st3" d="M845,471c0,1.3-1.1,2.4-2.4,2.4s-2.4-1.1-2.4-2.4s1.1-2.4,2.4-2.4S844.9,469.6,845,471z"/>
	<path class="st3" d="M857.7,471c0,1.3-1.1,2.4-2.4,2.4s-2.4-1.1-2.4-2.4s1.1-2.4,2.4-2.4S857.7,469.6,857.7,471z"/>
	<path class="st3" d="M870.5,471c0,1.3-1.1,2.4-2.4,2.4s-2.4-1.1-2.4-2.4s1.1-2.4,2.4-2.4l0,0C869.4,468.6,870.4,469.6,870.5,471z"
		/>
	<path class="st3" d="M883.2,470.9c0,1.3-1.1,2.4-2.4,2.4s-2.4-1.1-2.4-2.4s1.1-2.4,2.4-2.4l0,0
		C882.1,468.6,883.2,469.6,883.2,470.9z"/>
	<path class="st3" d="M895.9,470.9c0,1.3-1.1,2.4-2.4,2.4s-2.4-1.1-2.4-2.4s1.1-2.4,2.4-2.4C894.8,468.6,895.9,469.6,895.9,470.9z"
		/>
	<path class="st3" d="M908.6,470.9c0,1.3-1.1,2.4-2.4,2.4s-2.4-1.1-2.4-2.4s1.1-2.4,2.4-2.4C907.6,468.5,908.6,469.6,908.6,470.9z"
		/>
	<path class="st3" d="M921.4,470.9c0,1.3-1.1,2.4-2.4,2.4s-2.4-1.1-2.4-2.4s1.1-2.4,2.4-2.4l0,0
		C920.3,468.5,921.4,469.6,921.4,470.9z"/>
	<path class="st3" d="M934.1,470.9c0,1.3-1.1,2.4-2.4,2.4s-2.4-1.1-2.4-2.4s1.1-2.4,2.4-2.4C933.1,468.5,934.1,469.6,934.1,470.9z"
		/>
	<path class="st3" d="M946.8,470.9c0,1.3-1.1,2.4-2.4,2.4s-2.4-1.1-2.4-2.4s1.1-2.4,2.4-2.4S946.8,469.6,946.8,470.9z"/>
	<path class="st3" d="M959.6,470.9c0,1.3-1.1,2.4-2.4,2.4s-2.4-1.1-2.4-2.4s1.1-2.4,2.4-2.4l0,0
		C958.5,468.5,959.5,469.6,959.6,470.9z"/>
	<path class="st3" d="M755.8,483.4c0,1.3-1.1,2.4-2.4,2.4c-1.3,0-2.4-1.1-2.4-2.4s1.1-2.4,2.4-2.4
		C754.8,481,755.8,482.1,755.8,483.4z"/>
	<path class="st3" d="M768.6,483.4c0,1.3-1.1,2.4-2.4,2.4c-1.3,0-2.4-1.1-2.4-2.4s1.1-2.4,2.4-2.4S768.6,482.1,768.6,483.4z"/>
	<path class="st3" d="M781.3,483.4c0,1.3-1.1,2.4-2.4,2.4c-1.3,0-2.4-1.1-2.4-2.4s1.1-2.4,2.4-2.4l0,0
		C780.2,481,781.3,482,781.3,483.4z"/>
	<path class="st3" d="M794,483.3c0,1.3-1.1,2.4-2.4,2.4c-1.3,0-2.4-1.1-2.4-2.4s1.1-2.4,2.4-2.4C792.9,481,794,482,794,483.3z"/>
	<path class="st3" d="M806.8,483.3c0,1.3-1.1,2.4-2.4,2.4c-1.3,0-2.4-1.1-2.4-2.4s1.1-2.4,2.4-2.4C805.7,481,806.8,482,806.8,483.3z
		"/>
	<path class="st3" d="M819.5,483.3c0,1.3-1.1,2.4-2.4,2.4c-1.3,0-2.4-1.1-2.4-2.4s1.1-2.4,2.4-2.4l0,0
		C818.5,481,819.5,482,819.5,483.3z"/>
	<path class="st3" d="M832.2,483.3c0,1.3-1.1,2.4-2.4,2.4s-2.4-1.1-2.4-2.4s1.1-2.4,2.4-2.4l0,0C831.1,481,832.2,482,832.2,483.3z"
		/>
	<path class="st3" d="M845,483.3c0,1.3-1.1,2.4-2.4,2.4s-2.4-1.1-2.4-2.4s1.1-2.4,2.4-2.4S844.9,482,845,483.3z"/>
	<path class="st3" d="M857.7,483.3c0,1.3-1.1,2.4-2.4,2.4s-2.4-1.1-2.4-2.4s1.1-2.4,2.4-2.4C856.6,480.9,857.7,482,857.7,483.3z"/>
	<path class="st3" d="M870.5,483.3c0,1.3-1.1,2.4-2.4,2.4s-2.4-1.1-2.4-2.4s1.1-2.4,2.4-2.4l0,0C869.4,480.9,870.4,482,870.5,483.3z
		"/>
	<path class="st3" d="M883.2,483.3c0,1.3-1.1,2.4-2.4,2.4s-2.4-1.1-2.4-2.4s1.1-2.4,2.4-2.4C882.1,480.9,883.2,482,883.2,483.3z"/>
	<path class="st3" d="M895.9,483.3c0,1.3-1.1,2.4-2.4,2.4s-2.4-1.1-2.4-2.4s1.1-2.4,2.4-2.4C894.8,480.9,895.9,482,895.9,483.3z"/>
	<path class="st3" d="M908.6,483.3c0,1.3-1.1,2.4-2.4,2.4s-2.4-1.1-2.4-2.4s1.1-2.4,2.4-2.4l0,0C907.6,480.9,908.6,482,908.6,483.3z
		"/>
	<path class="st3" d="M921.4,483.3c0,1.3-1.1,2.4-2.4,2.4s-2.4-1.1-2.4-2.4s1.1-2.4,2.4-2.4l0,0C920.3,480.9,921.4,482,921.4,483.3z
		"/>
	<path class="st3" d="M934.1,483.3c0,1.3-1.1,2.4-2.4,2.4s-2.4-1.1-2.4-2.4s1.1-2.4,2.4-2.4C933.1,480.9,934.1,481.9,934.1,483.3z"
		/>
	<path class="st3" d="M946.8,483.3c0,1.3-1.1,2.4-2.4,2.4s-2.4-1.1-2.4-2.4s1.1-2.4,2.4-2.4S946.8,481.9,946.8,483.3z"/>
	<path class="st3" d="M959.6,483.3c0,1.3-1.1,2.4-2.4,2.4s-2.4-1.1-2.4-2.4s1.1-2.4,2.4-2.4l0,0
		C958.5,480.9,959.5,481.9,959.6,483.3z"/>
	<path class="st3" d="M755.9,495.7c0,1.3-1.1,2.4-2.4,2.4c-1.3,0-2.4-1.1-2.4-2.4s1.1-2.4,2.4-2.4
		C754.8,493.4,755.8,494.4,755.9,495.7z"/>
	<circle class="st3" cx="766.2" cy="495.8" r="2.4"/>
	<path class="st3" d="M781.3,495.7c0,1.3-1.1,2.4-2.4,2.4c-1.3,0-2.4-1.1-2.4-2.4s1.1-2.4,2.4-2.4l0,0
		C780.2,493.3,781.3,494.4,781.3,495.7z"/>
	<path class="st3" d="M794,495.7c0,1.3-1.1,2.4-2.4,2.4c-1.3,0-2.4-1.1-2.4-2.4s1.1-2.4,2.4-2.4C793,493.3,794,494.4,794,495.7z"/>
	<path class="st3" d="M806.8,495.7c0,1.3-1.1,2.4-2.4,2.4c-1.3,0-2.4-1.1-2.4-2.4s1.1-2.4,2.4-2.4S806.8,494.4,806.8,495.7z"/>
	<path class="st3" d="M819.5,495.7c0,1.3-1.1,2.4-2.4,2.4s-2.4-1.1-2.4-2.4s1.1-2.4,2.4-2.4C818.5,493.3,819.5,494.4,819.5,495.7z"
		/>
	<path class="st3" d="M832.2,495.7c0,1.3-1.1,2.4-2.4,2.4s-2.4-1.1-2.4-2.4s1.1-2.4,2.4-2.4S832.2,494.4,832.2,495.7z"/>
	<path class="st3" d="M845,495.7c0,1.3-1.1,2.4-2.4,2.4s-2.4-1.1-2.4-2.4s1.1-2.4,2.4-2.4C843.9,493.3,844.9,494.4,845,495.7z"/>
	<path class="st3" d="M857.7,495.7c0,1.3-1.1,2.4-2.4,2.4s-2.4-1.1-2.4-2.4s1.1-2.4,2.4-2.4l0,0
		C856.6,493.3,857.7,494.4,857.7,495.7z"/>
	<path class="st3" d="M870.5,495.7c0,1.3-1.1,2.4-2.4,2.4s-2.4-1.1-2.4-2.4s1.1-2.4,2.4-2.4C869.4,493.3,870.5,494.3,870.5,495.7z"
		/>
	<path class="st3" d="M883.2,495.7c0,1.3-1.1,2.4-2.4,2.4s-2.4-1.1-2.4-2.4s1.1-2.4,2.4-2.4C882.2,493.3,883.2,494.3,883.2,495.7z"
		/>
	<path class="st3" d="M895.9,495.7c0,1.3-1.1,2.4-2.4,2.4s-2.4-1.1-2.4-2.4s1.1-2.4,2.4-2.4S895.9,494.3,895.9,495.7z"/>
	<path class="st3" d="M908.6,495.6c0,1.3-1.1,2.4-2.4,2.4s-2.4-1.1-2.4-2.4s1.1-2.4,2.4-2.4l0,0
		C907.6,493.3,908.6,494.3,908.6,495.6z"/>
	<path class="st3" d="M921.4,495.6c0,1.3-1.1,2.4-2.4,2.4s-2.4-1.1-2.4-2.4s1.1-2.4,2.4-2.4C920.3,493.3,921.4,494.3,921.4,495.6z"
		/>
	<circle class="st3" cx="931.7" cy="495.7" r="2.4"/>
	<path class="st3" d="M946.8,495.6c0,1.3-1.1,2.4-2.4,2.4s-2.4-1.1-2.4-2.4s1.1-2.4,2.4-2.4l0,0
		C945.7,493.2,946.8,494.3,946.8,495.6z"/>
	<path class="st3" d="M959.6,495.6c0,1.3-1.1,2.4-2.4,2.4s-2.4-1.1-2.4-2.4s1.1-2.4,2.4-2.4S959.6,494.3,959.6,495.6z"/>
	<path class="st3" d="M755.9,508.1c0,1.3-1.1,2.4-2.4,2.4c-1.3,0-2.4-1.1-2.4-2.4s1.1-2.4,2.4-2.4l0,0
		C754.8,505.8,755.8,506.8,755.9,508.1z"/>
	<path class="st3" d="M768.6,508.1c0,1.3-1.1,2.4-2.4,2.4c-1.3,0-2.4-1.1-2.4-2.4s1.1-2.4,2.4-2.4l0,0
		C767.5,505.8,768.6,506.8,768.6,508.1z"/>
	<path class="st3" d="M781.3,508.1c0,1.3-1.1,2.4-2.4,2.4c-1.3,0-2.4-1.1-2.4-2.4s1.1-2.4,2.4-2.4
		C780.2,505.8,781.3,506.8,781.3,508.1z"/>
	<path class="st3" d="M794,508.1c0,1.3-1.1,2.4-2.4,2.4c-1.3,0-2.4-1.1-2.4-2.4s1.1-2.4,2.4-2.4C793,505.7,794,506.8,794,508.1z"/>
	<path class="st3" d="M806.8,508.1c0,1.3-1.1,2.4-2.4,2.4c-1.3,0-2.4-1.1-2.4-2.4s1.1-2.4,2.4-2.4l0,0
		C805.7,505.7,806.8,506.7,806.8,508.1z"/>
	<path class="st3" d="M819.5,508c0,1.3-1.1,2.4-2.4,2.4c-1.3,0-2.4-1.1-2.4-2.4s1.1-2.4,2.4-2.4C818.5,505.7,819.5,506.7,819.5,508z
		"/>
	<path class="st3" d="M832.2,508c0,1.3-1.1,2.4-2.4,2.4s-2.4-1.1-2.4-2.4s1.1-2.4,2.4-2.4C831.1,505.7,832.2,506.7,832.2,508z"/>
	<path class="st3" d="M845,508c0,1.3-1.1,2.4-2.4,2.4s-2.4-1.1-2.4-2.4s1.1-2.4,2.4-2.4l0,0C843.9,505.7,844.9,506.7,845,508z"/>
	<path class="st3" d="M857.7,508c0,1.3-1.1,2.4-2.4,2.4s-2.4-1.1-2.4-2.4s1.1-2.4,2.4-2.4l0,0C856.6,505.7,857.7,506.7,857.7,508z"
		/>
	<path class="st3" d="M870.5,508c0,1.3-1.1,2.4-2.4,2.4s-2.4-1.1-2.4-2.4s1.1-2.4,2.4-2.4S870.5,506.7,870.5,508z"/>
	<path class="st3" d="M883.2,508c0,1.3-1.1,2.4-2.4,2.4s-2.4-1.1-2.4-2.4s1.1-2.4,2.4-2.4C882.2,505.6,883.2,506.7,883.2,508z"/>
	<path class="st3" d="M895.9,508c0,1.3-1.1,2.4-2.4,2.4s-2.4-1.1-2.4-2.4s1.1-2.4,2.4-2.4l0,0C894.8,505.6,895.9,506.7,895.9,508z"
		/>
	<path class="st3" d="M908.6,508c0,1.3-1.1,2.4-2.4,2.4s-2.4-1.1-2.4-2.4s1.1-2.4,2.4-2.4C907.6,505.6,908.6,506.7,908.6,508z"/>
	<path class="st3" d="M921.4,508c0,1.3-1.1,2.4-2.4,2.4s-2.4-1.1-2.4-2.4s1.1-2.4,2.4-2.4S921.4,506.7,921.4,508z"/>
	<path class="st3" d="M934.2,508c0,1.3-1.1,2.4-2.4,2.4s-2.4-1.1-2.4-2.4s1.1-2.4,2.4-2.4l0,0C933.1,505.6,934.2,506.7,934.2,508z"
		/>
	<path class="st3" d="M946.8,508c0,1.3-1.1,2.4-2.4,2.4s-2.4-1.1-2.4-2.4s1.1-2.4,2.4-2.4l0,0C945.7,505.6,946.8,506.7,946.8,508z"
		/>
	<path class="st3" d="M959.6,508c0,1.3-1.1,2.4-2.4,2.4s-2.4-1.1-2.4-2.4s1.1-2.4,2.4-2.4S959.6,506.6,959.6,508z"/>
	<path class="st3" d="M755.9,520.5c0,1.3-1.1,2.4-2.4,2.4c-1.3,0-2.4-1.1-2.4-2.4c0-1.3,1.1-2.4,2.4-2.4l0,0
		C754.8,518.1,755.9,519.1,755.9,520.5z"/>
	<path class="st3" d="M768.6,520.4c0,1.3-1.1,2.4-2.4,2.4c-1.3,0-2.4-1.1-2.4-2.4c0-1.3,1.1-2.4,2.4-2.4
		C767.6,518.1,768.6,519.1,768.6,520.4z"/>
	<path class="st3" d="M781.3,520.4c0,1.3-1.1,2.4-2.4,2.4c-1.3,0-2.4-1.1-2.4-2.4c0-1.3,1.1-2.4,2.4-2.4
		C780.2,518.1,781.3,519.1,781.3,520.4z"/>
	<path class="st3" d="M794,520.4c0,1.3-1.1,2.4-2.4,2.4c-1.3,0-2.4-1.1-2.4-2.4c0-1.3,1.1-2.4,2.4-2.4l0,0
		C793,518.1,794,519.1,794,520.4z"/>
	<path class="st3" d="M806.8,520.4c0,1.3-1.1,2.4-2.4,2.4c-1.3,0-2.4-1.1-2.4-2.4c0-1.3,1.1-2.4,2.4-2.4S806.8,519.1,806.8,520.4z"
		/>
	<path class="st3" d="M819.6,520.4c0,1.3-1.1,2.4-2.4,2.4c-1.3,0-2.4-1.1-2.4-2.4c0-1.3,1.1-2.4,2.4-2.4S819.5,519.1,819.6,520.4z"
		/>
	<path class="st3" d="M832.2,520.4c0,1.3-1.1,2.4-2.4,2.4s-2.4-1.1-2.4-2.4c0-1.3,1.1-2.4,2.4-2.4S832.2,519.1,832.2,520.4z"/>
	<path class="st3" d="M845,520.4c0,1.3-1.1,2.4-2.4,2.4s-2.4-1.1-2.4-2.4c0-1.3,1.1-2.4,2.4-2.4l0,0
		C843.9,518,844.9,519.1,845,520.4z"/>
	<path class="st3" d="M857.7,520.4c0,1.3-1.1,2.4-2.4,2.4s-2.4-1.1-2.4-2.4c0-1.3,1.1-2.4,2.4-2.4
		C856.7,518,857.7,519.1,857.7,520.4z"/>
	<path class="st3" d="M870.5,520.4c0,1.3-1.1,2.4-2.4,2.4s-2.4-1.1-2.4-2.4c0-1.3,1.1-2.4,2.4-2.4S870.5,519.1,870.5,520.4z"/>
	<path class="st3" d="M883.2,520.4c0,1.3-1.1,2.4-2.4,2.4s-2.4-1.1-2.4-2.4c0-1.3,1.1-2.4,2.4-2.4l0,0
		C882.2,518,883.2,519.1,883.2,520.4z"/>
	<path class="st3" d="M895.9,520.4c0,1.3-1.1,2.4-2.4,2.4s-2.4-1.1-2.4-2.4c0-1.3,1.1-2.4,2.4-2.4S895.9,519,895.9,520.4z"/>
	<path class="st3" d="M908.7,520.3c0,1.3-1.1,2.4-2.4,2.4s-2.4-1.1-2.4-2.4c0-1.3,1.1-2.4,2.4-2.4C907.6,518,908.6,519,908.7,520.3z
		"/>
	<path class="st3" d="M921.4,520.3c0,1.3-1.1,2.4-2.4,2.4s-2.4-1.1-2.4-2.4c0-1.3,1.1-2.4,2.4-2.4l0,0
		C920.3,518,921.4,519,921.4,520.3z"/>
	<path class="st3" d="M934.2,520.3c0,1.3-1.1,2.4-2.4,2.4s-2.4-1.1-2.4-2.4c0-1.3,1.1-2.4,2.4-2.4l0,0
		C933.1,518,934.2,519,934.2,520.3z"/>
	<path class="st3" d="M946.8,520.3c0,1.3-1.1,2.4-2.4,2.4s-2.4-1.1-2.4-2.4c0-1.3,1.1-2.4,2.4-2.4C945.8,518,946.8,519,946.8,520.3z
		"/>
	<path class="st3" d="M959.6,520.3c0,1.3-1.1,2.4-2.4,2.4s-2.4-1.1-2.4-2.4c0-1.3,1.1-2.4,2.4-2.4C958.5,518,959.6,519,959.6,520.3z
		"/>
	<path class="st3" d="M755.9,532.9c0,1.3-1.1,2.4-2.4,2.4c-1.3,0-2.4-1.1-2.4-2.4c0-1.3,1.1-2.4,2.4-2.4
		C754.8,530.5,755.9,531.5,755.9,532.9L755.9,532.9z"/>
	<circle class="st3" cx="766.1" cy="532.9" r="2.4"/>
	<path class="st3" d="M781.3,532.9c0,1.3-1.1,2.4-2.4,2.4c-1.3,0-2.4-1.1-2.4-2.4c0-1.3,1.1-2.4,2.4-2.4l0,0
		C780.2,530.5,781.3,531.5,781.3,532.9C781.3,532.8,781.3,532.9,781.3,532.9z"/>
	<path class="st3" d="M794.1,532.9c0,1.3-1.1,2.4-2.4,2.4c-1.3,0-2.4-1.1-2.4-2.4c0-1.3,1.1-2.4,2.4-2.4l0,0
		c1.3-0.1,2.3,0.9,2.4,2.2C794.1,532.8,794.1,532.8,794.1,532.9z"/>
	<path class="st3" d="M806.8,532.9c0,1.3-1.1,2.4-2.4,2.4c-1.3,0-2.4-1.1-2.4-2.4c0-1.3,1.1-2.4,2.4-2.4c1.3-0.1,2.3,0.9,2.4,2.2
		C806.8,532.8,806.8,532.8,806.8,532.9z"/>
	<path class="st3" d="M819.6,532.9c0,1.3-1.1,2.4-2.4,2.4c-1.3,0-2.4-1.1-2.4-2.4c0-1.3,1.1-2.4,2.4-2.4S819.6,531.5,819.6,532.9
		C819.6,532.8,819.6,532.8,819.6,532.9z"/>
	<path class="st3" d="M832.2,532.9c0,1.3-1.1,2.4-2.4,2.4s-2.4-1.1-2.4-2.4c0-1.3,1.1-2.4,2.4-2.4l0,0
		C831.1,530.5,832.2,531.5,832.2,532.9C832.2,532.8,832.2,532.8,832.2,532.9z"/>
	<path class="st3" d="M845,532.8c0,1.3-1.1,2.4-2.4,2.4s-2.4-1.1-2.4-2.4c0-1.3,1.1-2.4,2.4-2.4c1.3-0.1,2.3,0.9,2.4,2.2
		C845,532.7,845,532.8,845,532.8z"/>
	<path class="st3" d="M857.7,532.8c0,1.3-1.1,2.4-2.4,2.4s-2.4-1.1-2.4-2.4c0-1.3,1.1-2.4,2.4-2.4s2.3,1,2.4,2.2
		C857.7,532.7,857.7,532.8,857.7,532.8z"/>
	<path class="st3" d="M870.5,532.8c0,1.3-1.1,2.4-2.4,2.4s-2.4-1.1-2.4-2.4c0-1.3,1.1-2.4,2.4-2.4l0,0c1.3-0.1,2.3,0.9,2.4,2.2
		C870.5,532.7,870.5,532.8,870.5,532.8z"/>
	<path class="st3" d="M883.3,532.8c0,1.3-1.1,2.4-2.4,2.4s-2.4-1.1-2.4-2.4c0-1.3,1.1-2.4,2.4-2.4l0,0
		C882.2,530.4,883.2,531.5,883.3,532.8L883.3,532.8z"/>
	<path class="st3" d="M896,532.8c0,1.3-1.1,2.4-2.4,2.4s-2.4-1.1-2.4-2.4c0-1.3,1.1-2.4,2.4-2.4c1.3-0.1,2.3,0.9,2.4,2.2
		C896,532.7,896,532.8,896,532.8z"/>
	<path class="st3" d="M908.7,532.8c0,1.3-1.1,2.4-2.4,2.4s-2.4-1.1-2.4-2.4c0-1.3,1.1-2.4,2.4-2.4c1.3-0.1,2.3,0.9,2.4,2.2
		C908.7,532.7,908.7,532.7,908.7,532.8z"/>
	<path class="st3" d="M921.4,532.8c0,1.3-1.1,2.4-2.4,2.4s-2.4-1.1-2.4-2.4c0-1.3,1.1-2.4,2.4-2.4l0,0
		C920.3,530.4,921.4,531.4,921.4,532.8L921.4,532.8z"/>
	<circle class="st3" cx="931.7" cy="532.8" r="2.4"/>
	<path class="st3" d="M946.8,532.8c0,1.3-1.1,2.4-2.4,2.4s-2.4-1.1-2.4-2.4c0-1.3,1.1-2.4,2.4-2.4c1.3-0.1,2.3,0.9,2.4,2.2
		C946.8,532.7,946.8,532.7,946.8,532.8z"/>
	<path class="st3" d="M959.6,532.8c0,1.3-1.1,2.4-2.4,2.4s-2.4-1.1-2.4-2.4c0-1.3,1.1-2.4,2.4-2.4l0,0c1.3-0.1,2.3,0.9,2.4,2.2
		C959.6,532.7,959.6,532.7,959.6,532.8z"/>
	<path class="st3" d="M755.9,545.3c0,1.3-1.1,2.4-2.4,2.4c-1.3,0-2.4-1.1-2.4-2.4c0-1.3,1.1-2.4,2.4-2.4
		C754.8,542.9,755.9,543.9,755.9,545.3C755.9,545.2,755.9,545.2,755.9,545.3z"/>
	<path class="st3" d="M768.6,545.3c0,1.3-1.1,2.4-2.4,2.4c-1.3,0-2.4-1.1-2.4-2.4c0-1.3,1.1-2.4,2.4-2.4
		C767.6,542.9,768.6,543.9,768.6,545.3C768.7,545.2,768.7,545.2,768.6,545.3z"/>
	<path class="st3" d="M781.3,545.3c0,1.3-1.1,2.4-2.4,2.4c-1.3,0-2.4-1.1-2.4-2.4c0-1.3,1.1-2.4,2.4-2.4l0,0
		C780.2,542.8,781.3,543.9,781.3,545.3C781.3,545.2,781.3,545.2,781.3,545.3z"/>
	<path class="st3" d="M794.1,545.2c0,1.3-1.1,2.4-2.4,2.4c-1.3,0-2.4-1.1-2.4-2.4c0-1.3,1.1-2.4,2.4-2.4c1.3-0.1,2.3,0.9,2.4,2.2
		C794.1,545.1,794.1,545.2,794.1,545.2z"/>
	<path class="st3" d="M806.8,545.2c0,1.3-1.1,2.4-2.4,2.4c-1.3,0-2.4-1.1-2.4-2.4c0-1.3,1.1-2.4,2.4-2.4c1.3-0.1,2.3,0.9,2.4,2.2
		C806.8,545.1,806.8,545.2,806.8,545.2z"/>
	<path class="st3" d="M819.6,545.2c0,1.3-1.1,2.4-2.4,2.4c-1.3,0-2.4-1.1-2.4-2.4c0-1.3,1.1-2.4,2.4-2.4l0,0
		C818.5,542.8,819.6,543.9,819.6,545.2L819.6,545.2z"/>
	<path class="st3" d="M832.2,545.2c0,1.3-1.1,2.4-2.4,2.4s-2.4-1.1-2.4-2.4c0-1.3,1.1-2.4,2.4-2.4l0,0
		C831.1,542.8,832.2,543.9,832.2,545.2L832.2,545.2z"/>
	<path class="st3" d="M845,545.2c0,1.3-1.1,2.4-2.4,2.4s-2.4-1.1-2.4-2.4c0-1.3,1.1-2.4,2.4-2.4c1.3-0.1,2.3,0.9,2.4,2.2
		C845,545.1,845,545.1,845,545.2z"/>
	<path class="st3" d="M857.7,545.2c0,1.3-1.1,2.4-2.4,2.4s-2.4-1.1-2.4-2.4c0-1.3,1.1-2.4,2.4-2.4c1.3-0.1,2.3,0.9,2.4,2.2
		C857.8,545.1,857.8,545.1,857.7,545.2z"/>
	<path class="st3" d="M870.5,545.2c0,1.3-1.1,2.4-2.4,2.4s-2.4-1.1-2.4-2.4c0-1.3,1.1-2.4,2.4-2.4l0,0c1.3-0.1,2.3,0.9,2.4,2.2
		C870.5,545.1,870.5,545.1,870.5,545.2z"/>
	<path class="st3" d="M883.3,545.2c0,1.3-1.1,2.4-2.4,2.4s-2.4-1.1-2.4-2.4c0-1.3,1.1-2.4,2.4-2.4S883.2,543.8,883.3,545.2
		C883.3,545.1,883.3,545.2,883.3,545.2z"/>
	<path class="st3" d="M896,545.2c0,1.3-1.1,2.4-2.4,2.4s-2.4-1.1-2.4-2.4c0-1.3,1.1-2.4,2.4-2.4c1.3-0.1,2.3,0.9,2.4,2.2
		C896,545.1,896,545.1,896,545.2z"/>
	<path class="st3" d="M908.7,545.1c0,1.3-1.1,2.4-2.4,2.4s-2.4-1.1-2.4-2.4c0-1.3,1.1-2.4,2.4-2.4l0,0c1.3-0.1,2.3,0.9,2.4,2.2
		C908.7,545,908.7,545.1,908.7,545.1z"/>
	<path class="st3" d="M921.4,545.1c0,1.3-1.1,2.4-2.4,2.4s-2.4-1.1-2.4-2.4c0-1.3,1.1-2.4,2.4-2.4
		C920.3,542.7,921.4,543.8,921.4,545.1L921.4,545.1z"/>
	<path class="st3" d="M934.2,545.1c0,1.3-1.1,2.4-2.4,2.4s-2.4-1.1-2.4-2.4c0-1.3,1.1-2.4,2.4-2.4c1.3-0.1,2.3,0.9,2.4,2.2
		C934.2,545,934.2,545.1,934.2,545.1z"/>
	<path class="st3" d="M946.9,545.1c0,1.3-1.1,2.4-2.4,2.4s-2.4-1.1-2.4-2.4c0-1.3,1.1-2.4,2.4-2.4c1.3-0.1,2.3,0.9,2.4,2.2
		C946.9,545,946.9,545.1,946.9,545.1z"/>
	<path class="st3" d="M959.6,545.1c0,1.3-1.1,2.4-2.4,2.4s-2.4-1.1-2.4-2.4c0-1.3,1.1-2.4,2.4-2.4l0,0c1.3-0.1,2.3,0.9,2.4,2.2
		C959.6,545,959.6,545.1,959.6,545.1z"/>
	<path class="st3" d="M755.9,557.6c0,1.3-1.1,2.4-2.4,2.4c-1.3,0-2.4-1.1-2.4-2.4c0-1.3,1.1-2.4,2.4-2.4
		C754.8,555.2,755.9,556.3,755.9,557.6L755.9,557.6z"/>
	<path class="st3" d="M768.7,557.6c0,1.3-1.1,2.4-2.4,2.4c-1.3,0-2.4-1.1-2.4-2.4c0-1.3,1.1-2.4,2.4-2.4l0,0
		C767.6,555.2,768.6,556.2,768.7,557.6L768.7,557.6z"/>
	<path class="st3" d="M781.3,557.6c0,1.3-1.1,2.4-2.4,2.4c-1.3,0-2.4-1.1-2.4-2.4c0-1.3,1.1-2.4,2.4-2.4
		C780.2,555.2,781.3,556.2,781.3,557.6L781.3,557.6z"/>
	<path class="st3" d="M794.1,557.6c0,1.3-1.1,2.4-2.4,2.4c-1.3,0-2.4-1.1-2.4-2.4c0-1.3,1.1-2.4,2.4-2.4c1.3-0.1,2.3,0.9,2.4,2.2
		C794.1,557.5,794.1,557.5,794.1,557.6z"/>
	<path class="st3" d="M806.8,557.6c0,1.3-1.1,2.4-2.4,2.4c-1.3,0-2.4-1.1-2.4-2.4c0-1.3,1.1-2.4,2.4-2.4l0,0
		c1.3-0.1,2.3,0.9,2.4,2.2C806.8,557.5,806.8,557.5,806.8,557.6z"/>
	<path class="st3" d="M819.6,557.6c0,1.3-1.1,2.4-2.4,2.4c-1.3,0-2.4-1.1-2.4-2.4c0-1.3,1.1-2.4,2.4-2.4l0,0
		C818.5,555.2,819.6,556.2,819.6,557.6L819.6,557.6z"/>
	<path class="st3" d="M832.2,557.6c0,1.3-1.1,2.4-2.4,2.4s-2.4-1.1-2.4-2.4c0-1.3,1.1-2.4,2.4-2.4
		C831.1,555.2,832.2,556.2,832.2,557.6C832.2,557.5,832.2,557.6,832.2,557.6z"/>
	<path class="st3" d="M845,557.6c0,1.3-1.1,2.4-2.4,2.4s-2.4-1.1-2.4-2.4c0-1.3,1.1-2.4,2.4-2.4c1.3-0.1,2.3,0.9,2.4,2.2
		C845,557.4,845,557.5,845,557.6z"/>
	<path class="st3" d="M857.8,557.6c0,1.3-1.1,2.4-2.4,2.4s-2.4-1.1-2.4-2.4c0-1.3,1.1-2.4,2.4-2.4l0,0c1.3-0.1,2.3,0.9,2.4,2.2
		C857.8,557.4,857.8,557.5,857.8,557.6z"/>
	<path class="st3" d="M870.5,557.5c0,1.3-1.1,2.4-2.4,2.4s-2.4-1.1-2.4-2.4c0-1.3,1.1-2.4,2.4-2.4c1.3-0.1,2.3,0.9,2.4,2.2
		C870.5,557.4,870.5,557.5,870.5,557.5z"/>
	<path class="st3" d="M883.3,557.5c0,1.3-1.1,2.4-2.4,2.4s-2.4-1.1-2.4-2.4c0-1.3,1.1-2.4,2.4-2.4S883.2,556.2,883.3,557.5
		L883.3,557.5z"/>
	<path class="st3" d="M896,557.5c0,1.3-1.1,2.4-2.4,2.4s-2.4-1.1-2.4-2.4c0-1.3,1.1-2.4,2.4-2.4l0,0c1.3-0.1,2.3,0.9,2.4,2.2
		C896,557.4,896,557.5,896,557.5z"/>
	<path class="st3" d="M908.7,557.5c0,1.3-1.1,2.4-2.4,2.4s-2.4-1.1-2.4-2.4c0-1.3,1.1-2.4,2.4-2.4l0,0c1.3-0.1,2.3,0.9,2.4,2.2
		C908.7,557.4,908.7,557.5,908.7,557.5z"/>
	<path class="st3" d="M921.4,557.5c0,1.3-1.1,2.4-2.4,2.4s-2.4-1.1-2.4-2.4c0-1.3,1.1-2.4,2.4-2.4
		C920.4,555.1,921.4,556.2,921.4,557.5L921.4,557.5z"/>
	<path class="st3" d="M934.2,557.5c0,1.3-1.1,2.4-2.4,2.4s-2.4-1.1-2.4-2.4c0-1.3,1.1-2.4,2.4-2.4c1.3-0.1,2.3,0.9,2.4,2.2
		C934.2,557.4,934.2,557.4,934.2,557.5z"/>
	<path class="st3" d="M946.9,557.5c0,1.3-1.1,2.4-2.4,2.4s-2.4-1.1-2.4-2.4c0-1.3,1.1-2.4,2.4-2.4c1.3-0.1,2.3,0.9,2.4,2.2
		C946.9,557.4,946.9,557.4,946.9,557.5z"/>
	<path class="st3" d="M959.6,557.5c0,1.3-1.1,2.4-2.4,2.4s-2.4-1.1-2.4-2.4c0-1.3,1.1-2.4,2.4-2.4c1.3-0.1,2.3,0.9,2.4,2.2
		C959.6,557.4,959.6,557.4,959.6,557.5z"/>
	<path class="st3" d="M756,570c0,1.3-1.1,2.4-2.4,2.4c-1.3,0-2.4-1.1-2.4-2.4c0-1.3,1.1-2.4,2.4-2.4l0,0
		C754.9,567.6,755.9,568.6,756,570C756,569.9,756,570,756,570z"/>
	<path class="st3" d="M768.7,570c0,1.3-1.1,2.4-2.4,2.4c-1.3,0-2.4-1.1-2.4-2.4c0-1.3,1.1-2.4,2.4-2.4l0,0
		C767.6,567.6,768.7,568.6,768.7,570C768.7,569.9,768.7,570,768.7,570z"/>
	<path class="st3" d="M781.3,570c0,1.3-1.1,2.4-2.4,2.4c-1.3,0-2.4-1.1-2.4-2.4c0-1.3,1.1-2.4,2.4-2.4S781.3,568.6,781.3,570
		C781.3,569.9,781.3,569.9,781.3,570z"/>
	<path class="st3" d="M794.1,570c0,1.3-1.1,2.4-2.4,2.4c-1.3,0-2.4-1.1-2.4-2.4c0-1.3,1.1-2.4,2.4-2.4S794.1,568.6,794.1,570
		C794.1,569.9,794.1,569.9,794.1,570z"/>
	<path class="st3" d="M806.8,570c0,1.3-1.1,2.4-2.4,2.4c-1.3,0-2.4-1.1-2.4-2.4c0-1.3,1.1-2.4,2.4-2.4l0,0
		C805.7,567.5,806.8,568.6,806.8,570C806.8,569.9,806.8,569.9,806.8,570z"/>
	<path class="st3" d="M819.6,569.9c0,1.3-1.1,2.4-2.4,2.4c-1.3,0-2.4-1.1-2.4-2.4c0-1.3,1.1-2.4,2.4-2.4S819.6,568.6,819.6,569.9
		L819.6,569.9z"/>
	<path class="st3" d="M832.2,569.9c0,1.3-1.1,2.4-2.4,2.4s-2.4-1.1-2.4-2.4c0-1.3,1.1-2.4,2.4-2.4
		C831.2,567.5,832.2,568.6,832.2,569.9C832.3,569.9,832.3,569.9,832.2,569.9z"/>
	<path class="st3" d="M845,569.9c0,1.3-1.1,2.4-2.4,2.4s-2.4-1.1-2.4-2.4c0-1.3,1.1-2.4,2.4-2.4l0,0
		C843.9,567.5,845,568.6,845,569.9L845,569.9z"/>
	<path class="st3" d="M857.8,569.9c0,1.3-1.1,2.4-2.4,2.4s-2.4-1.1-2.4-2.4c0-1.3,1.1-2.4,2.4-2.4l0,0
		C856.7,567.5,857.8,568.6,857.8,569.9L857.8,569.9z"/>
	<path class="st3" d="M870.5,569.9c0,1.3-1.1,2.4-2.4,2.4s-2.4-1.1-2.4-2.4c0-1.3,1.1-2.4,2.4-2.4S870.5,568.5,870.5,569.9
		L870.5,569.9z"/>
	<path class="st3" d="M883.3,569.9c0,1.3-1.1,2.4-2.4,2.4s-2.4-1.1-2.4-2.4c0-1.3,1.1-2.4,2.4-2.4S883.3,568.5,883.3,569.9
		L883.3,569.9z"/>
	<path class="st3" d="M896,569.9c0,1.3-1.1,2.4-2.4,2.4s-2.4-1.1-2.4-2.4c0-1.3,1.1-2.4,2.4-2.4l0,0
		C894.9,567.5,895.9,568.5,896,569.9C896,569.8,896,569.9,896,569.9z"/>
	<path class="st3" d="M908.7,569.9c0,1.3-1.1,2.4-2.4,2.4s-2.4-1.1-2.4-2.4c0-1.3,1.1-2.4,2.4-2.4S908.7,568.5,908.7,569.9
		C908.7,569.8,908.7,569.9,908.7,569.9z"/>
	<path class="st3" d="M921.5,569.9c0,1.3-1.1,2.4-2.4,2.4s-2.4-1.1-2.4-2.4c0-1.3,1.1-2.4,2.4-2.4S921.4,568.5,921.5,569.9
		C921.5,569.8,921.5,569.9,921.5,569.9z"/>
	<path class="st3" d="M934.2,569.9c0,1.3-1.1,2.4-2.4,2.4s-2.4-1.1-2.4-2.4c0-1.3,1.1-2.4,2.4-2.4l0,0
		C933.1,567.5,934.2,568.5,934.2,569.9C934.2,569.8,934.2,569.9,934.2,569.9z"/>
	<path class="st3" d="M946.9,569.9c0,1.3-1.1,2.4-2.4,2.4s-2.4-1.1-2.4-2.4c0-1.3,1.1-2.4,2.4-2.4S946.8,568.5,946.9,569.9
		C946.9,569.8,946.9,569.8,946.9,569.9z"/>
	<path class="st3" d="M959.6,569.9c0,1.3-1.1,2.4-2.4,2.4s-2.4-1.1-2.4-2.4c0-1.3,1.1-2.4,2.4-2.4
		C958.5,567.4,959.6,568.5,959.6,569.9C959.6,569.8,959.6,569.8,959.6,569.9z"/>
</g>
</svg>
