<?xml version="1.0" encoding="utf-8"?>
<!-- Generator: Adobe Illustrator 23.0.1, SVG Export Plug-In . SVG Version: 6.00 Build 0)  -->
<svg version="1.1" id="Layer_1" xmlns="http://www.w3.org/2000/svg" xmlns:xlink="http://www.w3.org/1999/xlink" x="0px" y="0px"
	 viewBox="0 0 196.2 186" style="enable-background:new 0 0 196.2 186;" xml:space="preserve">
<style type="text/css">
	.st0{fill:#60D9FB;}
</style>
<title>logo</title>
<g>
	<path class="st0" d="M35.9,123.4V53.7h31.5c7.8,0,13.2,1.2,16.2,3.5c2.9,2.3,4.4,6.5,4.4,12.4v10.5c0,3.7-0.7,6.5-2.2,8.6
		c-1.6,2.2-4.1,3.6-6.8,3.9c3.3,0.8,5.7,2.2,7,4.3c1.3,2.1,2,5.3,2,9.7v16.8h-8.1V109c0-5-0.8-8.4-2.4-10.1s-4.7-2.6-9.2-2.6H43.5
		v27.2h-7.6C35.9,123.5,35.9,123.4,35.9,123.4z M65.8,61.1H43.5V89h22.2c5.8,0,9.6-0.7,11.4-2.1s2.7-4,2.7-7.7V71
		c0-3.8-0.9-6.4-2.6-7.8C75.5,61.8,71.7,61.1,65.8,61.1L65.8,61.1z"/>
	<path class="st0" d="M102.9,123.4V53.7h11.9l37.8,62.2V53.7h7.7v69.7h-11.9l-37.8-62.3v62.3H102.9z"/>
</g>
</svg>
