<?xml version="1.0" encoding="utf-8"?>
<!-- Generator: Adobe Illustrator 23.0.1, SVG Export Plug-In . SVG Version: 6.00 Build 0)  -->
<svg version="1.1" id="Layer_1" xmlns="http://www.w3.org/2000/svg" xmlns:xlink="http://www.w3.org/1999/xlink" x="0px" y="0px"
	 viewBox="0 0 1046 206" style="enable-background:new 0 0 1046 206;" xml:space="preserve">
<style type="text/css">
	.st0{fill:#D2A98E;}
	.st1{fill:none;stroke:#D2A98E;stroke-miterlimit:10;}
</style>
<title>logo</title>
<g>
	<path class="st0" d="M430.9,133.5V63.8h31.5c7.8,0,13.2,1.2,16.2,3.5c2.9,2.3,4.4,6.5,4.4,12.4v10.5c0,3.7-0.7,6.5-2.2,8.6
		c-1.6,2.2-4.1,3.6-6.8,3.9c3.3,0.8,5.7,2.2,7,4.3c1.3,2.1,2,5.3,2,9.7v16.8h-8.1v-14.4c0-5-0.8-8.4-2.4-10.1s-4.7-2.6-9.2-2.6
		h-24.8v27.2L430.9,133.5L430.9,133.5z M460.8,71.2h-22.3v27.9h22.2c5.8,0,9.6-0.7,11.4-2.1s2.7-4,2.7-7.7v-8.2
		c0-3.8-0.9-6.4-2.6-7.8S466.7,71.2,460.8,71.2L460.8,71.2z"/>
	<path class="st0" d="M497.9,133.5V63.8h11.9l37.8,62.2V63.8h7.7v69.7h-11.9l-37.8-62.3v62.3C505.6,133.5,497.9,133.5,497.9,133.5z"
		/>
</g>
<g>
	<polygon class="st1" points="540.5,21 445.7,21 398.3,103.1 445.7,185.2 540.5,185.2 587.9,103.1 	"/>
</g>
</svg>
