<svg id="Layer_1" data-name="Layer 1" xmlns="http://www.w3.org/2000/svg" xmlns:xlink="http://www.w3.org/1999/xlink" viewBox="0 0 182.1 273.96"><defs><style>.cls-1,.cls-5{fill:none;}.cls-2{clip-path:url(#clip-path);}.cls-3{opacity:0.25;}.cls-4{clip-path:url(#clip-path-4);}.cls-5{stroke:#0e1232;stroke-miterlimit:10;stroke-width:0.15px;}.cls-6{clip-path:url(#clip-path-5);}.cls-7{opacity:0.15;}.cls-8{clip-path:url(#clip-path-6);}</style><clipPath id="clip-path"><rect class="cls-1" x="7.89" y="73.63" width="151.2" height="259.2"/></clipPath><clipPath id="clip-path-4"><rect class="cls-1" y="133.8" width="169.36" height="140.16"/></clipPath><clipPath id="clip-path-5"><polyline class="cls-1" points="160.32 228.25 160.32 157.47 30.95 157.47 30.95 228.25"/></clipPath><clipPath id="clip-path-6"><rect class="cls-1" x="12.74" width="169.36" height="140.16"/></clipPath></defs><title>project</title><g class="cls-2"><g class="cls-2"><g class="cls-2"><g class="cls-3"><g class="cls-4"><path class="cls-5" d="M51,206.15l-12.72,22H12.81l-12.72-22,12.72-22H38.25ZM131.18,137H105.74L93,159l12.71,22h25.44l12.73-22Zm12.74,22h25.44m-27.48,69.2h25.44M35.72,261.31H61.16m80-103.8-12.72,22M93.19,159.27h-26m26.22-.79H67m-7-12.07H45.53L38.27,159l7.26,12.57H60.05L67.31,159Zm-20.9,11.94,7.26,12.57m14.84,64.49,7.69,13.33m12,.67L88.16,262M5.48,171.55l7.26,12.57m11-25.14H38.21m7.26-12.57-7.26-12.57m90.95,72.31H103.72L91,228.18l12.72,22h25.44l12.72-22ZM91,228.18H65.25m.06,0-4.61,8H51.49l-4.61-8,4.61-8H60.7Zm-26.9-44.06,7.25-12.57m107.32,22H138.47l-7.26,12.57,7.26,12.57H153l7.26-12.57ZM131.21,181l7.26,12.57m-55.9,55.16H68.06L60.8,261.31l7.26,12.57H82.57l7.26-12.57Zm-14.51,0L60.8,236.17"/></g></g><g class="cls-3"><g class="cls-6"><path class="cls-5" d="M46.88,228.18l4.61-8h9.22l4.6,8M31,184.12h7.3l12.72,22-12.72,22m100.22-34.6L131.21,181M153,193.58H138.47l-7.26,12.57,7.26,12.57H153l7.25-12.57Zm-107.32-22-7.26,12.57m26.84,44.06H91m2.19-68.91h-26M91,228.18l12.72-22h25.44l12.72,22M39.13,157.51,38.28,159l7.26,12.57H60.05l7.09-12.28"/></g></g><g class="cls-7"><g class="cls-8"><path class="cls-5" d="M131.13,67.8l12.72-22h25.44L182,67.8l-12.72,22H143.85ZM50.91,137H76.35l12.72-22L76.35,93H50.91L38.19,115ZM38.18,115H12.74M40.22,45.77H14.78m131.6-33.12H120.94m-80,103.8,12.72-22m35.29,20.27H115m-26.22.79h26.34m7,12.07h14.52L143.82,115l-7.25-12.57H122.05L114.79,115ZM143,115.61,135.69,103m-14.84-64.5-7.69-13.32m-12-.67L93.93,12m82.69,90.43-7.26-12.58m-11,25.15H143.89m-7.26,12.57,7.26,12.57M52.94,67.8H78.38l12.72-22-12.72-22H52.94l-12.72,22Zm38.16-22h25.75m-.06,0,4.61-8h9.21l4.61,8-4.61,8H121.4Zm26.9,44.06-7.25,12.58m-107.33-22H43.63L50.89,67.8,43.63,55.23H29.11L21.86,67.8ZM50.89,93,43.63,80.37m55.9-55.15H114l7.26-12.57L114,.08H99.53L92.27,12.65Zm14.51,0,7.26,12.57"/></g></g></g><g class="cls-2"><path d="M42.07,76.74v.07l-.22-.07Z"/><path d="M42.07,76.74v.07l-.22-.07Z"/></g></g></g></svg>