<?xml version="1.0" encoding="utf-8"?>
<!-- Generator: Adobe Illustrator 23.0.1, SVG Export Plug-In . SVG Version: 6.00 Build 0)  -->
<svg version="1.1" id="Layer_1" xmlns="http://www.w3.org/2000/svg" xmlns:xlink="http://www.w3.org/1999/xlink" x="0px" y="0px"
	 viewBox="0 0 247 180" style="enable-background:new 0 0 247 180;" xml:space="preserve">
<style type="text/css">
	.st0{fill:#2E3191;}
</style>
<title>logo-new</title>
<path class="st0" d="M76.8,116.1V63.9h23.5c5.8,0,9.8,0.9,12.1,2.6s3.3,4.9,3.3,9.3V84c0,2.8-0.5,4.8-1.6,6.4c-1.2,1.6-3,2.7-5,2.9
	c2.4,0.6,4.2,1.6,5.2,3.2s1.5,3.9,1.5,7.2v12.5h-6v-10.7c0-3.7-0.6-6.2-1.8-7.5c-1.2-1.3-3.5-1.9-6.8-1.9H82.8v20.2L76.8,116.1
	L76.8,116.1z M99.3,69.1H82.8V90h16.4c4.3,0,7.1-0.5,8.4-1.6c1.3-1,2-3,2-5.8v-6.1c0-2.8-0.7-4.8-1.9-5.8
	C106.5,69.6,103.7,69.1,99.3,69.1z"/>
<path class="st0" d="M126.9,116.1V63.9h8l29.3,46.6V63.9h6v52.3h-8l-29.3-46.7v46.7C132.8,116.1,126.9,116.1,126.9,116.1z"/>
</svg>
